<?xml version="1.0" encoding="UTF-8" standalone="no"?>
<!DOCTYPE svg PUBLIC "-//W3C//DTD SVG 1.1//EN" "http://www.w3.org/Graphics/SVG/1.1/DTD/svg11.dtd">
<svg width="100%" height="100%" viewBox="0 0 151 60" version="1.1" xmlns="http://www.w3.org/2000/svg" xmlns:xlink="http://www.w3.org/1999/xlink" xml:space="preserve" xmlns:serif="http://www.serif.com/" style="fill-rule:evenodd;clip-rule:evenodd;stroke-linejoin:round;stroke-miterlimit:1.41421;">
    <g transform="matrix(0.257759,0,0,0.257759,-3.35087,-10.877)">
        <path d="M231.9,274C218.5,271.7 209.3,261.5 207,246.3C204,227.3 213.4,208.5 228,204.1C233.3,202.5 244.9,202.7 250.2,204.6C256.6,206.7 262.4,212.1 265.4,218.5C268.2,224.2 270.8,237.6 269.7,240.4C269.1,241.8 266.3,242 244.5,242L220,242L220,245.3C220,247.1 221.2,251.1 222.8,254.1C224.9,258.3 226.5,260 230,261.8C235.1,264.3 241.5,264.7 246.3,262.6C250.1,261.1 254.7,256 255.6,252.4C256.2,250.2 256.7,250 262.6,250C266.1,250 269,250.4 269,250.8C269,253.7 265.3,261.4 262.3,264.9C258,270 253.3,272.5 245.5,273.9C239,275.1 238.5,275.1 231.9,274ZM256,229.8C256,228.5 255.1,225.6 254.1,223.4C249.9,214.3 239,210.5 230,215.2C226.5,217 224.9,218.7 222.8,222.9C218,232.4 217.3,232 238,232L256,232L256,229.8Z" style="fill:rgb(58,58,58);fill-rule:nonzero;"/>
    </g>
    <g transform="matrix(0.257759,0,0,0.257759,-3.35087,-10.877)">
        <path d="M291.7,273.6C285.3,271.8 282,269.3 279.3,264C275.4,256.4 276.6,246.7 282.2,241.3C286.9,236.8 291.8,235 305.5,232.9C316.2,231.3 317.8,230.8 319.9,228.4C321.7,226.3 322.1,224.9 321.7,222.2C321,218 319.4,216.1 315.3,214.3C307.2,211 296.9,213.7 294.3,219.9C291.4,226.6 291.6,226.5 285.9,226.5L280.5,226.5L280.6,222.4C280.7,216.1 284.8,210 291.2,206.5C295.8,204 297.8,203.5 306,203.2C319.7,202.6 327.1,205.2 332.4,212.3C334.4,214.9 334.5,216.8 335,238.8L335.5,262.5L338.8,262.8C341.9,263.1 342,263.3 342,267.5C342,271.8 341.9,271.9 337.8,273C335.6,273.7 332.2,273.9 330.4,273.5C327,272.9 323,268.9 323,266.2C323,265 322.3,265.3 320.3,267.2C316.4,270.8 312.4,272.6 305.5,273.9C298.4,275.2 297.8,275.2 291.7,273.6ZM306.8,263.9C317,261.8 322,255.8 322,245.9L322,239.4L314.3,240.8C310,241.6 304.2,242.6 301.3,243.1C292.2,244.9 288.5,250 291,257.6C291.9,260.3 293.2,261.6 296.4,263.1C299.003,264.269 300.11,264.582 301.438,264.628C302.61,264.67 303.941,264.556 306.8,263.9Z" style="fill:rgb(58,58,58);fill-rule:nonzero;"/>
    </g>
    <g transform="matrix(0.257759,0,0,0.257759,-3.35087,-10.877)">
        <path d="M371.3,274C360.5,271.7 352.3,264 348.9,252.8C345.9,242.9 346.5,227.9 350.2,219.9C355.3,208.8 362.8,203.8 375.3,203.2C384.8,202.7 391.1,204.3 395.7,208.3L399,211.2L399,195.1L399,179L412,179L412,225.4C412,251.908 412.183,263.755 411.255,269.002C410.367,274.029 410.959,272.989 404.4,273L400,273L400,269L400,265.1L397.5,267.6C392.1,272.9 380.3,275.9 371.3,274ZM385.7,262.9C389.5,261.5 393.7,257.3 396.3,252.5C398.1,249.2 398.5,246.8 398.5,238.5C398.5,230.1 398.1,227.8 396.3,224.4C393.1,218.3 387.9,214.3 382.4,213.4C372.7,212 364.8,217.2 361.5,227.1C359.2,234 359.8,246.9 362.7,252.5C367.7,262.1 376.9,266.3 385.7,262.9Z" style="fill:rgb(58,58,58);fill-rule:nonzero;"/>
    </g>
    <g transform="matrix(0.257759,0,0,0.257759,-3.35087,-10.877)">
        <path d="M44,232L44,191L28.5,191L13,191L13,185L13,179L88,179L88,191L72.5,191L57,191L56.8,231.8L56.511,272.951L44,273.1L44,232Z" style="fill:rgb(58,58,58);fill-rule:nonzero;"/>
    </g>
    <g transform="matrix(0.257759,0,0,0.257759,-3.35087,-10.877)">
        <path d="M95.7,272.3C95.3,272 95,250.8 95,225.3L95,178.9L107.848,179.012L107.8,194.7L108.1,209.9L113.2,206.7C117.7,203.9 119.3,203.5 126.7,203.1C136.9,202.7 142.5,204.5 146.9,209.6C151.6,214.9 152.1,218.4 151.8,246.7L151.5,272.5L145.5,272.5L139.5,272.5L139,246.5C138.5,217.9 138.2,216.8 132.5,214.4C124.8,211.2 114.9,214.1 110.8,220.8C108.6,224.3 108.5,225.5 108.2,248C108,264.6 108.072,271.7 107.272,272.2C106.667,272.604 96.237,272.837 95.7,272.3Z" style="fill:rgb(58,58,58);fill-rule:nonzero;"/>
    </g>
    <g transform="matrix(0.257759,0,0,0.257759,-3.35087,-10.877)">
        <path d="M166.7,272.4C166.3,272 166,256.7 166,238.3L166,205L179,205L179,214.1L182.2,210.4C186.4,205.6 192.2,203 198.8,203L204,203L204,215L199.8,215C191.4,215.1 183.5,220.7 180.9,228.5C180.1,230.9 179.4,240.3 179.1,252.5L178.5,272.5L173,272.8C169.9,273 167.1,272.8 166.7,272.4Z" style="fill:rgb(58,58,58);fill-rule:nonzero;"/>
    </g>
    <g transform="matrix(0.257759,0,0,0.257759,-3.35087,-10.877)">
        <path d="M427.7,272.3C427.3,272 427,250.8 427,225.3L427,179L494,179L494,197L472,197L450,197L450,218L489,218L489,225.9C489,232.2 488.7,233.9 487.4,234.4C486.5,234.7 477.8,235 467.9,235L450,235L450,252.8C450,265.3 449.6,271 448.8,271.8C447.5,273.1 428.9,273.5 427.7,272.3Z" style="fill:rgb(58,58,58);fill-rule:nonzero;"/>
    </g>
    <g transform="matrix(0.257759,0,0,0.257759,-3.35087,-10.877)">
        <path d="M500,238.5L500,203.9L509.8,204.2L519.5,204.5L519.8,237.9C520,264 519.7,271.5 518.8,272.2C518.1,272.6 513.6,273 508.8,273L500,273L500,238.5Z" style="fill:rgb(58,58,58);fill-rule:nonzero;"/>
    </g>
    <g transform="matrix(0.257759,0,0,0.257759,-3.35087,-10.877)">
        <path d="M526.5,272C525.7,270.8 525.1,271.8 538.2,252.9C544.1,244.3 549,237 549,236.7C549,236.4 544.3,229.4 538.5,221.1C532.7,212.9 528,205.7 528,205.1C528,204.4 531.7,204 538.9,204L549.8,204L553.3,208.8C555.2,211.4 557.8,215.4 559.1,217.7L561.4,221.7L566.9,212.9L572.4,204L583,204C588.9,204 593.9,204.3 594.3,204.6C594.6,204.9 589.9,212.1 583.9,220.6C577.7,229.4 573.3,236.6 573.7,237.2C574,237.9 579.2,245.3 585.2,253.8C591.1,262.3 596,270.1 596,271.2C596,272.8 595,273 585.5,273L575.1,273L569.8,265.3C566.9,261 563.8,256.3 562.9,254.7L561.3,251.8L555,261.6C551.6,267.1 548.2,271.8 547.6,272.2C545.9,273.4 527.2,273.1 526.5,272Z" style="fill:rgb(58,58,58);fill-rule:nonzero;"/>
    </g>
    <g transform="matrix(0.257759,0,0,0.257759,-3.35087,-10.877)">
        <path d="M500,187.5L500,179L520,179L520,196L510,196L500,196L500,187.5Z" style="fill:rgb(58,58,58);fill-rule:nonzero;"/>
    </g>
    <g transform="matrix(0.257759,0,0,0.257759,-3.35087,-10.877)">
        <path d="M160.4,133.6C159.2,130.4 160.8,128.4 167.4,124.8C174.8,120.7 178,120.1 180,122.5C182.2,125.1 180.5,127.4 173.6,131.2C166.4,135.1 161.3,136 160.4,133.6Z" style="fill:rgb(58,58,58);fill-rule:nonzero;"/>
    </g>
    <g transform="matrix(0.257759,0,0,0.257759,-3.35087,-10.877)">
        <path d="M184.7,122.3C184.3,122 184,120.6 184,119.4C184,116.7 186,115.2 194.7,111.4C201.3,108.6 205.3,108.7 206.4,111.6C207.5,114.4 205.3,116.5 197.6,119.8C190.3,122.9 186.1,123.7 184.7,122.3Z" style="fill:rgb(58,58,58);fill-rule:nonzero;"/>
    </g>
    <g transform="matrix(0.257759,0,0,0.257759,-3.35087,-10.877)">
        <path d="M127.8,113.3C125.8,112.8 124.7,110 125.6,107.7C126.4,105.6 142.4,100.6 145.6,101.4C148,102 149.6,105.2 148.5,107.1C147.2,109 130.9,113.9 127.8,113.3Z" style="fill:rgb(58,58,58);fill-rule:nonzero;"/>
    </g>
    <g transform="matrix(0.257759,0,0,0.257759,-3.35087,-10.877)">
        <path d="M210.7,111.3C209.5,110.2 209.9,106.3 211.3,105.3C213.5,103.5 227.9,99.2 229.9,99.7C232.2,100.3 233.3,102.5 232.5,105.1C231.5,108.2 212.9,113.5 210.7,111.3Z" style="fill:rgb(58,58,58);fill-rule:nonzero;"/>
    </g>
    <g transform="matrix(0.257759,0,0,0.257759,-3.35087,-10.877)">
        <path d="M152.8,103.4C151.7,101.1 151.8,100.5 153.7,99.1C156.7,96.6 171.4,93.6 174,95C176.4,96.3 176.6,99.2 174.5,101C173,102.2 159.2,105.9 155.7,106C154.8,106 153.4,104.8 152.8,103.4Z" style="fill:rgb(58,58,58);fill-rule:nonzero;"/>
    </g>
    <g transform="matrix(0.257759,0,0,0.257759,-3.35087,-10.877)">
        <path d="M237.2,102.8C234,99.6 236.5,96.5 243.7,94.5L248.5,93.2L243,93.1C237,93 235,91.8 235,88.5C235,85.2 237,84 243,83.9L248.5,83.8L243.7,82.5C241.1,81.8 238.3,80.6 237.5,80C235.6,78.4 235.6,75.6 237.6,73.9C238.9,72.9 240.7,73 248.4,74.9C253.5,76.1 258.2,77.6 258.9,78.3C260.5,79.9 260.3,82.8 258.4,83.8C257.3,84.4 257.1,84.9 257.9,85.4C258.5,85.8 259,87.2 259,88.5C259,89.8 258.5,91.2 257.9,91.6C257.1,92.1 257.3,92.6 258.4,93.2C260.3,94.3 260.5,97.3 258.8,98.8C257.5,99.8 242.3,104 239.8,104C239,104 237.9,103.5 237.2,102.8Z" style="fill:rgb(58,58,58);fill-rule:nonzero;"/>
    </g>
    <g transform="matrix(0.257759,0,0,0.257759,-3.35087,-10.877)">
        <path d="M469.7,103.3C468.4,102.1 469.1,98.5 471,96C472.1,94.6 473,93.2 473,92.8C473,92.3 438.7,91.9 396.9,91.8C328,91.5 320.6,91.3 319.7,89.9C319.1,89 319,87.5 319.3,86.6C319.9,85.1 326.6,85 397,85L474,85L471.4,81.1C468.3,76.3 468.5,73.6 472.1,73.2C474.4,72.9 475.5,73.9 479.5,79.7C482.1,83.4 484.4,86.9 484.7,87.5C484.9,88.2 482.8,92.1 479.9,96.3C476.1,102 474.2,104 472.5,104C471.3,104 470,103.7 469.7,103.3Z" style="fill:rgb(58,58,58);fill-rule:nonzero;"/>
    </g>
    <g transform="matrix(0.257759,0,0,0.257759,-3.35087,-10.877)">
        <path d="M181.2,98.8C179.4,97 179.7,93.2 181.8,92.2C184.5,90.8 198.8,88.8 201,89.5C202.7,90 203,90.9 202.8,93.3C202.5,96.3 202.2,96.6 196.7,97.6C185.4,99.9 182.5,100.1 181.2,98.8Z" style="fill:rgb(58,58,58);fill-rule:nonzero;"/>
    </g>
    <g transform="matrix(0.257759,0,0,0.257759,-3.35087,-10.877)">
        <path d="M265.4,97.2C262.7,95.4 262.9,80.6 265.7,79.6C267.2,79 284.3,81.5 286,82.5C287.3,83.3 287.3,93.7 286,94.5C285.2,95 268.9,98 267,98C266.7,98 266,97.6 265.4,97.2Z" style="fill:rgb(58,58,58);fill-rule:nonzero;"/>
    </g>
    <g transform="matrix(0.257759,0,0,0.257759,-3.35087,-10.877)">
        <path d="M208.4,93.9C206.9,91.6 207,83.2 208.5,82C209.5,81.1 212.2,81.1 218.9,81.9C230.8,83.4 231,83.5 231,88.1C231,93 229.8,93.6 218.4,94.5C211.2,95.1 209.1,95 208.4,93.9Z" style="fill:rgb(58,58,58);fill-rule:nonzero;"/>
    </g>
    <g transform="matrix(0.257759,0,0,0.257759,-3.35087,-10.877)">
        <path d="M292.3,92.9C290.5,91.1 290.7,85.5 292.4,84C294.2,82.6 311.7,83.6 313.8,85.2C314.4,85.8 315,87.3 315,88.5C315,92 313.2,92.7 303,93.4C295.9,94 293.2,93.8 292.3,92.9Z" style="fill:rgb(58,58,58);fill-rule:nonzero;"/>
    </g>
    <g transform="matrix(0.257759,0,0,0.257759,-3.35087,-10.877)">
        <path d="M187.5,85.7C181.1,84.2 180,83.4 180,80.4C180,76.9 181.9,76.6 192.1,78C201.5,79.4 203.4,80.4 202.8,84.2C202.5,86.2 201.9,86.5 197.5,86.7C194.8,86.7 190.3,86.3 187.5,85.7Z" style="fill:rgb(58,58,58);fill-rule:nonzero;"/>
    </g>
    <g transform="matrix(0.257759,0,0,0.257759,-3.35087,-10.877)">
        <path d="M160.6,80C152.5,77.8 150.6,75.8 152.9,72.1C154.1,70.3 158.6,70.5 167.4,72.8C174.9,74.7 177.2,76.8 175.4,79.8C173.9,82.2 168.9,82.2 160.6,80Z" style="fill:rgb(58,58,58);fill-rule:nonzero;"/>
    </g>
    <g transform="matrix(0.257759,0,0,0.257759,-3.35087,-10.877)">
        <path d="M220,75.1C210.6,71.9 210,71.5 210,68.5C210,64.1 212.9,63.8 222.8,67.1C232.1,70.2 234.6,72.4 232,75.4C230.1,77.8 227.7,77.7 220,75.1Z" style="fill:rgb(58,58,58);fill-rule:nonzero;"/>
    </g>
    <g transform="matrix(0.257759,0,0,0.257759,-3.35087,-10.877)">
        <path d="M133.7,72.7C126.3,70.3 124.2,68.3 126,65C127.4,62.4 129.5,62.5 139.6,65.5C148.2,68.2 150.6,70.4 148,73.5C146.3,75.5 141.8,75.2 133.7,72.7Z" style="fill:rgb(58,58,58);fill-rule:nonzero;"/>
    </g>
    <g transform="matrix(0.257759,0,0,0.257759,-3.35087,-10.877)">
        <path d="M193.7,65C185.1,61.4 183.8,60.3 184.2,57.1C184.6,53.3 188.5,53.3 197.2,57C206.6,61.1 208.5,63.3 205.4,66.4C203.3,68.6 201.5,68.4 193.7,65Z" style="fill:rgb(58,58,58);fill-rule:nonzero;"/>
    </g>
    <g transform="matrix(0.257759,0,0,0.257759,-3.35087,-10.877)">
        <path d="M167,52.1C161.3,48.9 160.5,48.1 160.5,45.5C160.5,41 164.7,41.1 173.5,45.8C180.6,49.5 182.2,51.8 180,54.5C178.1,56.8 174,56.1 167,52.1Z" style="fill:rgb(58,58,58);fill-rule:nonzero;"/>
    </g>
    <g transform="matrix(0.257759,0,0,0.257759,-3.35087,-10.877)">
        <path d="M427.7,272.3C427.3,272 427,250.8 427,225.3L427,179L494,179L494,197L472,197L450,197L450,218L489,218L489,225.9C488.881,229.16 488.976,231.357 488.942,232.747C488.91,234.064 488.764,234.654 488.132,234.897C487.232,235.197 477.8,235 467.9,235L450,235L450,252.8C450,265.3 450.538,271.371 449.738,272.171C449.087,272.822 443.858,273.154 438.651,273.173C433.464,273.191 428.299,272.899 427.7,272.3Z" style="fill:rgb(58,58,58);fill-rule:nonzero;"/>
    </g>
    <g transform="matrix(0.257759,0,0,0.257759,-3.35087,-10.877)">
        <path d="M500,238.5L500,203.9L519.5,203.827L519.8,237.9C520,264 520.352,272.13 519.372,272.69C518.672,273.09 500,273 500,273L500,238.5Z" style="fill:rgb(58,58,58);fill-rule:nonzero;"/>
    </g>
    <g transform="matrix(0.257759,0,0,0.257759,-3.35087,-10.877)">
        <path d="M526.5,272C525.7,270.8 525.1,271.8 538.2,252.9C544.1,244.3 549,237 549,236.7C549,236.4 544.3,229.4 538.5,221.1C532.7,212.9 528.15,205.681 528,205.1C527.591,203.518 531.7,204 538.9,204L549.8,204L553.3,208.8C555.2,211.4 557.8,215.4 559.1,217.7L561.4,221.7L566.9,212.9L572.4,204L583,204C588.9,204 593.9,203.709 594.3,204.009C594.6,204.309 589.9,212.1 583.9,220.6C577.7,229.4 573.3,236.6 573.7,237.2C574,237.9 579.2,245.3 585.2,253.8C591.1,262.3 596.874,271.267 596.874,272.367C596.874,273.967 575.1,273 575.1,273L569.8,265.3C566.9,261 563.8,256.3 562.9,254.7L561.3,251.8L555,261.6C551.6,267.1 548.2,271.8 547.6,272.2C545.9,273.4 527.2,273.1 526.5,272Z" style="fill:rgb(58,58,58);fill-rule:nonzero;"/>
    </g>
    <g transform="matrix(0.257759,0,0,0.257759,-3.35087,-10.877)">
        <path d="M500,187.5L500,179L520,179L520,196L510,196L500,196L500,187.5Z" style="fill:rgb(58,58,58);fill-rule:nonzero;"/>
    </g>
    <g transform="matrix(0.257759,0,0,0.257759,-3.35087,-10.877)">
        <path d="M160.4,133.6C159.2,130.4 160.8,128.4 167.4,124.8C174.8,120.7 178,120.1 180,122.5C182.2,125.1 180.5,127.4 173.6,131.2C166.4,135.1 161.3,136 160.4,133.6Z" style="fill:rgb(58,58,58);fill-rule:nonzero;"/>
    </g>
    <g transform="matrix(0.257759,0,0,0.257759,-3.35087,-10.877)">
        <path d="M184.7,122.3C184.3,122 184,120.6 184,119.4C184,116.7 186,115.2 194.7,111.4C201.3,108.6 205.3,108.7 206.4,111.6C207.5,114.4 205.3,116.5 197.6,119.8C190.3,122.9 186.1,123.7 184.7,122.3Z" style="fill:rgb(58,58,58);fill-rule:nonzero;"/>
    </g>
    <g transform="matrix(0.257759,0,0,0.257759,-3.35087,-10.877)">
        <path d="M127.8,113.3C125.8,112.8 124.7,110 125.6,107.7C126.4,105.6 142.4,100.6 145.6,101.4C148,102 149.6,105.2 148.5,107.1C147.2,109 130.9,113.9 127.8,113.3Z" style="fill:rgb(58,58,58);fill-rule:nonzero;"/>
    </g>
    <g transform="matrix(0.257759,0,0,0.257759,-3.35087,-10.877)">
        <path d="M210.7,111.3C209.5,110.2 209.9,106.3 211.3,105.3C213.5,103.5 227.9,99.2 229.9,99.7C232.2,100.3 233.3,102.5 232.5,105.1C231.5,108.2 212.9,113.5 210.7,111.3Z" style="fill:rgb(58,58,58);fill-rule:nonzero;"/>
    </g>
    <g transform="matrix(0.257759,0,0,0.257759,-3.35087,-10.877)">
        <path d="M152.8,103.4C151.7,101.1 151.8,100.5 153.7,99.1C156.7,96.6 171.4,93.6 174,95C176.4,96.3 176.6,99.2 174.5,101C173,102.2 159.2,105.9 155.7,106C154.8,106 153.4,104.8 152.8,103.4Z" style="fill:rgb(58,58,58);fill-rule:nonzero;"/>
    </g>
    <g transform="matrix(0.257759,0,0,0.257759,-3.35087,-10.877)">
        <path d="M237.2,102.8C234,99.6 236.5,96.5 243.7,94.5L248.5,93.2L243,93.1C237,93 235,91.8 235,88.5C235,85.2 237,84 243,83.9L248.5,83.8L243.7,82.5C241.1,81.8 238.3,80.6 237.5,80C235.6,78.4 235.6,75.6 237.6,73.9C238.9,72.9 240.7,73 248.4,74.9C253.5,76.1 258.2,77.6 258.9,78.3C260.5,79.9 260.3,82.8 258.4,83.8C257.3,84.4 257.1,84.9 257.9,85.4C258.5,85.8 259,87.2 259,88.5C259,89.8 258.5,91.2 257.9,91.6C257.1,92.1 257.3,92.6 258.4,93.2C260.3,94.3 260.5,97.3 258.8,98.8C257.5,99.8 242.3,104 239.8,104C239,104 237.9,103.5 237.2,102.8Z" style="fill:rgb(58,58,58);fill-rule:nonzero;"/>
    </g>
    <g transform="matrix(0.257759,0,0,0.257759,-3.35087,-10.877)">
        <path d="M469.7,103.3C468.4,102.1 469.1,98.5 471,96C472.1,94.6 473,93.2 473,92.8C473,92.3 438.7,91.9 396.9,91.8C328,91.5 320.276,92.265 319.376,90.865C319.033,90.333 319,86.005 319.3,85.105C319.9,83.605 326.6,85 397,85L474,85L471.4,81.1C468.3,76.3 468.5,73.6 472.1,73.2C474.4,72.9 475.5,73.9 479.5,79.7C482.1,83.4 484.4,86.9 484.7,87.5C484.9,88.2 482.8,92.1 479.9,96.3C476.1,102 474.2,104 472.5,104C471.3,104 470,103.7 469.7,103.3Z" style="fill:rgb(58,58,58);fill-rule:nonzero;"/>
    </g>
    <g transform="matrix(0.257759,0,0,0.257759,-3.35087,-10.877)">
        <path d="M181.2,98.8C179.4,97 179.7,93.2 181.8,92.2C184.5,90.8 198.8,88.8 201,89.5C202.7,90 203,90.9 202.8,93.3C202.5,96.3 202.2,96.6 196.7,97.6C185.4,99.9 182.5,100.1 181.2,98.8Z" style="fill:rgb(58,58,58);fill-rule:nonzero;"/>
    </g>
    <g transform="matrix(0.257759,0,0,0.257759,-3.35087,-10.877)">
        <path d="M265.4,97.2C262.7,95.4 262.9,80.6 265.7,79.6C267.2,79 284.3,81.5 286,82.5C287.3,83.3 287.3,93.7 286,94.5C285.2,95 268.9,98 267,98C266.7,98 266,97.6 265.4,97.2Z" style="fill:rgb(58,58,58);fill-rule:nonzero;"/>
    </g>
    <g transform="matrix(0.257759,0,0,0.257759,-3.35087,-10.877)">
        <path d="M208.4,93.9C206.9,91.6 207,83.2 208.5,82C209.5,81.1 212.2,81.1 218.9,81.9C230.8,83.4 231,83.5 231,88.1C231,93 229.8,93.6 218.4,94.5C211.2,95.1 209.1,95 208.4,93.9Z" style="fill:rgb(58,58,58);fill-rule:nonzero;"/>
    </g>
    <g transform="matrix(0.257759,0,0,0.257759,-3.35087,-10.877)">
        <path d="M292.3,92.9C290.5,91.1 290.7,85.5 292.4,84C294.2,82.6 311.7,83.6 313.8,85.2C314.4,85.8 315,87.3 315,88.5C315,92 313.2,92.7 303,93.4C295.9,94 293.2,93.8 292.3,92.9Z" style="fill:rgb(58,58,58);fill-rule:nonzero;"/>
    </g>
    <g transform="matrix(0.257759,0,0,0.257759,-3.35087,-10.877)">
        <path d="M187.5,85.7C181.1,84.2 180,83.4 180,80.4C180,76.9 181.9,76.6 192.1,78C201.5,79.4 203.4,80.4 202.8,84.2C202.5,86.2 201.9,86.5 197.5,86.7C194.8,86.7 190.3,86.3 187.5,85.7Z" style="fill:rgb(58,58,58);fill-rule:nonzero;"/>
    </g>
    <g transform="matrix(0.257759,0,0,0.257759,-3.35087,-10.877)">
        <path d="M160.6,80C152.5,77.8 150.6,75.8 152.9,72.1C154.1,70.3 158.6,70.5 167.4,72.8C174.9,74.7 177.2,76.8 175.4,79.8C173.9,82.2 168.9,82.2 160.6,80Z" style="fill:rgb(58,58,58);fill-rule:nonzero;"/>
    </g>
    <g transform="matrix(0.257759,0,0,0.257759,-3.35087,-10.877)">
        <path d="M220,75.1C210.6,71.9 210,71.5 210,68.5C210,64.1 212.9,63.8 222.8,67.1C232.1,70.2 234.6,72.4 232,75.4C230.1,77.8 227.7,77.7 220,75.1Z" style="fill:rgb(58,58,58);fill-rule:nonzero;"/>
    </g>
    <g transform="matrix(0.257759,0,0,0.257759,-3.35087,-10.877)">
        <path d="M133.7,72.7C126.3,70.3 124.2,68.3 126,65C127.4,62.4 129.5,62.5 139.6,65.5C148.2,68.2 150.6,70.4 148,73.5C146.3,75.5 141.8,75.2 133.7,72.7Z" style="fill:rgb(58,58,58);fill-rule:nonzero;"/>
    </g>
    <g transform="matrix(0.257759,0,0,0.257759,-3.35087,-10.877)">
        <path d="M193.7,65C185.1,61.4 183.8,60.3 184.2,57.1C184.6,53.3 188.5,53.3 197.2,57C206.6,61.1 208.5,63.3 205.4,66.4C203.3,68.6 201.5,68.4 193.7,65Z" style="fill:rgb(58,58,58);fill-rule:nonzero;"/>
    </g>
    <g transform="matrix(0.257759,0,0,0.257759,-3.35087,-10.877)">
        <path d="M167,52.1C161.3,48.9 160.5,48.1 160.5,45.5C160.5,41 164.7,41.1 173.5,45.8C180.6,49.5 182.2,51.8 180,54.5C178.1,56.8 174,56.1 167,52.1Z" style="fill:rgb(58,58,58);fill-rule:nonzero;"/>
    </g>
</svg>
