<?xml version="1.0" encoding="UTF-8" standalone="no"?>
<!DOCTYPE svg PUBLIC "-//W3C//DTD SVG 1.1//EN" "http://www.w3.org/Graphics/SVG/1.1/DTD/svg11.dtd">
<svg width="100%" height="100%" viewBox="0 0 304 60" version="1.1" xmlns="http://www.w3.org/2000/svg" xmlns:xlink="http://www.w3.org/1999/xlink" xml:space="preserve" xmlns:serif="http://www.serif.com/" style="fill-rule:evenodd;clip-rule:evenodd;stroke-linejoin:round;stroke-miterlimit:1.41421;">
    <g transform="matrix(0.68927,0,0,0.68927,-21.3674,-56.5202)">
        <path d="M31,90.7C48.31,87.8 65.62,84.9 82.94,82C82.94,111 82.94,140 82.94,169C65.63,165.94 48.32,162.85 31.01,159.8C30.99,136.77 31.01,113.74 31,90.7M42.81,115.77C45.72,115.78 48.64,115.78 51.56,115.77C51.6,125.16 51.56,134.54 51.57,143.93C53.97,143.92 56.37,143.92 58.77,143.92C58.77,134.37 58.77,124.82 58.77,115.26C62.03,115.27 65.28,115.26 68.54,115.26C68.54,113.22 68.54,111.17 68.54,109.13C59.97,109.45 51.41,109.82 42.84,110.14C42.84,112.02 42.82,113.89 42.81,115.77Z" style="fill:rgb(58,58,58);fill-rule:nonzero;"/>
    </g>
    <g transform="matrix(0.68927,0,0,0.68927,-21.3674,-56.5202)">
        <path d="M86.05,103.22C88.11,101.94 90.4,100.45 92.96,101.07C97.91,101.82 101.18,108.03 98.32,112.37C96.04,116.69 89.37,117.7 86.35,113.62C85.58,110.23 86.2,106.67 86.05,103.22Z" style="fill:rgb(58,58,58);fill-rule:nonzero;"/>
    </g>
    <g transform="matrix(0.68927,0,0,0.68927,-21.3674,-56.5202)">
        <path d="M107.29,106.35C111.07,104.35 116.2,106.25 117.79,110.21C119.66,114.23 117.19,119.4 112.94,120.55C109.14,121.8 104.68,119.53 103.44,115.74C102.11,112.22 103.9,107.94 107.29,106.35Z" style="fill:rgb(58,58,58);fill-rule:nonzero;"/>
    </g>
    <g transform="matrix(0.68927,0,0,0.68927,-21.3674,-56.5202)">
        <path d="M86.04,120.37C91,120.38 95.97,120.38 100.93,120.38C100.89,129.25 101.04,138.14 100.88,147.01C100.92,149.35 98.92,151.05 96.96,151.93C93.51,153.49 89.58,153.23 86.02,152.21C86.04,141.6 86.01,130.99 86.04,120.37Z" style="fill:rgb(58,58,58);fill-rule:nonzero;"/>
    </g>
    <g transform="matrix(0.68927,0,0,0.68927,-21.3674,-56.5202)">
        <path d="M103,123.97C107.97,123.96 112.94,123.96 117.91,123.97C117.69,129.95 118.38,136.02 117.55,141.94C114.78,147.09 107.97,146.42 103,146.5C102.99,138.99 102.99,131.48 103,123.97Z" style="fill:rgb(58,58,58);fill-rule:nonzero;"/>
    </g>
    <g transform="matrix(1,0,0,1,-35.8429,-140.909)">
        <g transform="matrix(0.68927,0,0,0.68927,11.1375,43.7846)">
            <path d="M178.688,201.617L178.688,178.414C178.688,177.227 178.782,175.312 178.969,172.672L178.875,172.672C178.657,173.375 178.457,173.984 178.278,174.5C178.098,175.016 177.93,175.437 177.774,175.766L166.055,201.617L164.719,201.617L152.977,175.93C152.633,175.148 152.282,174.047 151.922,172.625L151.829,172.625C151.891,173.344 151.934,174.164 151.957,175.086C151.981,176.008 151.993,177.031 151.993,178.156L151.993,201.617L148.946,201.617L148.946,168.008L152.625,168.008L164.039,193.273C164.274,193.805 164.504,194.348 164.731,194.902C164.957,195.457 165.164,196.047 165.352,196.672L165.493,196.672C165.711,196.047 165.911,195.477 166.09,194.961C166.27,194.445 166.493,193.891 166.758,193.297L178.266,168.008L181.758,168.008L181.758,201.617L178.688,201.617Z" style="fill:rgb(58,58,58);fill-rule:nonzero;"/>
        </g>
        <g transform="matrix(0.68927,0,0,0.68927,11.1375,43.7846)">
            <path d="M191.461,171.547C190.883,171.547 190.383,171.344 189.961,170.937C189.539,170.531 189.329,170.016 189.329,169.391C189.329,168.781 189.539,168.277 189.961,167.879C190.383,167.48 190.883,167.281 191.461,167.281C191.758,167.281 192.039,167.332 192.305,167.434C192.571,167.535 192.801,167.68 192.997,167.867C193.192,168.055 193.348,168.277 193.465,168.535C193.582,168.793 193.641,169.078 193.641,169.391C193.641,169.687 193.586,169.969 193.477,170.234C193.368,170.5 193.211,170.73 193.008,170.926C192.805,171.121 192.575,171.273 192.317,171.383C192.059,171.492 191.774,171.547 191.461,171.547ZM189.985,201.617L189.985,177.617L192.985,177.617L192.985,201.617L189.985,201.617Z" style="fill:rgb(58,58,58);fill-rule:nonzero;"/>
        </g>
        <g transform="matrix(0.68927,0,0,0.68927,11.1375,43.7846)">
            <path d="M216.68,200.539C214.899,201.617 212.743,202.172 210.211,202.203C208.493,202.219 206.946,201.922 205.571,201.312C204.196,200.703 203.024,199.855 202.055,198.77C201.086,197.684 200.344,196.402 199.829,194.926C199.313,193.449 199.055,191.844 199.055,190.109C199.055,188.312 199.329,186.621 199.875,185.035C200.422,183.449 201.219,182.066 202.266,180.887C203.313,179.707 204.594,178.773 206.11,178.086C207.625,177.398 209.36,177.055 211.313,177.055C213.297,177.055 215.11,177.437 216.75,178.203L216.75,181.391C215,180.234 213.11,179.656 211.079,179.656C209.657,179.656 208.391,179.926 207.282,180.465C206.172,181.004 205.239,181.738 204.481,182.668C203.723,183.598 203.145,184.684 202.747,185.926C202.348,187.168 202.149,188.484 202.149,189.875C202.149,191.156 202.317,192.383 202.653,193.555C202.989,194.727 203.504,195.762 204.2,196.66C204.895,197.559 205.774,198.273 206.836,198.805C207.899,199.336 209.149,199.602 210.586,199.602C212.836,199.602 214.868,198.93 216.68,197.586L216.68,200.539Z" style="fill:rgb(58,58,58);fill-rule:nonzero;"/>
        </g>
        <g transform="matrix(0.68927,0,0,0.68927,11.1375,43.7846)">
            <path d="M234.352,180.687C233.649,180.172 232.743,179.914 231.633,179.914C230.836,179.914 230.133,180.066 229.524,180.371C228.914,180.676 228.379,181.086 227.918,181.602C227.457,182.117 227.067,182.715 226.747,183.395C226.426,184.074 226.168,184.781 225.973,185.516C225.778,186.25 225.637,186.992 225.551,187.742C225.465,188.492 225.422,189.203 225.422,189.875L225.422,201.617L222.446,201.617L222.446,177.617L225.422,177.617L225.422,182.75L225.516,182.75C225.797,181.875 226.153,181.09 226.582,180.395C227.012,179.699 227.508,179.113 228.071,178.637C228.633,178.16 229.247,177.797 229.911,177.547C230.575,177.297 231.274,177.172 232.008,177.172C232.493,177.172 232.926,177.203 233.309,177.266C233.692,177.328 234.039,177.422 234.352,177.547L234.352,180.687Z" style="fill:rgb(58,58,58);fill-rule:nonzero;"/>
        </g>
        <g transform="matrix(0.68927,0,0,0.68927,11.1375,43.7846)">
            <path d="M247.899,202.18C246.118,202.18 244.52,201.883 243.106,201.289C241.692,200.695 240.485,199.855 239.485,198.77C238.485,197.684 237.719,196.383 237.188,194.867C236.657,193.352 236.391,191.672 236.391,189.828C236.391,187.828 236.672,186.039 237.235,184.461C237.797,182.883 238.598,181.543 239.637,180.441C240.676,179.34 241.93,178.5 243.399,177.922C244.868,177.344 246.508,177.055 248.321,177.055C250.055,177.055 251.618,177.34 253.008,177.91C254.399,178.48 255.579,179.305 256.547,180.383C257.516,181.461 258.258,182.773 258.774,184.32C259.289,185.867 259.547,187.625 259.547,189.594C259.547,191.469 259.278,193.176 258.739,194.715C258.2,196.254 257.43,197.578 256.43,198.687C255.43,199.797 254.211,200.656 252.774,201.266C251.336,201.875 249.711,202.18 247.899,202.18ZM248.133,179.656C246.821,179.656 245.633,179.883 244.571,180.336C243.508,180.789 242.598,181.449 241.84,182.316C241.082,183.184 240.5,184.246 240.094,185.504C239.688,186.762 239.485,188.187 239.485,189.781C239.485,191.281 239.688,192.633 240.094,193.836C240.5,195.039 241.075,196.07 241.817,196.93C242.559,197.789 243.461,198.449 244.524,198.91C245.586,199.371 246.774,199.602 248.086,199.602C249.43,199.602 250.618,199.379 251.649,198.934C252.68,198.488 253.555,197.84 254.274,196.988C254.993,196.137 255.536,195.094 255.903,193.859C256.27,192.625 256.454,191.219 256.454,189.641C256.454,186.406 255.735,183.934 254.297,182.223C252.86,180.512 250.805,179.656 248.133,179.656Z" style="fill:rgb(58,58,58);fill-rule:nonzero;"/>
        </g>
        <g transform="matrix(0.68927,0,0,0.68927,11.1375,43.7846)">
            <path d="M264.235,197.305C264.688,197.664 265.18,197.984 265.711,198.266C266.243,198.547 266.789,198.789 267.352,198.992C267.914,199.195 268.481,199.348 269.051,199.449C269.622,199.551 270.164,199.602 270.68,199.602C274.243,199.602 276.024,198.266 276.024,195.594C276.024,194.984 275.899,194.457 275.649,194.012C275.399,193.566 275.039,193.16 274.571,192.793C274.102,192.426 273.539,192.086 272.883,191.773C272.227,191.461 271.485,191.133 270.657,190.789C269.547,190.336 268.594,189.875 267.797,189.406C267,188.937 266.344,188.426 265.829,187.871C265.313,187.316 264.93,186.707 264.68,186.043C264.43,185.379 264.305,184.625 264.305,183.781C264.305,182.719 264.536,181.773 264.997,180.945C265.457,180.117 266.079,179.414 266.86,178.836C267.641,178.258 268.543,177.816 269.567,177.512C270.59,177.207 271.664,177.055 272.789,177.055C274.868,177.055 276.68,177.445 278.227,178.227L278.227,181.391C276.43,180.234 274.493,179.656 272.414,179.656C271.664,179.656 270.981,179.75 270.364,179.937C269.747,180.125 269.219,180.391 268.782,180.734C268.344,181.078 268.004,181.488 267.762,181.965C267.52,182.441 267.399,182.969 267.399,183.547C267.399,184.141 267.493,184.66 267.68,185.105C267.868,185.551 268.161,185.953 268.559,186.312C268.957,186.672 269.473,187.016 270.106,187.344C270.739,187.672 271.508,188.023 272.414,188.398C273.571,188.867 274.571,189.332 275.414,189.793C276.258,190.254 276.954,190.754 277.5,191.293C278.047,191.832 278.454,192.434 278.719,193.098C278.985,193.762 279.118,194.531 279.118,195.406C279.118,196.484 278.895,197.445 278.45,198.289C278.004,199.133 277.387,199.844 276.598,200.422C275.809,201 274.883,201.437 273.821,201.734C272.758,202.031 271.602,202.18 270.352,202.18C267.93,202.18 265.891,201.672 264.235,200.656L264.235,197.305Z" style="fill:rgb(58,58,58);fill-rule:nonzero;"/>
        </g>
        <g transform="matrix(0.68927,0,0,0.68927,11.1375,43.7846)">
            <path d="M294.914,202.18C293.133,202.18 291.536,201.883 290.122,201.289C288.707,200.695 287.5,199.855 286.5,198.77C285.5,197.684 284.735,196.383 284.204,194.867C283.672,193.352 283.407,191.672 283.407,189.828C283.407,187.828 283.688,186.039 284.25,184.461C284.813,182.883 285.614,181.543 286.653,180.441C287.692,179.34 288.946,178.5 290.414,177.922C291.883,177.344 293.524,177.055 295.336,177.055C297.071,177.055 298.633,177.34 300.024,177.91C301.414,178.48 302.594,179.305 303.563,180.383C304.532,181.461 305.274,182.773 305.789,184.32C306.305,185.867 306.563,187.625 306.563,189.594C306.563,191.469 306.293,193.176 305.754,194.715C305.215,196.254 304.446,197.578 303.446,198.687C302.446,199.797 301.227,200.656 299.789,201.266C298.352,201.875 296.727,202.18 294.914,202.18ZM295.149,179.656C293.836,179.656 292.649,179.883 291.586,180.336C290.524,180.789 289.614,181.449 288.856,182.316C288.098,183.184 287.516,184.246 287.11,185.504C286.704,186.762 286.5,188.187 286.5,189.781C286.5,191.281 286.704,192.633 287.11,193.836C287.516,195.039 288.09,196.07 288.832,196.93C289.575,197.789 290.477,198.449 291.539,198.91C292.602,199.371 293.789,199.602 295.102,199.602C296.446,199.602 297.633,199.379 298.664,198.934C299.696,198.488 300.571,197.84 301.289,196.988C302.008,196.137 302.551,195.094 302.918,193.859C303.286,192.625 303.469,191.219 303.469,189.641C303.469,186.406 302.75,183.934 301.313,182.223C299.875,180.512 297.821,179.656 295.149,179.656Z" style="fill:rgb(58,58,58);fill-rule:nonzero;"/>
        </g>
        <g transform="matrix(0.68927,0,0,0.68927,11.1375,43.7846)">
            <path d="M322.922,168.922C322.25,168.484 321.383,168.266 320.321,168.266C317.508,168.266 316.102,170.102 316.102,173.773L316.102,177.617L322.079,177.617L322.079,180.242L316.102,180.242L316.102,201.617L313.102,201.617L313.102,180.242L308.907,180.242L308.907,177.617L313.102,177.617L313.102,173.586C313.102,172.383 313.254,171.293 313.559,170.316C313.864,169.34 314.313,168.504 314.907,167.809C315.5,167.113 316.247,166.578 317.145,166.203C318.043,165.828 319.079,165.641 320.25,165.641C321.375,165.641 322.266,165.789 322.922,166.086L322.922,168.922Z" style="fill:rgb(58,58,58);fill-rule:nonzero;"/>
        </g>
        <g transform="matrix(0.68927,0,0,0.68927,11.1375,43.7846)">
            <path d="M337.055,201.336C336.024,201.852 334.899,202.109 333.68,202.109C329.805,202.109 327.868,199.875 327.868,195.406L327.868,180.242L323.649,180.242L323.649,177.617L327.868,177.617L327.868,171.57L330.868,170.586L330.868,177.617L337.055,177.617L337.055,180.242L330.868,180.242L330.868,194.937C330.868,196.562 331.133,197.734 331.664,198.453C332.196,199.172 333.094,199.531 334.36,199.531C335.297,199.531 336.196,199.25 337.055,198.687L337.055,201.336Z" style="fill:rgb(58,58,58);fill-rule:nonzero;"/>
        </g>
        <g transform="matrix(0.68927,0,0,0.68927,11.1375,43.7846)">
            <path d="M363.059,170.867L363.059,201.617L359.942,201.617L359.942,170.867L350.262,170.867L350.262,168.008L372.762,168.008L372.762,170.867L363.059,170.867Z" style="fill:rgb(58,58,58);fill-rule:nonzero;"/>
        </g>
        <g transform="matrix(0.68927,0,0,0.68927,11.1375,43.7846)">
            <path d="M374.286,190.156C374.301,191.625 374.497,192.945 374.872,194.117C375.247,195.289 375.786,196.281 376.489,197.094C377.192,197.906 378.047,198.527 379.055,198.957C380.063,199.387 381.2,199.602 382.465,199.602C385.168,199.602 387.723,198.656 390.129,196.766L390.129,199.719C387.832,201.359 385.051,202.18 381.786,202.18C380.176,202.18 378.715,201.898 377.403,201.336C376.09,200.773 374.973,199.957 374.051,198.887C373.129,197.816 372.418,196.5 371.918,194.937C371.418,193.375 371.168,191.594 371.168,189.594C371.168,187.797 371.442,186.133 371.989,184.602C372.536,183.07 373.293,181.746 374.262,180.629C375.231,179.512 376.379,178.637 377.707,178.004C379.036,177.371 380.489,177.055 382.067,177.055C383.614,177.055 384.981,177.324 386.168,177.863C387.356,178.402 388.352,179.172 389.157,180.172C389.961,181.172 390.575,182.391 390.997,183.828C391.418,185.266 391.629,186.875 391.629,188.656L391.629,190.156L374.286,190.156ZM388.536,187.531C388.489,185.031 387.895,183.094 386.754,181.719C385.614,180.344 384.028,179.656 381.997,179.656C380.981,179.656 380.039,179.836 379.172,180.195C378.305,180.555 377.543,181.074 376.887,181.754C376.231,182.434 375.688,183.262 375.258,184.238C374.829,185.215 374.528,186.312 374.356,187.531L388.536,187.531Z" style="fill:rgb(58,58,58);fill-rule:nonzero;"/>
        </g>
        <g transform="matrix(0.68927,0,0,0.68927,11.1375,43.7846)">
            <path d="M411.34,201.617L411.34,197.352L411.247,197.352C410.465,198.883 409.399,200.07 408.047,200.914C406.696,201.758 405.168,202.18 403.465,202.18C402.309,202.18 401.266,202.016 400.336,201.687C399.407,201.359 398.618,200.895 397.969,200.293C397.321,199.691 396.821,198.969 396.469,198.125C396.118,197.281 395.942,196.352 395.942,195.336C395.942,193.164 396.614,191.434 397.957,190.145C399.301,188.855 401.332,188.016 404.051,187.625L411.34,186.57C411.34,181.961 409.551,179.656 405.973,179.656C403.176,179.656 400.582,180.68 398.192,182.727L398.192,179.445C398.692,179.086 399.258,178.762 399.891,178.473C400.524,178.184 401.192,177.934 401.895,177.723C402.598,177.512 403.321,177.348 404.063,177.23C404.805,177.113 405.528,177.055 406.231,177.055C408.903,177.055 410.922,177.805 412.289,179.305C413.657,180.805 414.34,183.039 414.34,186.008L414.34,201.617L411.34,201.617ZM405.153,189.969C404.075,190.125 403.153,190.32 402.387,190.555C401.622,190.789 400.989,191.105 400.489,191.504C399.989,191.902 399.622,192.395 399.387,192.98C399.153,193.566 399.036,194.289 399.036,195.148C399.036,195.789 399.149,196.383 399.375,196.93C399.602,197.477 399.93,197.949 400.36,198.348C400.789,198.746 401.313,199.055 401.93,199.273C402.547,199.492 403.247,199.602 404.028,199.602C405.09,199.602 406.067,199.398 406.957,198.992C407.848,198.586 408.618,198.023 409.266,197.305C409.914,196.586 410.422,195.727 410.789,194.727C411.157,193.727 411.34,192.641 411.34,191.469L411.34,189.102L405.153,189.969Z" style="fill:rgb(58,58,58);fill-rule:nonzero;"/>
        </g>
        <g transform="matrix(0.68927,0,0,0.68927,11.1375,43.7846)">
            <path d="M451.723,201.617L451.723,187.508C451.723,186.07 451.614,184.855 451.395,183.863C451.176,182.871 450.836,182.062 450.375,181.437C449.914,180.812 449.329,180.359 448.618,180.078C447.907,179.797 447.059,179.656 446.075,179.656C445.2,179.656 444.372,179.863 443.59,180.277C442.809,180.691 442.125,181.262 441.539,181.988C440.954,182.715 440.493,183.57 440.157,184.555C439.821,185.539 439.653,186.602 439.653,187.742L439.653,201.617L436.653,201.617L436.653,187.203C436.653,182.172 434.723,179.656 430.864,179.656C429.973,179.656 429.145,179.855 428.379,180.254C427.614,180.652 426.946,181.211 426.375,181.93C425.805,182.648 425.36,183.512 425.039,184.52C424.719,185.527 424.559,186.641 424.559,187.859L424.559,201.617L421.559,201.617L421.559,177.617L424.559,177.617L424.559,181.508L424.653,181.508C426.34,178.539 428.801,177.055 432.036,177.055C432.879,177.055 433.676,177.184 434.426,177.441C435.176,177.699 435.848,178.059 436.442,178.52C437.036,178.98 437.547,179.531 437.977,180.172C438.407,180.812 438.731,181.516 438.95,182.281C439.793,180.578 440.891,179.281 442.243,178.391C443.594,177.5 445.122,177.055 446.825,177.055C452.09,177.055 454.723,180.305 454.723,186.805L454.723,201.617L451.723,201.617Z" style="fill:rgb(58,58,58);fill-rule:nonzero;"/>
        </g>
        <g transform="matrix(0.68927,0,0,0.68927,11.1375,43.7846)">
            <path d="M460.582,197.305C461.036,197.664 461.528,197.984 462.059,198.266C462.59,198.547 463.137,198.789 463.7,198.992C464.262,199.195 464.829,199.348 465.399,199.449C465.969,199.551 466.512,199.602 467.028,199.602C470.59,199.602 472.372,198.266 472.372,195.594C472.372,194.984 472.247,194.457 471.997,194.012C471.747,193.566 471.387,193.16 470.918,192.793C470.45,192.426 469.887,192.086 469.231,191.773C468.575,191.461 467.832,191.133 467.004,190.789C465.895,190.336 464.942,189.875 464.145,189.406C463.348,188.937 462.692,188.426 462.176,187.871C461.661,187.316 461.278,186.707 461.028,186.043C460.778,185.379 460.653,184.625 460.653,183.781C460.653,182.719 460.883,181.773 461.344,180.945C461.805,180.117 462.426,179.414 463.207,178.836C463.989,178.258 464.891,177.816 465.914,177.512C466.938,177.207 468.012,177.055 469.137,177.055C471.215,177.055 473.028,177.445 474.575,178.227L474.575,181.391C472.778,180.234 470.84,179.656 468.762,179.656C468.012,179.656 467.329,179.75 466.711,179.937C466.094,180.125 465.567,180.391 465.129,180.734C464.692,181.078 464.352,181.488 464.11,181.965C463.868,182.441 463.747,182.969 463.747,183.547C463.747,184.141 463.84,184.66 464.028,185.105C464.215,185.551 464.508,185.953 464.907,186.312C465.305,186.672 465.821,187.016 466.454,187.344C467.086,187.672 467.856,188.023 468.762,188.398C469.918,188.867 470.918,189.332 471.762,189.793C472.606,190.254 473.301,190.754 473.848,191.293C474.395,191.832 474.801,192.434 475.067,193.098C475.332,193.762 475.465,194.531 475.465,195.406C475.465,196.484 475.243,197.445 474.797,198.289C474.352,199.133 473.735,199.844 472.946,200.422C472.157,201 471.231,201.437 470.168,201.734C469.106,202.031 467.95,202.18 466.7,202.18C464.278,202.18 462.239,201.672 460.582,200.656L460.582,197.305Z" style="fill:rgb(58,58,58);fill-rule:nonzero;"/>
        </g>
    </g>
</svg>
