<?xml version="1.0" encoding="UTF-8" standalone="no"?>
<!DOCTYPE svg PUBLIC "-//W3C//DTD SVG 1.1//EN" "http://www.w3.org/Graphics/SVG/1.1/DTD/svg11.dtd">
<svg width="185px" height="60px" version="1.1" xmlns="http://www.w3.org/2000/svg" xmlns:xlink="http://www.w3.org/1999/xlink" xml:space="preserve" xmlns:serif="http://www.serif.com/" style="fill-rule:evenodd;clip-rule:evenodd;stroke-linejoin:round;stroke-miterlimit:1.41421;">
    <g transform="matrix(2.32727,0,0,2.32727,-119.591,-402.723)">
        <path d="M64.599,177.665C64.984,177.657 65.362,177.685 65.731,177.742C65.37,177.98 64.966,178.292 64.598,178.61C61.595,178.682 59.184,181.139 59.184,184.157C59.184,184.421 59.202,184.68 59.238,184.933C58.801,184.442 58.457,183.966 58.255,183.524C58.569,180.285 61.268,177.727 64.599,177.665ZM68.598,188.143L68.6,188.136L68.601,188.134C68.894,187.33 69.13,186.383 69.312,185.347C69.399,185.611 69.477,185.924 69.54,186.26L69.54,185.187L69.54,181.868L67.87,181.868L67.87,188.733C67.564,188.943 67.237,189.122 66.893,189.268L66.893,183.557L65.223,183.557L65.223,189.683C65.061,189.697 64.898,189.704 64.734,189.704C64.569,189.704 64.406,189.696 64.245,189.683L64.245,181.513L62.575,181.513L62.575,189.268C62.231,189.122 61.903,188.943 61.599,188.734L61.599,183.996L59.928,183.996L59.928,185.652C60.384,186.097 60.894,186.547 61.424,186.99C61.006,186.905 60.471,186.737 59.928,186.527L59.928,186.927C59.834,186.765 59.748,186.598 59.671,186.425L59.666,186.423C59.236,186.247 58.813,186.049 58.446,185.848C58.722,186.866 59.237,187.787 59.928,188.542L59.95,188.567L59.974,188.591L59.979,188.597L60.017,188.637L60.019,188.64L60.042,188.663L60.065,188.688L60.112,188.735L60.136,188.758L60.206,188.828L60.231,188.852L60.255,188.874L60.259,188.878L60.303,188.919L60.327,188.943L60.353,188.965L60.377,188.986L60.377,188.987L60.401,189.009L60.427,189.031L60.451,189.053L60.477,189.075L60.502,189.097L60.527,189.118L60.553,189.14L60.56,189.146L60.578,189.161L60.604,189.183L60.655,189.224L60.681,189.244L60.687,189.249L60.772,189.316L60.787,189.326L60.814,189.347L60.841,189.367L60.867,189.387L60.891,189.404L60.894,189.406L60.921,189.426L60.948,189.445L60.976,189.465L61.021,189.496L61.029,189.503L61.058,189.522L61.085,189.54L61.112,189.56L61.141,189.577L61.168,189.596L61.196,189.614L61.251,189.65L61.252,189.651L61.281,189.668L61.31,189.686L61.331,189.7L61.338,189.703L61.366,189.721L61.431,189.759L61.452,189.772L61.481,189.788L61.511,189.805L61.54,189.821L61.593,189.852L61.599,189.855C61.909,190.027 62.235,190.172 62.575,190.29L62.6,190.298L62.625,190.307L62.675,190.323L62.7,190.332L62.75,190.348L62.775,190.357L62.826,190.372L62.851,190.379L62.901,190.395L62.978,190.416L63.004,190.423L63.08,190.443L63.132,190.457L63.157,190.463L63.209,190.476L63.261,190.488L63.287,190.493L63.339,190.505L63.417,190.522L63.443,190.527L63.45,190.528L63.47,190.532L63.573,190.552L63.575,190.552L63.585,190.554L63.602,190.557L63.707,190.574L63.734,190.578L63.841,190.593L63.858,190.596L63.867,190.597L63.991,190.612L63.996,190.612L64.002,190.613L64.119,190.625L64.137,190.626L64.164,190.629L64.245,190.635C64.44,190.65 64.639,190.655 64.839,190.652C64.968,190.649 65.096,190.643 65.223,190.633L65.25,190.631L65.26,190.63L65.277,190.628L65.305,190.626L65.307,190.626L65.331,190.623L65.352,190.622L65.358,190.621L65.386,190.618L65.398,190.617L65.413,190.615L65.439,190.612L65.444,190.612L65.521,190.603L65.537,190.601L65.548,190.6L65.574,190.596L65.582,190.595L65.602,190.593L65.628,190.589L65.654,190.585L65.673,190.582L65.682,190.581L65.708,190.577L65.719,190.575L65.735,190.573L65.762,190.568L65.765,190.568L65.788,190.565L65.81,190.561L65.814,190.56L65.841,190.556L65.867,190.551L65.894,190.546L65.899,190.545L65.92,190.541L65.944,190.536L65.946,190.536L65.973,190.531L65.989,190.527L65.999,190.526L66.025,190.521L66.034,190.519L66.052,190.515L66.078,190.51L66.079,190.51L66.104,190.504L66.123,190.5L66.13,190.498L66.156,190.492L66.167,190.49L66.183,190.486L66.208,190.481L66.212,190.48L66.234,190.475L66.256,190.469L66.26,190.468L66.285,190.462L66.3,190.458L66.312,190.455L66.337,190.448L66.344,190.447L66.362,190.443L66.387,190.436L66.389,190.436L66.414,190.429L66.431,190.424L66.439,190.422L66.466,190.414L66.475,190.412L66.49,190.407L66.517,190.401L66.518,190.4L66.542,190.393L66.562,190.387L66.566,190.385L66.593,190.378L66.605,190.374L66.617,190.37L66.643,190.362L66.647,190.36L66.668,190.355L66.69,190.348L66.718,190.339L66.732,190.334L66.743,190.33L66.775,190.319L66.793,190.314L66.817,190.306L66.818,190.306L66.843,190.297L66.86,190.29L66.868,190.288L66.893,190.279C67.148,190.189 67.397,190.082 67.638,189.961C67.718,189.862 67.795,189.757 67.87,189.644L67.873,189.639L67.9,189.598L67.905,189.589L67.931,189.551L67.938,189.538L67.96,189.503L67.97,189.486L67.986,189.461L67.989,189.455L68.001,189.435L68.018,189.407L68.019,189.405L68.033,189.381L68.048,189.356L68.049,189.354L68.064,189.326L68.076,189.305L68.079,189.299L68.095,189.271L68.105,189.253L68.11,189.243L68.125,189.215L68.133,189.2L68.141,189.187L68.155,189.158L68.161,189.148L68.186,189.101L68.189,189.093L68.2,189.071L68.215,189.041L68.217,189.039L68.23,189.012L68.243,188.984L68.298,188.871L68.303,188.86L68.324,188.814L68.331,188.798L68.346,188.767L68.351,188.755L68.359,188.735L68.376,188.696L68.388,188.672L68.401,188.64L68.402,188.637L68.415,188.607L68.453,188.516L68.456,188.509L68.47,188.476L68.478,188.454L68.482,188.443L68.522,188.341L68.527,188.328L68.536,188.307L68.549,188.273L68.552,188.265L68.563,188.238L68.575,188.203L68.576,188.201L68.588,188.169L68.598,188.143ZM65.908,178.733C66.608,178.544 67.254,178.425 67.782,178.431C68.348,178.735 68.864,179.119 69.314,179.569L69.318,179.573L69.321,179.577L69.336,179.592L69.34,179.595L69.347,179.603L69.361,179.617L69.368,179.625L69.372,179.628L69.375,179.632L69.379,179.636L69.383,179.639L69.384,179.641L69.387,179.643L69.39,179.647L69.4,179.657L69.403,179.661L69.407,179.665L69.408,179.665L69.422,179.68L69.426,179.684L69.429,179.688L69.433,179.691L69.436,179.694L69.439,179.698L69.443,179.702L69.446,179.706L69.457,179.717L69.457,179.718L69.468,179.729L69.471,179.733L69.475,179.736L69.478,179.739L69.484,179.747L69.488,179.751L69.491,179.755L69.506,179.77L69.509,179.774L69.513,179.777L69.516,179.781L69.52,179.785L69.523,179.789L69.529,179.795L69.53,179.797L69.537,179.804L69.54,179.808C70.552,180.93 71.18,182.405 71.212,184.038C71.241,185.637 70.69,187.11 69.754,188.26C69.74,187.786 69.696,187.272 69.626,186.78C70.047,186 70.284,185.107 70.284,184.157C70.284,181.495 68.409,179.271 65.908,178.733Z" style="fill:rgb(58,58,58);"/>
    </g>
    <g transform="matrix(2.32727,0,0,2.32727,-119.591,-402.723)">
        <path d="M60.768,186.429C56.945,185.164 51.877,179.133 52.572,176.626C60.899,171.065 69.009,173.077 77.11,175.362C65.122,174.384 52.576,177.757 60.768,186.429Z" style="fill:rgb(58,58,58);"/>
    </g>
    <g transform="matrix(2.32727,0,0,2.32727,-119.591,-402.723)">
        <path d="M69.142,186.119C69.957,190.062 67.269,197.467 64.75,198.117C55.771,193.688 53.459,185.658 51.387,177.499C56.533,188.371 65.727,197.549 69.142,186.119Z" style="fill:rgb(58,58,58);"/>
    </g>
    <g transform="matrix(2.32727,0,0,2.32727,-119.591,-402.723)">
        <path d="M64.564,179.153C67.571,176.476 75.329,175.102 77.151,176.958C77.805,186.949 72.007,192.966 65.977,198.841C72.818,188.947 76.17,176.396 64.564,179.153Z" style="fill:rgb(58,58,58);"/>
    </g>
    <g transform="matrix(2.32727,0,0,2.32727,-119.591,-402.723)">
        <path d="M81.595,184.403C82.11,184.403 82.509,184.476 82.783,184.623C82.993,184.739 83.161,184.918 83.266,185.128C83.371,185.349 83.455,185.664 83.487,186.074C83.54,186.578 83.592,186.904 83.645,187.072L85.316,187.072C85.242,186.873 85.19,186.515 85.148,186.011C85.127,185.706 85.095,185.475 85.064,185.328C85.022,185.17 84.958,185.002 84.874,184.844C84.769,184.634 84.633,184.466 84.496,184.361C84.359,184.245 84.149,184.15 83.876,184.056C84.223,183.94 84.507,183.772 84.706,183.551C85.053,183.194 85.221,182.679 85.221,182.017C85.221,181.68 85.148,181.376 85.001,181.102C84.853,180.829 84.654,180.608 84.391,180.44C84.002,180.188 83.308,180.062 82.331,180.062L78.904,180.062L78.904,187.072L80.397,187.072L80.397,184.403L81.595,184.403ZM80.397,181.302L82.488,181.302C82.762,181.302 82.951,181.323 83.067,181.365C83.403,181.481 83.571,181.764 83.571,182.195C83.571,182.574 83.455,182.847 83.235,183.005C83.088,183.11 82.846,183.162 82.488,183.162L80.397,183.162L80.397,181.302Z" style="fill:rgb(58,58,58);fill-rule:nonzero;"/>
    </g>
    <g transform="matrix(2.32727,0,0,2.32727,-119.591,-402.723)">
        <path d="M86.397,187.072L87.805,187.072L87.805,181.954L86.397,181.954L86.397,187.072ZM87.805,181.428L87.805,180.062L86.397,180.062L86.397,181.428L87.805,181.428Z" style="fill:rgb(58,58,58);fill-rule:nonzero;"/>
    </g>
    <g transform="matrix(2.32727,0,0,2.32727,-119.591,-402.723)">
        <path d="M90.624,181.954C90.067,181.954 89.678,182.038 89.457,182.216C89.089,182.521 88.9,182.931 88.9,183.446C88.9,183.719 88.952,183.972 89.068,184.203C89.173,184.434 89.32,184.623 89.51,184.76C89.667,184.865 89.825,184.939 90.014,184.981C90.193,185.023 90.445,185.044 90.771,185.044L91.633,185.044C91.948,185.044 92.148,185.065 92.242,185.107C92.4,185.191 92.484,185.338 92.484,185.548C92.484,185.801 92.358,185.937 92.116,185.969C92.001,185.979 91.79,185.979 91.475,185.979L88.973,185.979L88.973,187.072L91.885,187.072C92.4,187.072 92.768,187.03 92.989,186.957C93.209,186.873 93.399,186.715 93.556,186.473C93.756,186.169 93.861,185.832 93.861,185.454C93.861,184.97 93.693,184.602 93.346,184.35C93.041,184.119 92.621,184.003 92.095,184.003L91.265,184.003C90.886,184.003 90.666,183.972 90.582,183.919C90.424,183.825 90.35,183.688 90.35,183.499C90.35,183.278 90.434,183.141 90.592,183.089C90.666,183.057 90.855,183.047 91.139,183.047L93.63,183.047L93.63,181.954L90.624,181.954Z" style="fill:rgb(58,58,58);fill-rule:nonzero;"/>
    </g>
    <g transform="matrix(2.32727,0,0,2.32727,-119.591,-402.723)">
        <path d="M94.963,180.062L94.963,187.072L96.371,187.072L96.371,185.065L97.328,185.065C97.643,185.065 97.843,185.117 97.948,185.223C98.053,185.338 98.106,185.548 98.106,185.874L98.106,187.072L99.514,187.072L99.514,185.937C99.514,185.212 99.419,184.708 99.23,184.413C99.041,184.129 98.705,183.982 98.211,183.982L97.832,183.982L99.829,181.954L98.253,181.954L96.371,183.982L96.371,180.062L94.963,180.062Z" style="fill:rgb(58,58,58);fill-rule:nonzero;"/>
    </g>
    <g transform="matrix(2.32727,0,0,2.32727,-119.591,-402.723)">
        <path d="M104.913,187.072C105.491,187.072 105.932,187.02 106.227,186.925C106.532,186.82 106.773,186.631 106.952,186.368C107.173,186.063 107.278,185.675 107.278,185.212C107.278,184.424 106.941,183.877 106.258,183.562C106.553,183.446 106.794,183.225 106.983,182.91C107.183,182.595 107.278,182.258 107.278,181.901C107.278,181.617 107.215,181.344 107.099,181.092C106.931,180.713 106.679,180.44 106.353,180.272C106.069,180.135 105.617,180.062 104.997,180.062L101.034,180.062L101.034,187.072L104.913,187.072ZM102.527,181.302L104.587,181.302C104.934,181.302 105.176,181.355 105.323,181.449C105.522,181.575 105.628,181.785 105.628,182.08C105.628,182.374 105.522,182.605 105.302,182.773C105.207,182.837 105.123,182.889 105.018,182.91C104.923,182.931 104.766,182.942 104.555,182.942L102.527,182.942L102.527,181.302ZM102.527,184.182L104.587,184.182C104.934,184.182 105.176,184.235 105.323,184.329C105.522,184.466 105.628,184.676 105.628,184.96C105.628,185.254 105.522,185.496 105.302,185.664C105.218,185.727 105.123,185.78 105.028,185.801C104.923,185.822 104.766,185.832 104.555,185.832L102.527,185.832L102.527,184.182Z" style="fill:rgb(58,58,58);fill-rule:nonzero;"/>
    </g>
    <g transform="matrix(2.32727,0,0,2.32727,-119.591,-402.723)">
        <path d="M110.165,183.961C109.608,183.961 109.209,184.003 108.978,184.087C108.704,184.182 108.484,184.371 108.326,184.634C108.158,184.907 108.074,185.212 108.074,185.559C108.074,186.127 108.284,186.547 108.694,186.831C108.851,186.925 109.03,186.999 109.23,187.03C109.44,187.062 109.808,187.072 110.334,187.072L113.298,187.072L113.298,184.182C113.34,183.078 112.961,182.374 112.183,182.08C112.026,182.027 111.858,181.996 111.7,181.975C111.532,181.964 111.237,181.954 110.817,181.954L108.442,181.954L108.442,183.047L110.817,183.047C111.237,183.047 111.521,183.11 111.668,183.236C111.816,183.362 111.889,183.604 111.889,183.961L110.165,183.961ZM111.889,185.979L110.27,185.979C109.987,185.979 109.797,185.948 109.682,185.874C109.566,185.811 109.514,185.696 109.514,185.527C109.514,185.38 109.556,185.265 109.65,185.181C109.745,185.096 109.871,185.054 110.029,185.054L111.889,185.054L111.889,185.979Z" style="fill:rgb(58,58,58);fill-rule:nonzero;"/>
    </g>
    <g transform="matrix(2.32727,0,0,2.32727,-119.591,-402.723)">
        <path d="M116.043,181.954C115.486,181.954 115.097,182.038 114.877,182.216C114.509,182.521 114.32,182.931 114.32,183.446C114.32,183.719 114.372,183.972 114.488,184.203C114.593,184.434 114.74,184.623 114.929,184.76C115.087,184.865 115.244,184.939 115.434,184.981C115.612,185.023 115.865,185.044 116.19,185.044L117.052,185.044C117.368,185.044 117.567,185.065 117.662,185.107C117.82,185.191 117.904,185.338 117.904,185.548C117.904,185.801 117.778,185.937 117.536,185.969C117.42,185.979 117.21,185.979 116.895,185.979L114.393,185.979L114.393,187.072L117.305,187.072C117.82,187.072 118.188,187.03 118.408,186.957C118.629,186.873 118.818,186.715 118.976,186.473C119.176,186.169 119.281,185.832 119.281,185.454C119.281,184.97 119.113,184.602 118.766,184.35C118.461,184.119 118.04,184.003 117.515,184.003L116.684,184.003C116.306,184.003 116.085,183.972 116.001,183.919C115.844,183.825 115.77,183.688 115.77,183.499C115.77,183.278 115.854,183.141 116.012,183.089C116.085,183.057 116.275,183.047 116.558,183.047L119.049,183.047L119.049,181.954L116.043,181.954Z" style="fill:rgb(58,58,58);fill-rule:nonzero;"/>
    </g>
    <g transform="matrix(2.32727,0,0,2.32727,-119.591,-402.723)">
        <path d="M121.591,183.961C121.623,183.614 121.717,183.373 121.875,183.246C122.033,183.11 122.295,183.047 122.684,183.047L124.555,183.047L124.555,181.954L122.579,181.954C122.064,181.954 121.654,182.017 121.339,182.153C121.024,182.29 120.75,182.511 120.53,182.826C120.204,183.289 120.036,183.825 120.036,184.445C120.036,185.401 120.34,186.116 120.96,186.6C121.192,186.768 121.433,186.894 121.686,186.967C121.949,187.041 122.274,187.072 122.684,187.072L124.555,187.072L124.555,185.979L122.831,185.979C122.411,185.979 122.106,185.906 121.917,185.769C121.728,185.632 121.612,185.391 121.591,185.054L124.555,185.054L124.555,183.961L121.591,183.961Z" style="fill:rgb(58,58,58);fill-rule:nonzero;"/>
    </g>
    <g transform="matrix(2.32727,0,0,2.32727,-119.591,-402.723)">
        <path d="M127.812,181.954C127.16,181.954 126.635,182.111 126.256,182.427C125.668,182.921 125.373,183.604 125.373,184.476C125.373,185.012 125.468,185.464 125.668,185.843C125.962,186.4 126.414,186.768 127.013,186.957C127.255,187.03 127.633,187.072 128.117,187.072L130.545,187.072L130.545,180.062L129.136,180.062L129.136,181.954L127.812,181.954ZM128.117,185.979C127.801,185.979 127.528,185.895 127.297,185.727C126.971,185.475 126.803,185.054 126.803,184.476C126.803,184.077 126.898,183.751 127.097,183.499C127.328,183.194 127.675,183.047 128.117,183.047L129.136,183.047L129.136,185.979L128.117,185.979Z" style="fill:rgb(58,58,58);fill-rule:nonzero;"/>
    </g>
    <g transform="matrix(2.32727,0,0,2.32727,-119.591,-402.723)">
        <path d="M81.448,193.03C81.811,193.03 82.088,193.016 82.266,192.988C82.643,192.924 82.921,192.732 83.106,192.404C83.241,192.177 83.305,191.92 83.305,191.629C83.305,191.372 83.255,191.123 83.148,190.896C83.027,190.611 82.793,190.412 82.458,190.298C82.266,190.234 81.974,190.198 81.583,190.198L80.822,190.198C80.544,190.198 80.345,190.17 80.224,190.12C80.046,190.035 79.953,189.885 79.953,189.658C79.953,189.38 80.06,189.216 80.274,189.167C80.38,189.138 80.587,189.124 80.907,189.124L83.035,189.124L83.035,188.284L80.679,188.284C80.395,188.284 80.188,188.291 80.046,188.305C79.626,188.348 79.32,188.505 79.128,188.768C78.936,189.046 78.836,189.352 78.836,189.686C78.836,189.899 78.879,190.099 78.964,190.284C79.043,190.469 79.163,190.625 79.313,190.746C79.548,190.938 79.932,191.038 80.473,191.038L81.355,191.038C81.597,191.038 81.775,191.066 81.889,191.131C82.081,191.237 82.181,191.408 82.181,191.636C82.181,191.835 82.095,191.984 81.932,192.084C81.811,192.155 81.583,192.191 81.234,192.191L79.064,192.191L79.064,193.03L81.448,193.03Z" style="fill:rgb(58,58,58);fill-rule:nonzero;"/>
    </g>
    <g transform="matrix(2.32727,0,0,2.32727,-119.591,-402.723)">
        <path d="M88.367,188.284C88.039,188.284 87.776,188.313 87.577,188.377C87.378,188.441 87.193,188.547 87.022,188.704C86.517,189.159 86.26,189.807 86.26,190.632C86.26,191.38 86.438,191.97 86.801,192.404C87.05,192.71 87.392,192.895 87.819,192.966C88.089,193.009 88.402,193.031 88.758,193.031L90.075,193.031L90.075,192.191L88.801,192.191C88.317,192.191 87.968,192.113 87.762,191.949C87.563,191.785 87.442,191.501 87.406,191.088L90.075,191.088L90.075,190.248L87.406,190.248C87.427,190.02 87.449,189.857 87.47,189.757C87.499,189.665 87.548,189.565 87.612,189.473C87.719,189.337 87.847,189.245 88.004,189.195C88.16,189.145 88.409,189.124 88.758,189.124L90.075,189.124L90.075,188.284L88.367,188.284Z" style="fill:rgb(58,58,58);fill-rule:nonzero;"/>
    </g>
    <g transform="matrix(2.32727,0,0,2.32727,-119.591,-402.723)">
        <path d="M95.52,192.191C95.122,192.191 94.823,192.113 94.638,191.963C94.368,191.743 94.232,191.28 94.232,190.576C94.232,190.049 94.318,189.686 94.489,189.487C94.702,189.245 95.029,189.124 95.485,189.124L96.972,189.124L96.972,188.284L95.364,188.284C94.887,188.284 94.503,188.348 94.204,188.483C93.905,188.611 93.663,188.825 93.485,189.11C93.236,189.515 93.115,190.035 93.115,190.668C93.115,191.202 93.193,191.643 93.357,192.006C93.606,192.54 94.019,192.867 94.595,192.981C94.766,193.016 95.001,193.031 95.321,193.031L96.972,193.031L96.972,192.191L95.52,192.191Z" style="fill:rgb(58,58,58);fill-rule:nonzero;"/>
    </g>
    <g transform="matrix(2.32727,0,0,2.32727,-119.591,-402.723)">
        <path d="M100.124,188.284L100.124,191.152C100.124,191.529 100.16,191.814 100.224,192.02C100.295,192.226 100.416,192.411 100.587,192.582C100.928,192.902 101.462,193.066 102.195,193.066C102.885,193.066 103.419,192.902 103.789,192.575C103.952,192.426 104.073,192.234 104.152,191.992C104.23,191.757 104.266,191.451 104.266,191.081L104.266,188.284L103.255,188.284L103.255,191.131C103.255,191.472 103.219,191.707 103.155,191.842C103.091,191.977 102.97,192.077 102.807,192.155C102.636,192.234 102.437,192.269 102.209,192.269C101.86,192.269 101.583,192.17 101.384,191.977C101.291,191.892 101.227,191.785 101.191,191.657C101.156,191.529 101.134,191.358 101.134,191.131L101.134,188.284L100.124,188.284Z" style="fill:rgb(58,58,58);fill-rule:nonzero;"/>
    </g>
    <g transform="matrix(2.32727,0,0,2.32727,-119.591,-402.723)">
        <path d="M109.49,191.223C109.838,191.223 110.109,191.273 110.294,191.373C110.436,191.451 110.55,191.572 110.621,191.714C110.692,191.864 110.749,192.077 110.771,192.355C110.806,192.696 110.842,192.917 110.877,193.031L112.009,193.031C111.959,192.895 111.923,192.653 111.895,192.312C111.881,192.105 111.859,191.949 111.838,191.849C111.809,191.743 111.767,191.629 111.71,191.522C111.639,191.38 111.546,191.266 111.454,191.195C111.361,191.116 111.219,191.052 111.034,190.988C111.269,190.91 111.461,190.796 111.596,190.647C111.831,190.405 111.945,190.056 111.945,189.608C111.945,189.38 111.895,189.174 111.795,188.989C111.696,188.804 111.56,188.654 111.383,188.54C111.119,188.37 110.65,188.284 109.988,188.284L107.668,188.284L107.668,193.031L108.678,193.031L108.678,191.223L109.49,191.223ZM108.678,189.124L110.095,189.124C110.28,189.124 110.408,189.138 110.486,189.167C110.714,189.245 110.827,189.437 110.827,189.729C110.827,189.985 110.749,190.17 110.6,190.277C110.5,190.348 110.336,190.383 110.095,190.383L108.678,190.383L108.678,189.124Z" style="fill:rgb(58,58,58);fill-rule:nonzero;"/>
    </g>
    <g transform="matrix(2.32727,0,0,2.32727,-119.591,-402.723)">
        <rect x="115.245" y="188.284" width="1.011" height="4.747" style="fill:rgb(58,58,58);fill-rule:nonzero;"/>
    </g>
    <g transform="matrix(2.32727,0,0,2.32727,-119.591,-402.723)">
        <path d="M120.773,193.031L121.784,193.031L121.784,189.124L123.356,189.124L123.356,188.284L119.265,188.284L119.265,189.124L120.773,189.124L120.773,193.031Z" style="fill:rgb(58,58,58);fill-rule:nonzero;"/>
    </g>
    <g transform="matrix(2.32727,0,0,2.32727,-119.591,-402.723)">
        <path d="M127.651,193.031L128.661,193.031L128.661,190.988L130.511,188.284L129.316,188.284L128.163,190.141L127.074,188.284L125.893,188.284L127.651,190.953L127.651,193.031Z" style="fill:rgb(58,58,58);fill-rule:nonzero;"/>
    </g>
</svg>
