<?xml version="1.0" encoding="UTF-8" standalone="no"?>
<!DOCTYPE svg PUBLIC "-//W3C//DTD SVG 1.1//EN" "http://www.w3.org/Graphics/SVG/1.1/DTD/svg11.dtd">
<svg width="100%" height="100%" viewBox="0 0 168 60" version="1.1" xmlns="http://www.w3.org/2000/svg" xmlns:xlink="http://www.w3.org/1999/xlink" xml:space="preserve" xmlns:serif="http://www.serif.com/" style="fill-rule:evenodd;clip-rule:evenodd;stroke-linejoin:round;stroke-miterlimit:1.41421;">
    <g id="_-2d2c2aff" serif:id="#2d2c2aff">
        <g transform="matrix(0.147861,0,0,0.147861,0.61936,0.0669213)">
            <path d="M0.74,12.02C0.58,7.36 3.63,2.79 8.06,1.27C13.05,-0.76 19.14,1.7 21.69,6.34C23.09,8.66 23.26,11.43 23.27,14.06C23.21,49.07 23.28,84.07 23.23,119.07C58.72,82.96 93.96,46.6 129.35,10.41C133.32,6.46 137.03,1.1 143.1,0.57C148.46,0.12 153.42,4.25 154.51,9.42C155.41,13 154.01,16.84 151.34,19.3C128.12,42.53 104.77,65.62 81.44,88.73C106.26,119.22 130.96,149.82 155.77,180.32C157.98,183.01 159.67,186.4 159.21,189.98C158.78,196.32 152.3,201.58 145.99,200.31C143.19,199.9 140.89,198.08 139.16,195.93C114.59,165.34 90.06,134.71 65.43,104.16C51.4,118.26 37.32,132.3 23.26,146.36C23.21,160.56 23.3,174.77 23.22,188.97C23.46,195.74 16.68,201.64 10.02,200.32C4.68,199.5 0.46,194.36 0.74,188.95C0.75,129.98 0.75,71 0.74,12.02Z" style="fill:rgb(58,58,58);fill-rule:nonzero;"/>
        </g>
        <g transform="matrix(0.147861,0,0,0.147861,0.61936,0.0669213)">
            <path d="M457.17,4.17C460.52,0.69 465.69,1 470.1,1.38C473.48,1.81 476.28,4.1 478.37,6.67C518.36,57.48 558.05,108.54 598.17,159.24C598.37,110.17 598.16,61.1 598.28,12.03C598.11,6.47 602.42,1.24 608.02,0.65C614.48,-0.4 620.64,5.53 620.25,11.98C620.25,71 620.24,130.01 620.26,189.03C620.57,193.68 617.51,198.46 612.88,199.54C609.5,200.01 605.74,200.11 602.77,198.16C599.05,195.96 596.62,192.28 593.99,188.98C567.66,155.32 541.35,121.64 515,87.99C501.81,71.29 488.99,54.28 475.52,37.82C475.49,86.87 475.49,135.93 475.52,184.98C475.61,188.99 475.76,193.58 472.75,196.67C469.21,201 462.22,201.75 457.88,198.22C455.05,196 453.5,192.42 453.51,188.86C453.46,131.24 453.54,73.62 453.48,16C453.26,11.8 453.72,7.06 457.17,4.17Z" style="fill:rgb(58,58,58);fill-rule:nonzero;"/>
        </g>
        <g transform="matrix(0.147861,0,0,0.147861,0.61936,0.0669213)">
            <path d="M706,11.99C705.83,7.17 709.51,2.74 714.09,1.52C716.69,1.05 719.38,1.15 722.03,1.33C725.98,1.67 729.08,4.56 731.4,7.56C757.18,40.47 782.99,73.36 808.78,106.26C822.81,123.98 836.5,141.97 850.74,159.52C850.77,109.99 850.71,60.46 850.77,10.93C850.71,4.04 858.45,-1.22 864.88,1.08C869.57,2.37 872.74,7.19 872.51,11.98C872.5,69.67 872.49,127.35 872.51,185.04C872.56,189.06 872.91,193.71 869.81,196.81C866.9,200.09 862.13,200.2 858.14,199.49C853.71,198.25 850.61,194.57 847.91,191.07C808.06,140.01 768.04,89.07 728.27,37.95C727.36,40.17 727.82,42.61 727.75,44.94C727.77,92.95 727.73,140.96 727.76,188.96C728.08,194.21 724.18,199.28 718.99,200.24C712.76,201.83 705.91,196.49 706.01,190.05C705.98,130.7 706.01,71.34 706,11.99Z" style="fill:rgb(58,58,58);fill-rule:nonzero;"/>
        </g>
        <g transform="matrix(0.147861,0,0,0.147861,0.61936,0.0669213)">
            <path d="M1021,2.01C1028.37,-1.89 1039.29,0.07 1042.8,8.31C1068.82,64.95 1094.72,121.64 1120.69,178.3C1122.52,182.63 1125.46,186.97 1124.68,191.89C1124.02,196.94 1119.14,201.1 1114.03,200.8C1109.37,201.05 1105.28,197.75 1103.44,193.65C1096.28,178.31 1089.52,162.77 1082.34,147.44C1046.48,147.58 1010.62,147.49 974.76,147.48C967.59,163.15 960.75,178.96 953.55,194.61C950.96,200.76 942.4,202.77 937.16,198.84C932.97,195.83 932.19,189.73 934.27,185.25C960.91,126.93 987.62,68.63 1014.26,10.31C1015.74,7.04 1017.78,3.81 1021,2.01M1028.52,26.91C1013.6,60.3 998.52,93.63 983.54,127C1013.56,127 1043.58,127.01 1073.59,126.99C1058.58,93.62 1043.69,60.2 1028.52,26.91Z" style="fill:rgb(58,58,58);fill-rule:nonzero;"/>
        </g>
        <g transform="matrix(0.147861,0,0,0.147861,0.61936,0.0669213)">
            <path d="M237.41,2.58C239.82,1.73 242.44,2.04 244.95,1.98C283.99,2.04 323.04,1.95 362.08,2.03C367.83,1.88 372.66,7.45 372,13.12C371.7,18.21 367.15,22.61 361.99,22.48C321.67,22.53 281.34,22.49 241.01,22.5C235.77,22.73 230.88,18.29 230.73,13.03C230.26,8.55 233.13,4.01 237.41,2.58Z" style="fill:rgb(58,58,58);fill-rule:nonzero;"/>
        </g>
        <g transform="matrix(0.147861,0,0,0.147861,0.61936,0.0669213)">
            <path d="M235.32,90.32C237.7,89.18 240.41,89.55 242.97,89.48C283.29,89.54 323.61,89.45 363.92,89.52C369.96,89.61 374.7,96.19 373.17,101.97C372.29,106.65 367.76,110.06 363.05,109.96C322.04,110.04 281.03,110 240.01,109.98C235.64,110.15 231.26,107.36 229.86,103.17C227.97,98.31 230.54,92.36 235.32,90.32Z" style="fill:rgb(58,58,58);fill-rule:nonzero;"/>
        </g>
        <g transform="matrix(0.147861,0,0,0.147861,0.61936,0.0669213)">
            <path d="M235.28,179.38C236.76,178.73 238.4,178.52 240.01,178.49C281.01,178.52 322.01,178.47 363.01,178.51C369,178.23 374.24,184.02 373.38,189.95C372.94,195.05 368.19,199.31 363.04,199C321.67,198.97 280.29,199.05 238.92,198.96C233.26,199.01 228.7,193.46 229.27,187.94C229.53,184.28 231.91,180.85 235.28,179.38Z" style="fill:rgb(58,58,58);fill-rule:nonzero;"/>
        </g>
    </g>
    <g id="_-64a6d3ff" serif:id="#64a6d3ff">
        <g transform="matrix(0.147861,0,0,0.147861,0.61936,0.0669213)">
            <path d="M955.21,267.14C957.85,266.09 960.98,266.08 963.6,267.27C968.31,270.3 967.62,279.32 961.94,280.93C958.54,282 954.2,280.89 952.6,277.5C951.34,274.02 951.66,269.18 955.21,267.14Z" style="fill:rgb(58,58,58);fill-rule:nonzero;"/>
        </g>
        <g transform="matrix(0.147861,0,0,0.147861,0.61936,0.0669213)">
            <path d="M569.49,268.69C583.7,266.2 599.03,268.83 611.15,276.86C613.08,278.18 615.41,279.54 616.01,282C617.16,285.35 614.55,289.2 611.1,289.64C608.37,290.28 606.14,288.22 604.02,286.88C595.06,280.8 583.85,277.95 573.1,279.49C567.53,280.36 561.89,282.83 558.43,287.44C554.79,292.12 554.45,298.84 556.8,304.17C558.57,307.99 562.27,310.37 565.93,312.15C576.85,317.39 589.29,317.82 600.4,322.53C607.76,325.51 615.18,330.17 618.34,337.8C622.37,347.83 620.7,360.23 613.42,368.38C608.17,374.33 600.6,377.82 592.9,379.24C575.05,382.4 556.17,377.17 542.12,365.82C538.11,363.27 538.95,355.53 543.99,354.66C547.71,353.6 550.28,356.99 552.99,358.87C563.35,366.88 576.99,370.25 589.91,368.31C596.76,367.19 603.71,363.32 606.52,356.69C608.93,350.59 608.08,342.56 602.68,338.3C597.28,334.02 590.46,332.22 583.91,330.52C572.73,327.98 560.86,325.67 551.64,318.4C542.64,311.22 540.78,297.93 544.69,287.57C548.71,277.31 558.9,270.6 569.49,268.69Z" style="fill:rgb(58,58,58);fill-rule:nonzero;"/>
        </g>
        <g transform="matrix(0.147861,0,0,0.147861,0.61936,0.0669213)">
            <path d="M991.01,278.91C990.9,276.01 993.15,273.26 996.02,272.79C999.65,272.07 1003.48,275.26 1003.25,279C1003.31,285.25 1003.22,291.49 1003.26,297.74C1010.17,297.79 1017.08,297.64 1023.98,297.79C1026.81,297.71 1029.64,300.11 1029.56,303.04C1029.89,306.17 1026.96,308.79 1023.96,308.76C1017.06,308.84 1010.16,308.74 1003.26,308.79C1003.27,324.55 1003.24,340.32 1003.27,356.08C1003.36,360.11 1004.66,364.64 1008.34,366.8C1013.05,369.65 1018.84,368.91 1023.96,367.76C1028.85,367.27 1031.38,374.71 1027.06,377.2C1021.06,380.23 1013.97,380.59 1007.44,379.43C1002.37,378.51 997.54,375.79 994.66,371.44C991.41,366.65 990.86,360.64 990.98,355C991.02,339.59 990.99,324.18 991,308.78C987.64,308.52 983.57,309.71 980.85,307.18C978.04,304.79 978.86,299.66 982.31,298.31C985.08,297.33 988.09,297.84 990.99,297.76C991.03,291.47 990.94,285.19 991.01,278.91Z" style="fill:rgb(58,58,58);fill-rule:nonzero;"/>
        </g>
        <g transform="matrix(0.147861,0,0,0.147861,0.61936,0.0669213)">
            <path d="M751.59,296.82C763.03,294.88 775.41,297.06 784.72,304.25C787.49,306.49 791.67,308.84 790.89,313.06C790.44,317.41 784.67,319.6 781.37,316.82C777.27,313.32 772.94,309.86 767.69,308.27C758.15,305.12 746.99,307.73 739.92,314.9C728.99,325.4 727.47,343.77 735.78,356.3C740.45,363.55 748.49,368.55 757.12,369.32C766.62,370.49 775.84,365.9 782.53,359.42C785.52,356.33 791.02,358.99 791.32,363C791.74,367.21 787.6,369.52 784.88,371.92C769.63,384.23 745.53,383.1 731.36,369.61C720.32,359.56 715.67,343.45 718.95,328.97C722.24,313.06 735.47,299.61 751.59,296.82Z" style="fill:rgb(58,58,58);fill-rule:nonzero;"/>
        </g>
        <g transform="matrix(0.147861,0,0,0.147861,0.61936,0.0669213)">
            <path d="M637.75,315.65C643.03,306.23 652.34,298.97 663.02,296.9C673.01,295.06 683.95,296.63 692.26,302.75C703.02,310.46 708.28,324.04 708.25,336.98C708.45,340.26 705.31,343.12 702.08,342.75C682.83,342.72 663.58,342.72 644.33,342.74C645.28,350.97 648.9,359.24 655.71,364.26C666.48,372.45 682.6,371.2 692.89,362.78C695.2,361.06 697.53,358.05 700.81,359.23C704.05,359.95 705.83,364.13 703.92,366.9C689.6,383.72 661.09,385.13 645.01,370.02C630.4,356.45 628.21,332.7 637.75,315.65M657.46,310.39C649.59,315.44 645.44,324.62 644.29,333.65C661.54,333.91 678.81,333.67 696.06,333.77C695.18,324.58 691.37,314.88 683.16,309.9C675.43,305.18 665,305.31 657.46,310.39Z" style="fill:rgb(58,58,58);fill-rule:nonzero;"/>
        </g>
        <g transform="matrix(0.147861,0,0,0.147861,0.61936,0.0669213)">
            <path d="M808.43,297.33C812.07,295.94 816.75,298.97 816.49,302.97C816.55,316.93 816.44,330.89 816.54,344.84C816.6,352.07 818.65,359.88 824.5,364.58C831.89,370.37 842.85,370.52 850.9,366C858.32,361.82 862.6,353.4 862.73,345.03C862.79,331 862.69,316.97 862.77,302.95C862.58,299.17 866.55,296.13 870.16,297.17C872.77,297.67 874.86,300.23 874.75,302.91C874.75,326.62 874.82,350.33 874.72,374.03C874.62,379.65 866.02,381.32 863.54,376.43C862.01,372.89 863,368.85 862.78,365.11C858.39,371.81 851.89,377.46 843.94,379.29C835.31,381.27 825.72,380.5 818.02,375.9C811.31,371.88 806.89,364.75 805.31,357.19C803.84,350.22 804.33,343.07 804.25,336C804.27,325.3 804.21,314.6 804.27,303.9C804.13,301.13 805.6,298.12 808.43,297.33Z" style="fill:rgb(58,58,58);fill-rule:nonzero;"/>
        </g>
        <g transform="matrix(0.147861,0,0,0.147861,0.61936,0.0669213)">
            <path d="M892.24,303.01C891.98,299.14 896.35,296.01 899.97,297.25C902.58,297.87 904.47,300.39 904.44,303.07C904.67,307.76 904.37,312.45 904.57,317.14C908.28,309.76 913.86,303.06 921.39,299.39C925.26,297.52 929.7,296.2 934.02,296.98C938.51,298.31 939.56,305.16 935.78,307.86C934.21,309.2 932.01,309.14 930.11,309.61C922.62,310.91 915.7,315.19 911.28,321.39C906.58,327.92 904.6,336.09 904.5,344.05C904.51,353.38 904.5,362.7 904.52,372.02C904.56,374.47 903.83,377.35 901.48,378.55C897.93,380.72 892.31,378.41 892.26,373.99C892.21,350.33 892.24,326.67 892.24,303.01Z" style="fill:rgb(58,58,58);fill-rule:nonzero;"/>
        </g>
        <g transform="matrix(0.147861,0,0,0.147861,0.61936,0.0669213)">
            <path d="M958.12,297.09C961.69,296.33 965.54,299.25 965.46,302.98C965.61,324.99 965.45,347.01 965.53,369.03C965.44,371.55 965.88,374.3 964.57,376.59C962.64,380.05 957.05,380.28 954.62,377.28C953.26,375.88 953.17,373.85 953.21,372.03C953.26,348.99 953.18,325.96 953.25,302.93C953.18,300.11 955.44,297.68 958.12,297.09Z" style="fill:rgb(58,58,58);fill-rule:nonzero;"/>
        </g>
        <g transform="matrix(0.147861,0,0,0.147861,0.61936,0.0669213)">
            <path d="M1041.6,299.58C1044.13,295.8 1050.67,296.24 1052.37,300.6C1061.98,321.85 1071.29,343.25 1080.79,364.56C1088.82,344.26 1096.81,323.94 1104.75,303.61C1105.67,301.38 1106.52,298.75 1108.84,297.57C1111.71,296.11 1115.36,297.48 1116.91,300.22C1117.68,302.86 1117.15,305.69 1116.12,308.18C1107.62,328.33 1099.21,348.52 1090.74,368.68C1086.51,378.15 1083.52,388.55 1076.46,396.43C1072.49,401.03 1066.58,403.59 1060.57,404L1056.28,404C1052.29,403.63 1048.25,403.01 1044.56,401.41C1041.93,400.37 1040.52,397.12 1041.59,394.5C1042.37,391.98 1045.41,390.44 1047.92,391.28C1052.85,392.65 1058.25,394.03 1063.26,392.2C1068.85,390 1071.72,384.28 1074.15,379.17C1074.85,378.14 1074.58,376.94 1074.05,375.92C1063.3,353.28 1052.69,330.56 1041.93,307.92C1040.65,305.36 1039.63,302.1 1041.6,299.58Z" style="fill:rgb(58,58,58);fill-rule:nonzero;"/>
        </g>
    </g>
</svg>
