<?xml version="1.0" encoding="UTF-8" standalone="no"?>
<!DOCTYPE svg PUBLIC "-//W3C//DTD SVG 1.1//EN" "http://www.w3.org/Graphics/SVG/1.1/DTD/svg11.dtd">
<svg width="100%" height="100%" viewBox="0 0 221 60" version="1.1" xmlns="http://www.w3.org/2000/svg" xmlns:xlink="http://www.w3.org/1999/xlink" xml:space="preserve" xmlns:serif="http://www.serif.com/" style="fill-rule:evenodd;clip-rule:evenodd;stroke-linejoin:round;stroke-miterlimit:1.41421;">
    <g id="_-000154ff" serif:id="#000154ff" transform="matrix(1,0,0,1,-166.857,-227.99)">
        <g transform="matrix(0.329367,0,0,0.329367,111.9,154.898)">
            <path d="M203.12,228.76C212.68,227.26 222.9,227.88 231.62,232.41C240.41,236.35 246.64,243.96 252.9,250.98C283.69,284.57 314.27,318.35 345.04,351.97C347.2,354.35 349.21,358.19 353.01,357.56C356.07,357.19 357.32,353.74 357.13,351.04C357.11,310.03 357.12,269.02 357.12,228.01C370.63,228 384.14,227.98 397.65,228.02C397.6,269.99 397.69,311.97 397.61,353.94C397.41,372.49 384.67,390 367.07,395.87C360.64,398.25 353.69,398.19 346.95,397.86C341.09,397.59 335.54,395.32 330.42,392.61C323.15,388.87 317.84,382.46 312.49,376.47C281.61,342.69 250.86,308.8 219.97,275.04C218.26,273.02 216.64,270.87 214.54,269.22C211.73,267.32 207.17,269.34 207.44,272.96C207.27,314.62 207.56,356.3 207.71,397.97C194.19,398.04 180.67,397.98 167.15,398C167.1,356.99 167.05,315.98 166.99,274.97C165.18,253.34 182.05,232.7 203.12,228.76Z" style="fill:rgb(58,58,58);fill-rule:nonzero;"/>
        </g>
        <g transform="matrix(0.329367,0,0,0.329367,111.9,154.898)">
            <path d="M403.27,228C418.08,227.99 432.89,228.01 447.71,227.99C471.06,269.97 493.64,312.37 516.59,354.56C517.36,356.13 519.21,356.51 520.62,357.3C522.77,356.35 524.74,354.94 525.8,352.78C544.77,317.42 563.63,282 582.56,246.62C585.8,241.88 587.91,236.25 592.63,232.67C596.28,229.51 601.17,228.05 605.95,227.99C655.63,228.02 705.32,227.97 755,228.02C775.5,228.67 795.65,237.35 810.26,251.76C820.36,261.28 827.69,273.52 832.1,286.64C837.17,302.88 837.43,320.61 832.8,336.98C827.59,355.24 815.9,371.47 800.46,382.47C787.79,391.57 772.52,396.9 756.98,397.99C711.76,397.98 666.55,398.05 621.33,397.96C621.36,359.65 621.33,321.35 621.33,283.04C634.85,282.94 648.36,283.02 661.88,283C661.84,306.01 661.96,329.02 661.92,352.03C661.54,355.95 665.4,358.33 668.94,357.98C693.62,358.03 718.3,357.99 742.98,358C748.33,357.92 753.74,358.37 759.03,357.3C772.37,355.18 784.11,346.19 790.55,334.45C795.78,324.6 797.31,312.76 794.3,301.98C790.43,286.01 776.8,273.23 760.86,269.7C759.03,269.32 757.17,268.97 755.51,268.11C710.3,267.85 665.07,268.08 619.86,267.99C615.65,267.81 613.88,272.27 612.2,275.35C594.31,309.03 576.2,342.6 558.17,376.21C555.17,382.22 550.1,386.84 544.6,390.54C534.69,398.22 521.05,399.28 509.16,396.6C502.1,395.15 496.24,390.71 490.79,386.24C484.06,380.57 480.32,372.43 476.22,364.85C451.85,319.27 427.37,273.73 403.27,228Z" style="fill:rgb(58,58,58);fill-rule:nonzero;"/>
        </g>
    </g>
</svg>
