<?xml version="1.0" encoding="UTF-8" standalone="no"?>
<!DOCTYPE svg PUBLIC "-//W3C//DTD SVG 1.1//EN" "http://www.w3.org/Graphics/SVG/1.1/DTD/svg11.dtd">
<svg width="100%" height="100%" viewBox="0 0 340 60" version="1.1" xmlns="http://www.w3.org/2000/svg" xmlns:xlink="http://www.w3.org/1999/xlink" xml:space="preserve" xmlns:serif="http://www.serif.com/" style="fill-rule:evenodd;clip-rule:evenodd;stroke-linejoin:round;stroke-miterlimit:2;">
    <g transform="matrix(0.463402,0,0,0.463402,-39.2721,-43.4428)">
        <path d="M84.76,93.76C127.5,93.74 170.25,93.75 212.99,93.75C213.01,136.5 213,179.25 213,222C170.25,222 127.5,222.01 84.75,221.99C84.75,198.87 84.74,175.75 84.76,152.63C92.5,152.62 100.25,152.62 107.99,152.63C108.02,167.96 107.98,183.29 108.01,198.63C135.21,198.62 162.42,198.63 189.62,198.62C189.63,171.42 189.62,144.21 189.63,117.01C154.67,116.98 119.71,117.02 84.75,116.99C84.75,109.25 84.74,101.5 84.76,93.76Z" style="fill:#3a3a3a;fill-rule:nonzero;"/>
    </g>
    <g transform="matrix(0.179038,0,0,0.179038,19.9542,1.87462)">
        <path d="M277.25,93.75C320,93.74 362.74,93.75 405.49,93.75C405.52,136.5 405.49,179.24 405.51,221.99C362.75,222.01 320,222 277.25,221.99C277.25,198.87 277.24,175.75 277.25,152.63C285,152.61 292.74,152.63 300.49,152.63C300.52,167.95 300.49,183.28 300.5,198.61C327.67,198.67 354.84,198.55 382.01,198.67C382.28,171.46 382.05,144.23 382.12,117.01C347.16,116.98 312.2,117.02 277.25,116.99C277.25,109.25 277.24,101.5 277.25,93.75Z" style="fill:#3a3a3a;fill-rule:nonzero;"/>
    </g>
    <g transform="matrix(0.179038,0,0,0.179038,19.9542,1.87462)">
        <path d="M428.49,221.99C428.51,179.24 428.48,136.5 428.51,93.75C463.5,93.74 498.49,93.75 533.49,93.75C533.52,101.5 533.49,109.24 533.5,116.99C506.25,117.02 479.01,116.98 451.76,117.01C451.75,126.38 451.75,135.75 451.76,145.12C468.09,145.14 484.42,145.11 500.75,145.13L500.75,168.49C484.42,168.52 468.09,168.48 451.75,168.51L451.75,198.61C479,198.64 506.24,198.61 533.49,198.63C533.52,206.41 533.49,214.2 533.5,221.99C498.5,222 463.5,222.01 428.49,221.99Z" style="fill:#3a3a3a;fill-rule:nonzero;"/>
    </g>
    <g transform="matrix(0.179038,0,0,0.179038,19.9542,1.87462)">
        <path d="M556.49,221.99C556.51,179.24 556.47,136.5 556.51,93.75C591.46,93.75 626.42,93.74 661.37,93.76C661.38,101.5 661.37,109.25 661.37,116.99C634.17,117.01 606.96,116.99 579.76,117.01C579.75,126.38 579.74,135.75 579.76,145.12C596.09,145.14 612.42,145.11 628.75,145.13C628.75,152.92 628.77,160.71 628.74,168.5C612.41,168.51 596.08,168.49 579.76,168.51C579.75,186.34 579.75,204.16 579.75,221.99C572,222 564.25,222.01 556.49,221.99Z" style="fill:#3a3a3a;fill-rule:nonzero;"/>
    </g>
    <g transform="matrix(0.179038,0,0,0.179038,19.9542,1.87462)">
        <path d="M684.5,222C684.5,179.25 684.49,136.5 684.51,93.75C719.46,93.75 754.41,93.74 789.37,93.76C789.38,101.5 789.37,109.25 789.37,116.99C762.17,117.01 734.96,116.99 707.76,117.01C707.75,126.38 707.74,135.75 707.76,145.12C724.09,145.14 740.42,145.11 756.75,145.13C756.75,152.92 756.77,160.71 756.74,168.5C740.41,168.51 724.08,168.49 707.75,168.51C707.75,178.55 707.75,188.58 707.76,198.61C734.96,198.65 762.16,198.61 789.37,198.63C789.38,206.42 789.37,214.21 789.37,221.99C754.42,222.01 719.46,222 684.5,222Z" style="fill:#3a3a3a;fill-rule:nonzero;"/>
    </g>
    <g transform="matrix(0.179038,0,0,0.179038,19.9542,1.87462)">
        <path d="M812.49,221.99C812.51,179.24 812.48,136.5 812.51,93.75C847.46,93.75 882.42,93.74 917.37,93.76C917.38,101.5 917.37,109.25 917.37,116.99C890.17,117.01 862.96,116.98 835.76,117.01C835.75,144.21 835.75,171.41 835.76,198.61C862.96,198.64 890.16,198.61 917.37,198.63C917.38,206.42 917.37,214.21 917.37,221.99C882.41,222 847.45,222.01 812.49,221.99Z" style="fill:#3a3a3a;fill-rule:nonzero;"/>
    </g>
    <g transform="matrix(0.179038,0,0,0.179038,19.9542,1.87462)">
        <path d="M940.49,116.99C940.51,109.24 940.48,101.5 940.51,93.75L1068.74,93.75C1068.76,101.5 1068.74,109.25 1068.75,116.99C1051.25,117.02 1033.75,116.98 1016.25,117.01L1016.25,221.99C1008.46,222 1000.67,222 992.88,221.99C992.87,187 992.88,152 992.87,117.01C975.41,116.98 957.95,117.02 940.49,116.99Z" style="fill:#3a3a3a;fill-rule:nonzero;"/>
    </g>
    <g transform="matrix(0.179367,0,0,0.179367,37.6702,1.7214)">
        <path d="M1106.49,116.98C1106.51,109.24 1106.48,101.49 1106.51,93.75L1234.75,93.75C1234.76,136.5 1234.75,179.25 1234.75,221.99C1192,222 1149.25,222.01 1106.49,221.99C1106.51,198.86 1106.48,175.74 1106.51,152.62C1114.29,152.63 1122.08,152.62 1129.87,152.63C1129.88,167.95 1129.87,183.28 1129.88,198.61C1157.08,198.63 1184.29,198.63 1211.5,198.61C1211.49,171.41 1211.5,144.21 1211.5,117C1176.49,116.98 1141.49,117.02 1106.49,116.98Z" style="fill:#3a3a3a;fill-rule:nonzero;"/>
    </g>
    <g transform="matrix(0.179367,0,0,0.179367,37.6702,1.7214)">
        <path d="M1257.75,93.75C1300.5,93.74 1343.25,93.75 1385.99,93.75C1386.01,136.5 1386,179.25 1386,222C1343.25,222 1300.5,222.01 1257.75,221.99C1257.75,179.25 1257.74,136.5 1257.75,93.75M1281.12,117.01C1281.13,144.21 1281.11,171.42 1281.13,198.62L1362.75,198.62C1362.76,171.42 1362.74,144.21 1362.75,117.01C1335.54,116.99 1308.33,117 1281.12,117.01Z" style="fill:#3a3a3a;fill-rule:nonzero;"/>
    </g>
    <g transform="matrix(0.179367,0,0,0.179367,37.6702,1.7214)">
        <path d="M1514.01,93.75C1521.79,93.75 1529.58,93.74 1537.37,93.75C1537.38,136.5 1537.37,179.25 1537.38,221.99C1494.62,222 1451.87,222 1409.12,221.99C1409.13,202.29 1409.11,182.58 1409.13,162.88C1416.87,162.87 1424.62,162.87 1432.37,162.88C1432.38,174.79 1432.36,186.71 1432.38,198.62C1459.58,198.63 1486.79,198.62 1513.99,198.63C1514.02,163.67 1513.99,128.71 1514.01,93.75Z" style="fill:#3a3a3a;fill-rule:nonzero;"/>
    </g>
    <g transform="matrix(0.179367,0,0,0.179367,37.6702,1.7214)">
        <path d="M1559.63,93.75L1687.87,93.75C1687.88,136.5 1687.87,179.25 1687.88,222L1559.62,222C1559.62,179.25 1559.62,136.5 1559.63,93.75M1582.88,117C1582.88,144.21 1582.87,171.41 1582.88,198.62C1610.09,198.62 1637.29,198.64 1664.5,198.61C1664.49,171.41 1664.5,144.21 1664.5,117L1582.88,117Z" style="fill:#3a3a3a;fill-rule:nonzero;"/>
    </g>
    <g transform="matrix(0.463402,0,0,0.463402,-39.2721,-43.4428)">
        <path d="M131,139.88C142.92,139.87 154.83,139.87 166.75,139.88C166.76,151.84 166.75,163.79 166.75,175.75C154.83,175.76 142.92,175.75 131.01,175.75C130.99,163.79 131,151.84 131,139.88Z" style="fill:#3a3a3a;fill-rule:nonzero;"/>
    </g>
</svg>
