<?xml version="1.0" encoding="UTF-8" standalone="no"?>
<!DOCTYPE svg PUBLIC "-//W3C//DTD SVG 1.1//EN" "http://www.w3.org/Graphics/SVG/1.1/DTD/svg11.dtd">
<svg width="196px" height="60px" version="1.1" xmlns="http://www.w3.org/2000/svg" xmlns:xlink="http://www.w3.org/1999/xlink" xml:space="preserve" xmlns:serif="http://www.serif.com/" style="fill-rule:evenodd;clip-rule:evenodd;stroke-linejoin:round;stroke-miterlimit:1.41421;">
    <g transform="matrix(0.305845,0,0,0.305845,0,-0.267003)">
        <path d="M98.063,197C43.904,197 0,153.095 0,98.937C0,44.779 43.904,0.873 98.063,0.873C152.22,0.873 196.124,44.779 196.124,98.937C196.124,153.095 152.22,197 98.063,197ZM98.062,15.965C52.239,15.965 15.091,53.114 15.091,98.936C15.091,144.759 52.239,181.907 98.062,181.907C143.885,181.907 181.032,144.759 181.032,98.936C181.032,53.114 143.885,15.965 98.062,15.965Z" style="fill:rgb(58,58,58);fill-rule:nonzero;"/>
    </g>
    <g transform="matrix(0.305845,0,0,0.305845,0,-0.267003)">
        <path d="M129.91,168.425C126.774,168.423 115.346,148.084 113.81,142.285C110.599,130.144 111.29,125.015 111.482,123.375C112.069,118.368 116.928,115.866 117.223,109.095C117.313,107.004 118.368,96.55 119.212,88.384C117.133,87.978 115.06,87.039 113.219,85.585C118.748,93.001 110.609,101.89 98.782,113.717C86.23,126.269 58.369,137.919 58.369,137.919C58.369,137.919 70.02,110.058 82.571,97.506C91.798,88.28 99.235,81.298 105.582,81.298C107.371,81.298 109.074,81.853 110.705,83.069C109.249,81.227 108.312,79.156 107.903,77.077C99.738,77.921 89.283,78.976 87.193,79.067C80.421,79.361 77.918,84.219 72.915,84.807C72.338,84.875 71.332,85.004 69.743,85.004C66.806,85.004 61.88,84.562 54.004,82.478C47.697,80.81 24.196,67.44 28.353,65.76C30.472,64.902 37.228,64.323 46.125,64.323C54.68,64.323 65.216,64.859 75.508,66.2C88.341,67.872 100.109,69.986 108.129,71.559C108.258,71.129 108.414,70.709 108.601,70.302L100.403,66.373C100.403,66.373 93.855,58.86 94.554,58.341C94.581,58.321 94.615,58.312 94.656,58.312C95.683,58.312 100.922,64.3 101.426,64.982C101.815,65.111 104.035,65.852 106.371,66.63L104.052,64.601C104.052,64.601 100.878,52.846 101.705,52.57C101.715,52.566 101.726,52.564 101.738,52.564C102.608,52.564 105.489,62.786 105.736,63.521C106.303,64.017 108.214,64.761 110.604,66.14L108.091,59.677C108.091,59.677 109.227,49.016 110.079,49.016C110.086,49.016 110.093,49.017 110.1,49.018C110.956,49.19 109.931,57.91 109.714,58.997C110.025,59.473 111.952,62.43 113.885,65.393C115.073,64.945 116.352,64.724 117.665,64.724C119.172,64.724 120.722,65.016 122.226,65.591C120.301,61.49 120.446,57.216 123,54.664C123.808,53.855 124.79,53.29 125.884,52.954C126.016,52.208 126.362,51.501 126.93,50.933C127.668,50.195 128.641,49.827 129.626,49.827C130.657,49.827 131.702,50.23 132.502,51.031C133.269,51.796 133.668,52.785 133.701,53.771C134.934,51.229 136.389,47.8 136.287,46.689C136.05,44.175 133.135,39.725 133.106,39.681C132.917,39.393 132.996,39.005 133.285,38.815C133.39,38.745 133.509,38.712 133.627,38.712C133.83,38.712 134.029,38.811 134.148,38.994C134.276,39.186 137.266,43.749 137.53,46.573C137.68,48.19 135.824,52.261 134.813,54.342C136.233,55.119 137.617,56.144 138.881,57.409C140.145,58.672 141.17,60.056 141.948,61.476C143.948,60.503 147.788,58.75 149.519,58.75C149.588,58.75 149.654,58.753 149.716,58.759C152.54,59.024 157.103,62.012 157.295,62.14C157.582,62.329 157.662,62.717 157.473,63.004C157.353,63.187 157.153,63.286 156.95,63.286C156.833,63.286 156.714,63.253 156.608,63.183C156.564,63.154 152.114,60.239 149.6,60.003C149.562,60 149.521,59.998 149.478,59.998C148.255,59.998 144.971,61.396 142.517,62.587C143.504,62.621 144.493,63.02 145.258,63.788C146.824,65.352 146.867,67.846 145.356,69.358C144.788,69.926 144.081,70.275 143.336,70.405C142.999,71.499 142.434,72.482 141.625,73.289C140.217,74.698 138.287,75.374 136.149,75.374C134.411,75.374 132.536,74.927 130.696,74.063C131.774,76.876 131.856,79.852 130.896,82.404C133.858,84.337 136.818,86.264 137.293,86.576C138.07,86.42 142.742,85.853 145.409,85.853C146.476,85.853 147.222,85.944 147.27,86.188C147.442,87.043 136.612,88.199 136.612,88.199L130.149,85.685C131.528,88.075 132.271,89.987 132.768,90.554C133.515,90.803 143.994,93.757 143.719,94.585C143.687,94.68 143.503,94.722 143.203,94.722C140.893,94.722 131.688,92.237 131.688,92.237L129.658,89.917C130.437,92.254 131.176,94.474 131.307,94.863C132.017,95.388 138.465,101.032 137.947,101.733C137.921,101.769 137.877,101.785 137.816,101.785C136.684,101.785 129.916,95.886 129.916,95.886L125.985,87.687C125.58,87.875 125.159,88.03 124.728,88.161C126.301,96.179 128.418,107.946 130.091,120.778C132.825,141.773 132.21,163.775 130.53,167.935C130.395,168.27 130.184,168.425 129.91,168.425Z" style="fill:rgb(58,58,58);fill-rule:nonzero;"/>
    </g>
    <g transform="matrix(0.305845,0,0,0.305845,0,-0.267003)">
        <path d="M272.049,76.77C272.049,66.446 270.293,60.907 249.336,60.907C228.504,60.907 226.747,66.446 226.747,76.77L226.747,115.04C226.747,125.363 228.504,130.903 249.336,130.903C270.293,130.903 272.049,125.363 272.049,115.04L272.049,76.77ZM249.336,138.835C220.095,138.835 216.708,129.77 216.708,116.174L216.708,75.637C216.708,62.165 220.095,52.976 249.336,52.976C278.701,52.976 282.09,62.165 282.09,75.637L282.09,116.174C282.09,129.77 278.701,138.835 249.336,138.835Z" style="fill:rgb(58,58,58);fill-rule:nonzero;"/>
    </g>
    <g transform="matrix(0.305845,0,0,0.305845,0,-0.267003)">
        <path d="M352.603,53.983L352.603,114.915C352.603,125.238 354.611,130.778 369.67,130.778C384.979,130.778 386.737,125.238 386.737,114.915L386.737,53.983L396.775,53.983L396.775,116.174C396.775,129.77 393.262,138.835 369.67,138.835C356.242,138.835 350.219,133.295 347.583,129.015C344.948,133.295 338.924,138.835 325.496,138.835C301.904,138.835 298.39,129.77 298.39,116.174L298.39,53.983L308.429,53.983L308.429,114.915C308.429,125.238 310.187,130.778 325.496,130.778C340.555,130.778 342.563,125.238 342.563,114.915L342.563,53.983L352.603,53.983Z" style="fill:rgb(58,58,58);fill-rule:nonzero;"/>
    </g>
    <g transform="matrix(0.305845,0,0,0.305845,0,-0.267003)">
        <path d="M468.192,76.77C468.192,66.446 466.812,60.907 445.854,60.907C424.897,60.907 423.517,66.446 423.517,76.77L423.517,98.045L468.192,98.045L468.192,76.77ZM478.232,137.953L468.192,137.953L468.192,106.858L423.517,106.858L423.517,137.953L413.478,137.953L413.478,75.637C413.478,62.165 416.615,52.976 445.854,52.976C475.095,52.976 478.232,62.165 478.232,75.637L478.232,137.953Z" style="fill:rgb(58,58,58);fill-rule:nonzero;"/>
    </g>
    <g transform="matrix(0.305845,0,0,0.305845,0,-0.267003)">
        <path d="M526.585,138.96C497.345,138.96 494.208,129.77 494.208,116.3L494.208,109.628L504.247,109.628L504.247,115.166C504.247,125.49 505.628,131.03 526.585,131.03C547.542,131.03 548.923,125.49 548.923,115.166L548.923,113.907C548.923,106.228 545.157,103.207 537.503,101.948L511.4,97.793C499.479,95.905 494.208,89.233 494.208,79.917L494.208,75.762C494.208,62.165 497.345,53.101 526.585,53.101C555.825,53.101 558.962,62.165 558.962,75.762L558.962,78.659L548.923,78.659L548.923,76.895C548.923,66.573 547.542,61.033 526.585,61.033C505.628,61.033 504.247,66.573 504.247,76.895L504.247,78.91C504.247,84.449 506.256,87.848 513.659,89.107L541.519,93.639C552.938,95.528 558.962,101.318 558.962,111.768L558.962,116.3C558.962,129.77 555.825,138.96 526.585,138.96Z" style="fill:rgb(58,58,58);fill-rule:nonzero;"/>
    </g>
    <g transform="matrix(0.305845,0,0,0.305845,0,-0.267003)">
        <path d="M629.939,77.651C629.939,67.328 625.296,61.914 613.124,61.914L585.265,61.914L585.265,105.85L613.124,105.85C625.422,105.85 629.939,100.312 629.939,89.988L629.939,77.651ZM613.124,113.782L585.265,113.782L585.265,137.953L575.225,137.953L575.225,53.983L613.124,53.983C633.704,53.983 639.979,63.047 639.979,76.643L639.979,91.121C639.979,104.591 633.704,113.782 613.124,113.782Z" style="fill:rgb(58,58,58);fill-rule:nonzero;"/>
    </g>
</svg>
