<?xml version="1.0" encoding="UTF-8" standalone="no"?>
<!DOCTYPE svg PUBLIC "-//W3C//DTD SVG 1.1//EN" "http://www.w3.org/Graphics/SVG/1.1/DTD/svg11.dtd">
<svg width="100%" height="100%" viewBox="0 0 299 60" version="1.1" xmlns="http://www.w3.org/2000/svg" xmlns:xlink="http://www.w3.org/1999/xlink" xml:space="preserve" xmlns:serif="http://www.serif.com/" style="fill-rule:evenodd;clip-rule:evenodd;stroke-linejoin:round;stroke-miterlimit:1.41421;">
    <g transform="matrix(0.11939,0,0,0.11939,-0.0115418,6)">
        <path d="M543.76,87.047L435.982,87.047L435.982,15.236L729.468,15.236L729.468,87.047L621.721,87.047L621.721,369.605L543.666,369.605L543.666,87.047L543.76,87.047Z" style="fill:rgb(58,58,58);fill-rule:nonzero;"/>
    </g>
    <g transform="matrix(0.11939,0,0,0.11939,-0.0115418,6)">
        <path d="M649.04,235.351L649.04,234.352C649.04,156.921 704.209,93.135 783.294,93.135C873.838,93.135 915.394,163.478 915.394,240.409C915.394,246.497 914.895,253.553 914.395,260.641L725.471,260.641C733.058,295.578 757.349,313.718 791.787,313.718C817.607,313.718 836.341,305.632 857.571,285.868L901.594,324.833C876.273,356.211 839.837,375.444 790.757,375.444C709.267,375.537 649.04,318.37 649.04,235.351ZM840.368,212.559C835.81,178.215 815.578,154.861 783.17,154.861C751.292,154.861 730.529,177.653 724.472,212.559L840.368,212.559ZM920.328,291.55L920.328,290.551C920.328,231.23 965.381,204.004 1029.6,204.004C1052.19,203.804 1074.64,207.577 1095.92,215.15L1095.92,210.592C1095.92,178.714 1076.19,160.98 1037.72,160.98C1008.37,160.98 987.767,166.538 962.789,175.655L943.557,116.957C973.405,103.813 1002.88,95.102 1048.84,95.102C1090.86,95.102 1121.21,106.248 1140.44,125.481C1160.67,145.713 1169.79,175.436 1169.79,212.028L1169.79,369.605L1095.45,369.605L1095.45,340.257C1076.72,361.019 1050.9,374.601 1013.46,374.601C962.321,374.538 920.328,345.19 920.328,291.55ZM1097.01,273.816L1097.01,260.141C1081.55,253.333 1064.82,249.884 1047.93,250.025C1015.02,250.025 994.854,263.17 994.854,287.492L994.854,288.428C994.854,309.191 1012.06,321.336 1036.88,321.336C1072.66,321.399 1097.01,301.666 1097.01,273.816ZM1185.5,98.193L1262.49,98.193L1262.49,136.658C1280.19,113.866 1303.48,93.135 1342.45,93.135C1377.88,93.135 1404.7,108.746 1418.88,136.159C1442.67,108.309 1471.02,93.135 1507.96,93.135C1565.15,93.135 1599.56,127.479 1599.56,192.858L1599.56,369.605L1522.6,369.605L1522.6,218.148C1522.6,181.712 1506.39,162.979 1477.55,162.979C1448.7,162.979 1430.99,181.712 1430.99,218.148L1430.99,369.605L1354.06,369.605L1354.06,218.148C1354.06,181.712 1337.86,162.979 1309.01,162.979C1280.16,162.979 1262.46,181.712 1262.46,218.148L1262.46,369.605L1185.5,369.605L1185.5,98.193ZM1608.12,193.326L1608.12,192.327C1608.12,91.605 1684.05,9.117 1792.86,9.117C1859.67,9.117 1899.67,31.378 1932.54,63.786L1882.93,120.985C1855.61,96.195 1827.76,80.99 1792.39,80.99C1732.66,80.99 1689.64,130.601 1689.64,191.328L1689.64,192.327C1689.64,253.054 1731.66,303.665 1792.39,303.665C1832.98,303.665 1857.67,287.46 1885.52,262.171L1935.13,312.126C1898.7,351.091 1858.2,375.381 1789.86,375.381C1685.55,375.537 1608.12,295.079 1608.12,193.326ZM1943.13,0L2024.12,0L2024.12,68.314L1943.13,68.314L1943.13,0ZM1945.16,98.193L2022.12,98.193L2022.12,369.605L1945.19,369.605L1945.19,98.193L1945.16,98.193ZM2067.67,292.55L2067.67,163.978L2035.26,163.978L2035.26,98.193L2067.67,98.193L2067.67,28.849L2144.6,28.849L2144.6,98.193L2208.51,98.193L2208.51,163.978L2144.6,163.978L2144.6,279.873C2144.6,297.576 2152.19,306.194 2169.39,306.194C2182.66,306.26 2195.72,302.95 2207.36,296.577L2207.36,358.334C2191.15,367.951 2172.42,373.945 2146.63,373.945C2099.55,374.039 2067.67,355.306 2067.67,292.55ZM2418.92,98.193L2498.88,98.193L2394.6,376.068C2373.83,431.237 2351.57,452 2305.52,452C2281.43,452.347 2257.72,445.85 2237.18,433.267L2263,377.598C2273.11,383.686 2285.79,388.214 2295.9,388.214C2309.05,388.214 2316.14,384.155 2322.72,370.511L2216.57,98.193L2298.06,98.193L2359.82,282.933L2418.92,98.193Z" style="fill:rgb(58,58,58);fill-rule:nonzero;"/>
    </g>
    <g>
        <g transform="matrix(0.11939,0,0,0.11939,-0.0115418,6)">
            <rect x="1.122" y="15.268" width="354.244" height="354.244" style="fill:rgb(58,58,58);fill-rule:nonzero;"/>
        </g>
        <g transform="matrix(0.11939,0,0,0.11939,-0.0115418,6)">
            <path d="M61.006,77.43L34.062,77.43L34.062,59.478L107.402,59.478L107.402,77.43L80.457,77.43L80.457,147.992L61.006,147.992L61.006,77.43ZM108.526,103.969L108.526,103.719C108.521,103.454 108.519,103.189 108.519,102.924C108.519,78.242 128.828,57.933 153.51,57.933C153.897,57.933 154.285,57.938 154.672,57.948C171.376,57.948 181.367,63.505 189.578,71.592L177.089,85.892C170.252,79.647 163.32,75.901 154.453,75.901C139.529,75.901 128.789,88.389 128.789,103.47L128.789,103.719C128.789,118.893 139.28,131.538 154.453,131.538C164.569,131.538 170.782,127.479 177.714,121.172L190.203,133.661C181.172,144.215 167.769,150.046 153.891,149.459C153.66,149.463 153.429,149.465 153.197,149.465C128.687,149.465 108.518,129.296 108.518,104.786C108.518,104.514 108.521,104.241 108.526,103.969M34.062,303.134L166.911,303.134L166.911,325.27L34.062,325.27L34.062,303.134Z" style="fill:white;fill-rule:nonzero;"/>
        </g>
    </g>
</svg>
