<?xml version="1.0" encoding="UTF-8" standalone="no"?>
<!DOCTYPE svg PUBLIC "-//W3C//DTD SVG 1.1//EN" "http://www.w3.org/Graphics/SVG/1.1/DTD/svg11.dtd">
<svg width="100%" height="100%" viewBox="0 0 357 127" version="1.1" xmlns="http://www.w3.org/2000/svg" xmlns:xlink="http://www.w3.org/1999/xlink" xml:space="preserve" xmlns:serif="http://www.serif.com/" style="fill-rule:evenodd;clip-rule:evenodd;stroke-linejoin:round;stroke-miterlimit:2;">
    <g transform="matrix(1,0,0,1,-56.8135,-186.59)">
        <path d="M70.94,209.98C81,197.52 95.97,189.13 111.88,187.19C126.27,185.32 141.27,188.6 153.51,196.4C166.35,204.47 176.11,217.31 180.36,231.87C184.8,246.81 183.45,263.4 176.56,277.39C170.11,290.64 158.87,301.48 145.38,307.41C130.38,314.11 112.71,314.58 97.39,308.64C94.79,307.66 92.36,306.26 89.71,305.39C84.38,305.01 79.04,305.72 73.7,305.71C81.09,298.29 88.51,290.9 95.92,283.5C102.46,287.84 110.06,290.73 117.96,290.98C130.82,291.69 143.78,285.87 151.86,275.85C158.89,267.33 162.23,255.9 160.88,244.93C159.58,232.98 152.66,221.83 142.6,215.26C133.1,208.9 120.89,206.88 109.82,209.68C97.14,212.78 86.28,222.29 81.52,234.43C76.26,247.23 78.26,262.4 86.12,273.71C80.95,278.86 75.8,284.04 70.62,289.19C63.17,279.67 58.27,268.12 57.15,256.05C55.41,239.67 60.48,222.71 70.94,209.98Z" style="fill:rgb(58,58,58);fill-rule:nonzero;"/>
    </g>
    <g transform="matrix(1,0,0,1,-56.8135,-186.59)">
        <path d="M230.83,187.54C250.06,184.26 270.54,189.57 285.64,201.96C281.8,207.39 277.95,212.81 274.1,218.23C265.25,211.75 255.03,206.53 243.91,205.79C237.29,205.3 229.93,206.27 224.91,211.02C219.04,216.38 219.58,227.31 226.56,231.51C235.64,237.19 246.53,238.53 256.63,241.55C267.92,244.9 280.33,249.85 286.06,260.91C292.62,274.76 289.24,293.27 276.96,302.89C266.42,311.34 252.19,313.33 239.09,312.26C222.59,311.04 206.8,303.94 194.48,292.97C198.79,287.84 203.11,282.71 207.43,277.58C216.39,285.3 227.07,291.67 239.02,293.01C247,293.95 256,293.81 262.64,288.67C269.04,283.86 269.8,272.81 263.34,267.74C258.7,264.08 252.89,262.45 247.32,260.82C235.87,257.79 223.91,255.58 213.65,249.36C207.54,245.73 202.6,239.93 200.77,232.99C198.11,223.03 199.17,211.72 205.15,203.11C210.97,194.53 220.78,189.36 230.83,187.54Z" style="fill:rgb(58,58,58);fill-rule:nonzero;"/>
    </g>
    <g transform="matrix(1,0,0,1,-56.8135,-186.59)">
        <path d="M292.95,188.36L316.72,188.36C329.03,219.71 341.32,251.08 353.62,282.43C365.88,251.08 378.11,219.72 390.35,188.36L413.6,188.36C396.64,229.46 379.68,270.56 362.71,311.65L343.83,311.65C326.87,270.55 309.9,229.46 292.95,188.36Z" style="fill:rgb(58,58,58);fill-rule:nonzero;"/>
    </g>
    <g transform="matrix(1,0,0,1,-56.8135,-186.59)">
        <path d="M111.43,221.62C124.96,217.25 140.83,224.44 146.53,237.44C152.67,250.07 147.99,266.59 136.17,274.16C124.66,282.16 107.61,280.14 98.31,269.64C88.46,259.41 87.94,241.94 97.17,231.14C100.84,226.65 105.87,223.28 111.43,221.62M111.41,234.77C113.18,235.75 115.02,236.6 116.71,237.72C115.44,239.35 114.23,241.02 113.09,242.74C117.52,241.25 122.21,241.09 126.62,242.78C125.48,241.04 124.27,239.37 123.04,237.7C124.72,236.57 126.59,235.78 128.36,234.81C125.28,233.02 122.12,234.83 121.07,237.97C120.29,237.98 119.5,237.99 118.72,238C117.6,234.92 114.57,232.98 111.41,234.77M111.3,246.01C108.2,245.89 103.86,248.4 106.14,251.93C107.3,250.28 108.58,248.72 110.28,247.6C110.34,248.56 110.47,250.48 110.53,251.44C107.61,251.79 104.1,254.31 106.09,257.55C107.25,255.91 108.39,254.21 110.24,253.28C110.33,254.56 110.41,255.85 110.48,257.14C107.62,257.58 104.14,259.88 106.02,263.17C107.21,261.71 108.43,260.27 109.85,259.03C113.07,267.68 126.82,267.49 130.06,258.94C131.23,260.13 132.3,261.42 133.21,262.83C133.58,262.61 134.33,262.16 134.7,261.94C134.11,259.18 131.95,257.61 129.27,257.15C129.35,255.88 129.43,254.61 129.52,253.35C131.39,254.2 132.47,255.92 133.54,257.58C135.75,254.36 132.14,251.82 129.23,251.47C129.28,250.29 129.33,249.11 129.37,247.94C130.05,248.25 130.74,248.57 131.43,248.89C132.31,250.03 133.24,251.13 134.21,252.21C135.29,248.31 131.95,245.98 128.5,246.05C126.21,244.23 123.54,243.05 120.7,242.45C120.62,248.26 120.69,254.06 120.65,259.86C120.26,259.88 119.49,259.92 119.11,259.94C119.07,254.12 119.11,248.3 119.08,242.48C116.23,243.04 113.57,244.2 111.3,246.01Z" style="fill:rgb(58,58,58);fill-rule:nonzero;"/>
    </g>
</svg>
