<?xml version="1.0" encoding="UTF-8" standalone="no"?>
<!DOCTYPE svg PUBLIC "-//W3C//DTD SVG 1.1//EN" "http://www.w3.org/Graphics/SVG/1.1/DTD/svg11.dtd">
<svg width="100%" height="100%" viewBox="0 0 130 60" version="1.1" xmlns="http://www.w3.org/2000/svg" xmlns:xlink="http://www.w3.org/1999/xlink" xml:space="preserve" xmlns:serif="http://www.serif.com/" style="fill-rule:evenodd;clip-rule:evenodd;stroke-linejoin:round;stroke-miterlimit:2;">
    <g transform="matrix(1.17682,0,0,1.17682,-3.83011,-13.6994)">
        <path d="M20.735,17.807L17.569,17.807C17.347,15.613 16.07,14.308 13.848,14.308C12.043,14.308 10.625,15.141 10.625,16.947C10.625,18.808 11.765,19.669 14.737,20.364C18.958,21.336 20.958,23.141 20.958,26.334C20.958,29.806 17.874,31.916 14.153,31.916C9.764,31.916 6.959,29.833 6.571,25.972L9.737,25.972C10.237,28.333 11.904,29.583 14.153,29.583C16.152,29.583 17.735,28.499 17.735,26.751C17.735,24.751 16.569,23.724 13.458,23.001C9.82,22.141 7.404,20.779 7.404,17.445C7.404,14.057 10.431,11.974 14.014,11.974C18.264,11.974 20.347,14.474 20.735,17.807ZM36.313,25L25.732,25C25.983,28.528 27.592,29.694 29.592,29.694C31.369,29.694 32.758,28.611 33.064,26.751L36.148,26.751C35.509,30.249 32.704,31.916 29.481,31.916C25.538,31.916 22.566,29.416 22.566,24.195C22.566,19.529 25.538,16.391 29.788,16.391C34.065,16.391 36.37,19.612 36.37,23.779C36.37,24.055 36.37,24.472 36.313,25ZM25.76,22.86L33.231,22.86C33.009,20.138 31.814,18.612 29.676,18.612C27.592,18.612 26.093,20.029 25.76,22.86ZM51.754,21.89L48.671,21.89C48.225,19.641 47.032,18.613 45.227,18.613C43.089,18.613 41.395,20.307 41.395,24.001C41.395,28 43.062,29.696 45.117,29.696C46.867,29.696 48.117,28.64 48.56,26.64L51.671,26.64C50.976,30.167 48.421,31.918 44.949,31.918C41.089,31.918 38.172,29.473 38.172,24.224C38.172,19.197 41.45,16.391 45.311,16.391C49.034,16.39 51.393,18.64 51.754,21.89ZM67.251,31.526L64.224,31.526L64.224,28.999L63.196,30.833C62.03,31.667 60.947,31.916 59.475,31.916C56.419,31.916 54.642,30.194 54.309,28.166C54.199,27.417 54.171,26.749 54.171,25.556L54.171,16.778L57.198,16.778L57.198,24.943C57.198,25.415 57.226,26.222 57.31,26.971C57.532,28.583 58.586,29.637 60.476,29.637C62.614,29.637 64.225,27.999 64.225,23.722L64.225,16.778L67.252,16.778L67.252,31.526L67.251,31.526ZM78.773,16.584L78.773,18.973C75.968,18.779 74.218,20.223 74.218,23.861L74.218,31.526L71.163,31.526L71.163,16.778L74.218,16.778L74.218,19.278L75.468,17.25C76.134,16.723 76.996,16.416 77.745,16.416C78.162,16.418 78.468,16.473 78.773,16.584ZM84.298,13.391C84.298,14.419 83.52,15.168 82.492,15.168C81.465,15.168 80.715,14.419 80.715,13.391C80.715,12.392 81.465,11.641 82.492,11.641C83.522,11.641 84.298,12.391 84.298,13.391ZM80.966,16.778L84.022,16.778L84.022,31.526L80.966,31.526L80.966,16.778ZM91.575,26.749C91.575,27.249 91.575,27.582 91.603,27.97C91.714,29.414 92.269,29.721 94.269,29.527L94.269,31.638C93.491,31.749 92.77,31.806 92.018,31.806C89.713,31.806 88.714,30.944 88.575,28.999C88.548,28.499 88.548,27.862 88.548,27.028L88.548,19.03L86.465,19.03L86.465,16.89L88.548,16.89L88.548,13.363L91.575,13.363L91.575,16.89L94.463,16.89L94.463,19.028L91.575,19.028L91.575,26.749ZM104.155,32.471C102.794,35.97 101.21,37.359 98.544,37.359C97.933,37.359 97.545,37.359 97.1,37.275L97.1,35.025C97.462,35.053 97.766,35.053 98.072,35.053C99.461,35.053 100.405,34.469 101.071,32.748L101.293,32.22L95.35,16.778L98.767,16.778L102.821,29.249L106.849,16.778L110.153,16.778L104.155,32.471Z" style="fill:#3a3a3a;fill-rule:nonzero;"/>
    </g>
    <g transform="matrix(1.17682,0,0,1.17682,-133.355,16.5881)">
        <path d="M129.57,18.53L129.597,18.802L127.9,18.802L127.847,18.53C127.271,15.657 125.384,13.632 122.019,13.632C118.133,13.632 115.205,16.943 115.205,22.087C115.205,27.341 117.996,30.542 121.826,30.542C125.328,30.542 127.189,28.436 127.763,25.536L127.818,25.261L129.515,25.261L129.488,25.536C128.996,29.011 126.533,31.911 121.717,31.911C116.545,31.911 113.318,27.917 113.318,22.171C113.318,16.37 116.928,12.265 122.101,12.265C126.642,12.263 129.078,14.946 129.57,18.53ZM145.771,24.303C145.771,28.544 143.336,31.909 138.738,31.909C134.14,31.909 131.705,28.544 131.705,24.303C131.705,20.034 134.14,16.669 138.738,16.669C143.336,16.669 145.771,20.034 145.771,24.303ZM143.908,24.303C143.908,20.362 141.746,18.036 138.738,18.036C135.729,18.036 133.567,20.362 133.567,24.303C133.567,28.243 135.729,30.569 138.738,30.569C141.746,30.569 143.908,28.243 143.908,24.303ZM167.632,22.989L167.632,31.526L165.935,31.526L165.935,23.755C165.935,22.579 165.909,21.839 165.825,21.102C165.579,19.159 164.511,18.038 162.597,18.038C160.544,18.038 158.958,19.653 158.958,23.948L158.958,31.526L157.261,31.526L157.261,23.755C157.261,22.579 157.234,21.839 157.152,21.102C156.906,19.159 155.839,18.038 153.925,18.038C151.871,18.038 150.285,19.653 150.285,23.948L150.285,31.526L148.588,31.526L148.588,17.052L150.285,17.052L150.285,19.542L151.105,17.927C151.953,17.052 153.075,16.669 154.443,16.669C156.742,16.669 158.165,17.901 158.657,19.761L159.778,17.927C160.598,17.052 161.747,16.669 163.116,16.669C165.714,16.669 167.165,18.257 167.493,20.554C167.605,21.292 167.632,21.813 167.632,22.989ZM184.736,24.112C184.736,29.366 181.507,31.909 177.841,31.909C176.418,31.909 175.023,31.471 174.119,30.623L173.216,29.063L173.216,36.889L171.519,36.889L171.519,16.97L173.216,16.97L173.216,19.733L174.173,18.145C175.185,17.159 176.607,16.667 178.277,16.667C182.327,16.669 184.736,19.817 184.736,24.112ZM182.874,24.331C182.874,20.856 181.206,18.038 178.031,18.038C175.46,18.038 173.216,19.571 173.216,23.948L173.216,25.042C173.216,29.173 175.706,30.569 177.841,30.569C180.74,30.569 182.874,28.243 182.874,24.331ZM195.982,28.899L195.271,30.432C194.259,31.444 192.837,31.909 191.249,31.909C188.566,31.909 186.652,30.514 186.652,27.887C186.652,24.575 189.8,22.961 195.025,22.961L195.956,22.961L195.956,22.442C195.956,21.786 195.956,21.237 195.902,20.663C195.765,18.993 194.752,18.036 192.674,18.036C190.676,18.036 189.254,19.104 189.035,21.348L187.256,21.348C187.447,18.501 189.61,16.669 192.674,16.669C195.875,16.669 197.38,18.12 197.599,20.499C197.654,21.128 197.654,21.731 197.654,22.415L197.654,27.477C197.654,28.764 197.736,29.803 197.928,31.526L196.232,31.526L195.982,28.899ZM195.954,25.944L195.954,24.274C191.878,24.001 188.511,24.958 188.511,27.749C188.511,29.583 189.661,30.569 191.767,30.569C194.286,30.569 195.954,28.653 195.954,25.944ZM210.978,21.102L209.2,21.102C208.79,19.104 207.612,18.038 205.671,18.038C203.919,18.038 202.742,19.023 202.742,20.61C202.742,22.278 204.111,22.935 206.189,23.456C209.527,24.276 211.115,25.481 211.115,27.917C211.115,30.489 208.927,31.911 205.943,31.911C203.07,31.911 200.8,30.544 200.39,27.259L202.142,27.259C202.552,29.721 204.111,30.571 206.054,30.571C207.888,30.571 209.392,29.722 209.392,28.052C209.392,26.438 208.353,25.645 205.533,24.96C203.044,24.304 200.992,23.292 200.992,20.8C200.992,18.311 202.962,16.669 205.808,16.669C208.954,16.669 210.649,18.557 210.978,21.102ZM223.29,21.102L221.511,21.102C221.1,19.104 219.924,18.038 217.983,18.038C216.231,18.038 215.054,19.023 215.054,20.61C215.054,22.278 216.423,22.935 218.501,23.456C221.839,24.276 223.427,25.481 223.427,27.917C223.427,30.489 221.239,31.911 218.257,31.911C215.384,31.911 213.113,30.544 212.702,27.259L214.454,27.259C214.864,29.721 216.423,30.571 218.366,30.571C220.2,30.571 221.704,29.722 221.704,28.052C221.704,26.438 220.663,25.645 217.845,24.96C215.355,24.304 213.304,23.292 213.304,20.8C213.304,18.311 215.274,16.669 218.12,16.669C221.267,16.669 222.962,18.557 223.29,21.102Z" style="fill:#3a3a3a;fill-rule:nonzero;"/>
    </g>
</svg>
