<?xml version="1.0" encoding="UTF-8" standalone="no"?>
<!DOCTYPE svg PUBLIC "-//W3C//DTD SVG 1.1//EN" "http://www.w3.org/Graphics/SVG/1.1/DTD/svg11.dtd">
<svg width="100%" height="100%" viewBox="0 0 190 60" version="1.1" xmlns="http://www.w3.org/2000/svg" xmlns:xlink="http://www.w3.org/1999/xlink" xml:space="preserve" xmlns:serif="http://www.serif.com/" style="fill-rule:evenodd;clip-rule:evenodd;stroke-linejoin:round;stroke-miterlimit:1.41421;">
    <g id="ink_ext_XXXXXX" transform="matrix(1.25,0,0,-1.25,10,321.855)">
        <g id="g3393" transform="matrix(0.191391,0,0,0.191391,-11.1597,209.438)">
            <path id="path100" d="M95.389,214.532C86.304,216.648 81.789,210.73 79.035,204.592C76.576,205.188 77.555,208.532 78.176,210.236C79.802,214.708 86.356,220.661 91.71,219.854C94.015,219.507 97.133,217.4 95.389,214.532" style="fill:rgb(58,58,58);"/>
            <path id="path102" d="M139.655,204.186C139.798,204.18 139.943,204.175 140.086,204.169C142.139,199.904 143.916,195.386 146.506,191.621C144.771,187.58 133.368,184.004 133.544,191.26C136.01,192.338 140.267,191.48 142.453,192.857C141.189,196.326 139.365,199.279 139.655,204.186" style="fill:rgb(58,58,58);"/>
            <path id="path104" d="M100.04,204.075C101.988,200.504 102.622,196.752 105.391,194.053C106.638,192.838 109.063,191.357 107.861,187.978C107.58,187.181 105.527,185.404 104.342,185.055C100.013,183.777 89.926,184.791 93.342,190.188C96.922,190.021 101.734,187.863 104.41,190.462C102.355,193.747 98.691,200.246 100.04,204.075" style="fill:rgb(58,58,58);"/>
            <path id="path106" d="M138.03,167.781C131.512,163.594 124.244,159.041 113.564,160.097C111.282,162.081 110.412,166.496 112.629,169.412C113.783,167.428 113.058,163.779 116.274,163.23C122.334,162.193 129.387,166.937 133.746,168.595C136.449,173.152 133.513,174.828 131.078,177.761C126.093,183.77 119.406,191.218 119.649,200.214C121.664,201.675 121.838,197.984 122.127,197.312C124.73,191.22 131.281,183.429 136.062,178.215C137.236,176.931 139.169,175.699 139.384,174.85C140.004,172.381 137.771,169.423 138.03,167.781" style="fill:rgb(58,58,58);"/>
            <path id="path108" d="M52.102,172.189C50.059,173.355 49.572,178.491 47.174,178.637C43.746,178.845 44.371,171.974 44.385,167.956C42.025,170.098 41.611,176.693 43.344,180.08C41.368,181.05 40.486,179.01 39.391,178.291C40.799,188.521 54.356,183.036 52.102,172.189" style="fill:rgb(58,58,58);"/>
            <path id="path110" d="M142.18,163.521C139.146,157.746 134.854,151.386 125.951,151.201C125.77,153.066 125.631,155.904 125.961,157.027C132.767,157.681 136.969,161.145 142.18,163.521" style="fill:rgb(58,58,58);"/>
            <path id="path112" d="M99.527,159.777C105.205,156.791 115.641,156.47 123.359,156.696C123.773,155.005 123.763,152.916 123.779,150.854C113.858,150.359 102.128,152.814 99.527,159.777" style="fill:rgb(58,58,58);"/>
            <path id="path114" d="M98.447,154.209C102.374,144.35 115.87,145.485 127.251,145.757C126.75,144.477 125.664,142.965 124.314,142.418C120.667,140.934 110.608,139.808 105.545,142.497C102.334,144.204 100.271,148.061 98.512,150.322C97.662,151.414 93.432,154.203 98.447,154.209" style="fill:rgb(58,58,58);"/>
            <path id="path118" d="M162.352,71.461C157.193,70.428 153.568,65.414 148.535,65.736C151.301,69.635 156.148,71.279 162.352,71.461" style="fill:rgb(58,58,58);"/>
            <path id="path120" d="M164.628,63.387C160.423,62.943 155.484,62.262 151.219,62.613C153.238,65.697 161.017,64.633 164.628,63.387" style="fill:rgb(58,58,58);"/>
            <path id="path122" d="M166.085,56.426C161.359,56.324 155.485,56.418 150.993,56.795C153.65,59.649 163.02,57.854 166.085,56.426" style="fill:rgb(58,58,58);"/>
            <path id="path130" d="M123.02,36.516C122.799,31.25 123.538,22.805 123.785,17.281C127.286,17.276 128.787,18.047 131.4,18.928C131.695,25.428 129.342,31.442 128.664,37.377C127.281,37.746 124.742,36.402 123.02,36.516ZM68.506,66.465C70.815,45.242 74.158,27.401 80.291,8.608C93.902,4.475 110.311,4.115 122.342,7.844C120.133,18.451 121.098,31.365 119.807,42.684C118.834,51.192 119.33,59.752 117.996,68.432C103.418,71.465 82.813,69.141 68.506,66.465ZM121.443,68.299C121.32,59.184 121.851,50.193 122.547,41.067C126.047,41.592 128.422,41.943 131.674,42.656C130.618,51.442 130.748,61.328 128.597,69.1C126.111,69.076 123.922,69.129 121.443,68.299ZM139.198,69.768C137.537,70.149 135.603,69.783 134.016,69.752C134.762,62.322 136.572,54.123 137.209,46.324C139.706,46.246 141.04,47.424 143.094,47.82C143.204,54.666 142.496,64.098 139.198,69.768ZM166.082,45.205C171.287,46.469 174.56,52.844 173.104,59.391C172.127,63.791 170.387,72.076 168.525,74.891C167.149,76.973 163.418,79.699 160.439,77.791C155.593,74.688 147.056,73.787 143.522,70.031C145.294,64.131 145.844,56.027 146.575,48.551C152.629,48.174 160.078,50.217 165.113,48.049C161.598,46.91 157.037,46.901 154,45.242C156.482,44.043 162.293,44.285 166.082,45.205ZM117.679,76.859C114.023,85.457 110.703,94.367 105.244,101.295C99.955,97.748 94.131,94.412 92.644,87.971C100.215,83.688 109.041,79.463 117.679,76.859ZM126.691,103.484C126.345,94.885 125.364,83.606 123.072,76.867C128.539,83.828 132.948,91.934 137.556,99.826C135.592,102.979 131.486,105.728 126.691,103.484ZM116.475,107.114C114.404,107.337 112.646,104.733 109.953,105.859C109.336,105.177 108.775,104.438 108.146,103.772C114.094,96.604 116.797,86.434 121.391,78.01C123.856,86.102 123.572,94.967 124.115,103.799C120.728,103.584 118.849,106.862 116.475,107.114ZM109.906,115.784C109.685,113.329 110.256,112.526 110.75,109.712C118.82,107.189 117.411,120.788 109.906,115.784ZM100.957,118.722C97.48,120.622 92.256,122.691 87.765,123.548C82.197,124.613 82.719,115.954 82.955,110.788C83.141,106.698 85.268,102.373 86.191,99.656C86.625,98.387 86.723,97.041 87.807,96.789C89.725,96.342 96.049,98.871 97.851,99.854C101.662,101.932 104.619,105.232 107.856,107.448C107.898,108.526 107.939,109.603 107.982,110.681C106.036,111.651 103.787,112.339 100.93,112.464C102.868,113.439 105.719,113.425 107.485,114.585C107.502,115.017 107.52,115.448 107.535,115.876C104.311,116.124 103.082,117.56 100.957,118.722ZM67.743,124.755C64.857,121.825 75.838,117.831 79.334,117.616C79.315,119.47 80.391,121.218 80.174,122.548C76.022,123.277 70.565,122.796 67.743,124.755ZM103.295,123.379C103.281,123.093 102.908,123.197 102.847,122.964C106.56,120.062 109.318,119.462 114.372,119.712C116.651,121.366 118.672,123.3 121.045,124.849C115.582,124.361 108.705,120.968 103.295,123.379ZM135.927,113.484C135.771,116.739 134.916,123.433 132.904,124.605C128.681,127.07 121.174,119.628 117.994,118.493C118.34,117.497 118.911,116.708 118.955,115.435C120.836,115.898 123.126,115.581 124.756,114.78C122.871,114.569 120.781,114.583 119.534,113.685C119.077,112.364 119.646,110.564 119.342,108.73C123.816,107.468 128.926,106.796 134.582,106.63C135.682,108.06 136.057,110.784 135.927,113.484ZM62.885,121.921C61.979,122.567 55.848,130.544 55.008,130.213C43.914,125.838 33.541,118.273 24.272,111.118C33.109,92.154 36.677,68.92 37.307,46.526C47.432,41.791 56.324,34.965 70.063,34.252C68.473,45.5 67.022,55.535 66.119,66.125C62.667,67.58 57.715,66.059 54.484,66.576C54.457,70.469 59.418,68.281 59.831,70.899C60.143,72.879 57.102,73.029 58.092,76.147C60.617,75.229 61.943,73.201 64.637,72.44C67.098,77.824 64.602,87.35 64.957,91.85C65.024,92.695 65.379,96.531 67.272,95.858C68.947,95.262 67.176,85.656 67.359,81.397C67.527,77.473 66.886,73.676 68.475,71.213C81.75,73.02 95.24,74.188 109.604,74.582C106.444,75.938 102.69,77.221 98.574,79.541C96.343,80.799 89.31,83.416 88.666,85.535C87.639,88.912 91.361,90.711 91.998,93.606C85.297,89.951 83.99,97.109 82.404,102.18C80.968,106.773 80.15,110.204 79.798,112.853C74.025,115.605 67.854,118.392 62.885,121.921ZM130.064,129.248C139.307,133.73 140.973,112.497 137.35,105.657C137.91,103.617 139.836,102.836 140.622,101.002C135.464,91.762 129.735,83.137 124.472,74.006C128.387,76.443 133.979,74.442 138.586,76.266C140.27,76.932 141.489,80.787 142.764,83.871C146.271,92.356 149.953,103.053 151.591,111.15C151.961,112.995 152.969,117.015 152.743,118.657C152.34,121.597 148.351,123.777 146.322,125.595C142.584,128.953 140.23,131.908 136.331,135.048C134.75,132.714 131.357,131.146 130.064,129.248ZM41.746,211.216C37.342,206.37 38.264,197.29 38.797,190.83C46.758,195.838 57.324,190.434 57.225,181.916C61.025,182.017 58.645,186.663 57.957,189.656C55.71,199.432 61.742,210.053 58.231,218.993C51.412,218.476 45.811,215.691 41.746,211.216ZM73.26,239.342C63.289,236.516 50.511,229.271 46.413,220.314C49.586,220.775 51.788,222.375 54.918,222.573C56.101,222.65 57.65,222.077 59.01,222.415C61.719,223.087 64.005,229.161 66.049,231.421C68.041,233.628 70.436,234.571 72.074,236.583C73.127,237.091 74.684,237.056 74.743,238.637C74.287,239.125 73.807,239.497 73.26,239.342ZM125.163,236.684C114.814,242.523 97.297,246.915 86.288,241.427C77.406,236.998 65.398,229.67 61.305,220.384C65.129,211.423 60.172,203.212 59.856,194.114C59.688,189.273 62.135,185.047 62.322,179.777C61.014,177.618 57.016,177.352 54.248,177.5C53.316,182.162 51.686,187.402 46.885,187.928C40.092,188.671 35.125,183.049 34.816,177.174C34.451,170.265 40.123,158.814 48.162,159.609C51.268,159.916 52.031,163.029 55.414,162.997C57.248,159.338 52.585,158.189 52.106,155.572C51.981,154.896 52.492,152.254 52.79,151.015C54.25,144.982 57.505,137.174 60.709,132.581C64.775,126.755 72.765,125.877 81.359,125.306C82.895,128.613 88.55,128.341 92.234,127.476C87.818,129.225 83.713,133.465 80.311,137.218C76.402,141.524 72.443,146.143 72.243,151.771C79.629,141.525 85.731,132.577 99.16,128.07C109.322,124.662 121.19,129.632 128.998,135.115C132.238,137.394 134.172,141.01 136.475,144.32C145.092,156.715 149.113,174.407 148.229,191.555C147.865,198.627 147.881,205.675 145.508,210.433C143.028,215.408 134.64,219.859 129.73,215.359C128.82,220.197 133.813,223.189 139.678,221.448C135.496,226.845 131.107,233.33 125.163,236.684ZM144.444,77.117C152.531,81.137 167.641,87.938 172.711,77.102C174.582,73.108 176.777,66.356 177.746,62.233C179.115,56.416 176.262,44.19 170.283,42.238C165.002,40.514 158.84,40.619 152.479,41.897C151.73,42.52 150.896,43.606 150.313,44.738C145.771,44.914 141.518,44.494 137.93,42.627C138.27,39.268 135.998,38.729 133.868,38.037C132.289,31.776 137.027,23.6 135.893,17.891C135.084,13.824 130.08,13.195 126.402,12.434C126.282,10.174 126.563,8.287 126.814,6.375C125.973,3.276 122.201,1.512 118.627,1.08C106.868,-0.334 89.014,-0.969 77.703,3.098C74.547,10.84 72.06,20.256 69.432,29.096C58.4,27.918 49.478,33.856 41.068,37.746C38.155,39.096 34.127,39.84 33.039,42.158C31.984,44.402 32.416,48.703 32.154,52.766C31.488,63.143 30.918,73.152 28.178,83.777C26.947,88.545 24.803,92.752 23.307,97.346C21.924,101.604 19.508,106.866 18.878,111.112C17.943,117.405 23.869,117.755 27.658,120.482C33.516,124.699 38.113,127.031 44.457,130.837C46.336,131.964 52.002,134.817 52.646,136.131C53.928,138.736 50.447,142.409 49.517,144.451C48.045,147.68 47.277,150.423 47.066,153.609C41.745,154.45 37.711,157.617 35.274,161.188C31.243,167.098 28.448,178.032 31.935,186.349C32.209,187.004 33.573,188.292 33.774,189.298C34.171,191.279 33.027,193.913 32.956,196.02C32.59,206.83 34.785,216.144 42.062,219.404C45.017,231.173 55.591,235.086 65.553,240.935C69.277,243.121 73.382,244.518 77.621,246.078C92.829,251.675 116.163,250.621 128.785,241.075C134.137,237.027 142.692,228.48 145.752,222.292C153.834,205.955 153.26,178.652 147.607,158.779C146.847,156.111 145.745,152.189 144.206,148.984C143.133,146.746 139.798,142.268 140.203,140.292C140.62,138.249 147.807,132.792 149.348,131.306C152.123,128.629 157.395,125.076 157.822,121.698C158.281,118.103 156.238,113.185 155.203,109.716C151.743,98.139 148.367,87.438 144.444,77.117" style="fill:rgb(58,58,58);"/>
            <path id="path134" d="M119.717,99.934C119.717,98.922 118.896,98.101 117.883,98.101C116.871,98.101 116.05,98.922 116.05,99.934C116.05,100.946 116.871,101.768 117.883,101.768C118.896,101.768 119.717,100.946 119.717,99.934" style="fill:rgb(58,58,58);"/>
            <path id="path136" d="M121.55,91.434C121.55,90.422 120.729,89.601 119.716,89.601C118.704,89.601 117.883,90.422 117.883,91.434C117.883,92.446 118.704,93.268 119.716,93.268C120.729,93.268 121.55,92.446 121.55,91.434" style="fill:rgb(58,58,58);"/>
        </g>
        <g transform="matrix(0.191391,0,0,-0.191391,33.1866,223.163)">
            <g id="text5675">
                <path d="M81.984,-94.289C80.109,-94.055 78.516,-93.82 77.203,-93.586C75.891,-93.352 74.414,-93.023 72.773,-92.602C70.852,-92.086 69.621,-91.172 69.082,-89.859C68.543,-88.547 68.273,-87.047 68.273,-85.359L68.273,-30.375C68.273,-25.313 67.254,-20.672 65.215,-16.453C63.176,-12.234 60.375,-8.695 56.813,-5.836C53.203,-3.023 49.172,-0.902 44.719,0.527C40.266,1.957 35.508,2.672 30.445,2.672C21.68,2.672 14.613,0.563 9.246,-3.656C3.879,-7.875 1.195,-13.664 1.195,-21.023C1.195,-25.383 2.426,-28.992 4.887,-31.852C7.348,-34.711 10.734,-36.141 15.047,-36.141C19.125,-36.141 22.371,-34.945 24.785,-32.555C27.199,-30.164 28.406,-27.211 28.406,-23.695C28.406,-20.695 27.363,-17.918 25.277,-15.363C23.191,-12.809 20.813,-10.453 18.141,-8.297L18.141,-7.383C18.563,-6.445 19.477,-5.648 20.883,-4.992C22.289,-4.336 23.719,-4.008 25.172,-4.008C30.797,-4.008 35.215,-6.023 38.426,-10.055C41.637,-14.086 43.242,-20.18 43.242,-28.336L43.242,-84.656C43.242,-86.344 42.984,-87.75 42.469,-88.875C41.953,-90 40.711,-90.984 38.742,-91.828C37.336,-92.438 35.637,-92.953 33.645,-93.375C31.652,-93.797 30,-94.102 28.688,-94.289L28.688,-99.773L81.984,-99.773L81.984,-94.289Z" style="fill:rgb(58,58,58);fill-rule:nonzero;"/>
                <path d="M165.375,-16.805C163.734,-14.133 161.754,-11.613 159.434,-9.246C157.113,-6.879 154.477,-4.852 151.523,-3.164C148.383,-1.383 145.207,-0.035 141.996,0.879C138.785,1.793 135.094,2.25 130.922,2.25C123.984,2.25 117.996,1.266 112.957,-0.703C107.918,-2.672 103.758,-5.32 100.477,-8.648C97.195,-11.977 94.746,-15.902 93.129,-20.426C91.512,-24.949 90.703,-29.859 90.703,-35.156C90.703,-39.938 91.582,-44.52 93.34,-48.902C95.098,-53.285 97.594,-57.188 100.828,-60.609C104.016,-63.938 108.035,-66.633 112.887,-68.695C117.738,-70.758 123.164,-71.789 129.164,-71.789C135.727,-71.789 141.117,-70.992 145.336,-69.398C149.555,-67.805 153.047,-65.602 155.813,-62.789C158.484,-60.117 160.43,-56.965 161.648,-53.332C162.867,-49.699 163.477,-45.891 163.477,-41.906L163.477,-37.336L115.945,-37.336C115.945,-27.727 117.797,-20.414 121.5,-15.398C125.203,-10.383 131.086,-7.875 139.148,-7.875C143.555,-7.875 147.516,-9.082 151.031,-11.496C154.547,-13.91 157.547,-16.969 160.031,-20.672L165.375,-16.805ZM138.516,-43.523C138.516,-46.336 138.375,-49.219 138.094,-52.172C137.813,-55.125 137.32,-57.539 136.617,-59.414C135.82,-61.617 134.73,-63.281 133.348,-64.406C131.965,-65.531 130.219,-66.094 128.109,-66.094C124.5,-66.094 121.617,-64.266 119.461,-60.609C117.305,-56.953 116.133,-51.164 115.945,-43.242L138.516,-43.523Z" style="fill:rgb(58,58,58);fill-rule:nonzero;"/>
                <path d="M264.938,0L222.609,0L222.609,-5.133C223.5,-5.227 224.578,-5.344 225.844,-5.484C227.109,-5.625 228.07,-5.859 228.727,-6.188C229.711,-6.703 230.414,-7.453 230.836,-8.438C231.258,-9.422 231.469,-10.875 231.469,-12.797L231.469,-45.703C231.469,-50.484 230.59,-54.082 228.832,-56.496C227.074,-58.91 224.484,-60.117 221.063,-60.117C219.188,-60.117 217.441,-59.836 215.824,-59.273C214.207,-58.711 212.625,-57.891 211.078,-56.813C209.719,-55.875 208.629,-54.914 207.809,-53.93C206.988,-52.945 206.297,-52.078 205.734,-51.328L205.734,-13.57C205.734,-11.93 205.969,-10.559 206.438,-9.457C206.906,-8.355 207.68,-7.523 208.758,-6.961C209.508,-6.539 210.445,-6.164 211.57,-5.836C212.695,-5.508 213.797,-5.273 214.875,-5.133L214.875,0L172.125,0L172.125,-5.133C173.297,-5.227 174.48,-5.355 175.676,-5.52C176.871,-5.684 177.891,-5.906 178.734,-6.188C180.234,-6.703 181.266,-7.5 181.828,-8.578C182.391,-9.656 182.672,-11.063 182.672,-12.797L182.672,-53.719C182.672,-55.172 182.297,-56.602 181.547,-58.008C180.797,-59.414 179.813,-60.563 178.594,-61.453C177.75,-62.016 176.684,-62.484 175.395,-62.859C174.105,-63.234 172.688,-63.492 171.141,-63.633L171.141,-68.766L204.68,-70.594L205.734,-69.539L205.734,-59.344L206.016,-59.344C207.328,-60.516 208.922,-61.922 210.797,-63.563C212.672,-65.203 214.406,-66.539 216,-67.57C217.734,-68.695 220.008,-69.656 222.82,-70.453C225.633,-71.25 228.633,-71.648 231.82,-71.648C239.461,-71.648 245.191,-69.48 249.012,-65.145C252.832,-60.809 254.742,-55.055 254.742,-47.883L254.742,-13.43C254.742,-11.695 255,-10.313 255.516,-9.281C256.031,-8.25 256.992,-7.43 258.398,-6.82C259.148,-6.492 260.074,-6.164 261.176,-5.836C262.277,-5.508 263.531,-5.273 264.938,-5.133L264.938,0Z" style="fill:rgb(58,58,58);fill-rule:nonzero;"/>
                <path d="M361.688,0L328.57,0C324.492,-7.172 320.766,-13.254 317.391,-18.246C314.016,-23.238 310.828,-27.867 307.828,-32.133L303.609,-28.547L303.609,-13.219C303.609,-11.531 303.855,-10.148 304.348,-9.07C304.84,-7.992 305.789,-7.195 307.195,-6.68C308.039,-6.305 309.023,-5.977 310.148,-5.695C311.273,-5.414 312.398,-5.227 313.523,-5.133L313.523,0L270,0L270,-5.133C271.172,-5.227 272.344,-5.355 273.516,-5.52C274.688,-5.684 275.719,-5.906 276.609,-6.188C278.109,-6.703 279.129,-7.5 279.668,-8.578C280.207,-9.656 280.477,-11.063 280.477,-12.797L280.477,-91.195C280.477,-92.742 280.137,-94.348 279.457,-96.012C278.777,-97.676 277.781,-98.93 276.469,-99.773C275.578,-100.336 274.242,-100.805 272.461,-101.18C270.68,-101.555 269.063,-101.789 267.609,-101.883L267.609,-107.016L302.555,-108.844L303.609,-107.719L303.609,-35.156C307.078,-38.25 310.98,-41.836 315.316,-45.914C319.652,-49.992 323.133,-53.367 325.758,-56.039C327.305,-57.633 328.16,-58.84 328.324,-59.66C328.488,-60.48 328.57,-60.984 328.57,-61.172C328.57,-62.016 327.832,-62.719 326.355,-63.281C324.879,-63.844 322.664,-64.336 319.711,-64.758L319.711,-69.75L355.43,-69.75L355.43,-64.898C350.742,-63.586 347.168,-62.355 344.707,-61.207C342.246,-60.059 339.563,-58.523 336.656,-56.602C334.734,-55.336 332.871,-54.012 331.066,-52.629C329.262,-51.246 327.188,-49.523 324.844,-47.461C329.438,-40.805 333.68,-34.641 337.57,-28.969C341.461,-23.297 345.539,-17.297 349.805,-10.969C351.258,-8.766 353.063,-7.289 355.219,-6.539C357.375,-5.789 359.531,-5.32 361.688,-5.133L361.688,0Z" style="fill:rgb(58,58,58);fill-rule:nonzero;"/>
                <path d="M406.898,0L362.461,0L362.461,-5.133C363.68,-5.227 364.875,-5.344 366.047,-5.484C367.219,-5.625 368.227,-5.859 369.07,-6.188C370.57,-6.75 371.625,-7.559 372.234,-8.613C372.844,-9.668 373.148,-11.063 373.148,-12.797L373.148,-53.719C373.148,-55.359 372.773,-56.801 372.023,-58.043C371.273,-59.285 370.336,-60.281 369.211,-61.031C368.367,-61.594 367.09,-62.133 365.379,-62.648C363.668,-63.164 362.109,-63.492 360.703,-63.633L360.703,-68.766L395.156,-70.594L396.211,-69.539L396.211,-13.711C396.211,-12.07 396.563,-10.676 397.266,-9.527C397.969,-8.379 398.977,-7.523 400.289,-6.961C401.227,-6.539 402.258,-6.164 403.383,-5.836C404.508,-5.508 405.68,-5.273 406.898,-5.133L406.898,0ZM396.633,-95.906C396.633,-92.344 395.262,-89.309 392.52,-86.801C389.777,-84.293 386.531,-83.039 382.781,-83.039C378.984,-83.039 375.715,-84.293 372.973,-86.801C370.23,-89.309 368.859,-92.344 368.859,-95.906C368.859,-99.469 370.23,-102.516 372.973,-105.047C375.715,-107.578 378.984,-108.844 382.781,-108.844C386.578,-108.844 389.836,-107.578 392.555,-105.047C395.273,-102.516 396.633,-99.469 396.633,-95.906Z" style="fill:rgb(58,58,58);fill-rule:nonzero;"/>
                <path d="M506.18,0L463.852,0L463.852,-5.133C464.742,-5.227 465.82,-5.344 467.086,-5.484C468.352,-5.625 469.313,-5.859 469.969,-6.188C470.953,-6.703 471.656,-7.453 472.078,-8.438C472.5,-9.422 472.711,-10.875 472.711,-12.797L472.711,-45.703C472.711,-50.484 471.832,-54.082 470.074,-56.496C468.316,-58.91 465.727,-60.117 462.305,-60.117C460.43,-60.117 458.684,-59.836 457.066,-59.273C455.449,-58.711 453.867,-57.891 452.32,-56.813C450.961,-55.875 449.871,-54.914 449.051,-53.93C448.23,-52.945 447.539,-52.078 446.977,-51.328L446.977,-13.57C446.977,-11.93 447.211,-10.559 447.68,-9.457C448.148,-8.355 448.922,-7.523 450,-6.961C450.75,-6.539 451.688,-6.164 452.813,-5.836C453.938,-5.508 455.039,-5.273 456.117,-5.133L456.117,0L413.367,0L413.367,-5.133C414.539,-5.227 415.723,-5.355 416.918,-5.52C418.113,-5.684 419.133,-5.906 419.977,-6.188C421.477,-6.703 422.508,-7.5 423.07,-8.578C423.633,-9.656 423.914,-11.063 423.914,-12.797L423.914,-53.719C423.914,-55.172 423.539,-56.602 422.789,-58.008C422.039,-59.414 421.055,-60.563 419.836,-61.453C418.992,-62.016 417.926,-62.484 416.637,-62.859C415.348,-63.234 413.93,-63.492 412.383,-63.633L412.383,-68.766L445.922,-70.594L446.977,-69.539L446.977,-59.344L447.258,-59.344C448.57,-60.516 450.164,-61.922 452.039,-63.563C453.914,-65.203 455.648,-66.539 457.242,-67.57C458.977,-68.695 461.25,-69.656 464.063,-70.453C466.875,-71.25 469.875,-71.648 473.063,-71.648C480.703,-71.648 486.434,-69.48 490.254,-65.145C494.074,-60.809 495.984,-55.055 495.984,-47.883L495.984,-13.43C495.984,-11.695 496.242,-10.313 496.758,-9.281C497.273,-8.25 498.234,-7.43 499.641,-6.82C500.391,-6.492 501.316,-6.164 502.418,-5.836C503.52,-5.508 504.773,-5.273 506.18,-5.133L506.18,0Z" style="fill:rgb(58,58,58);fill-rule:nonzero;"/>
                <path d="M545.273,2.391C540.727,2.391 536.285,1.723 531.949,0.387C527.613,-0.949 524.25,-2.367 521.859,-3.867L519.75,0.914L514.266,0.914L513.352,-25.313L518.484,-25.313C519.188,-23.203 520.359,-20.824 522,-18.176C523.641,-15.527 525.516,-13.148 527.625,-11.039C529.828,-8.93 532.348,-7.148 535.184,-5.695C538.02,-4.242 541.055,-3.516 544.289,-3.516C548.555,-3.516 551.73,-4.348 553.816,-6.012C555.902,-7.676 556.945,-10.242 556.945,-13.711C556.945,-15.586 556.477,-17.133 555.539,-18.352C554.602,-19.57 553.313,-20.625 551.672,-21.516C549.844,-22.453 547.84,-23.25 545.66,-23.906C543.48,-24.563 540.797,-25.359 537.609,-26.297C534.422,-27.234 531.691,-28.184 529.418,-29.145C527.145,-30.105 524.789,-31.617 522.352,-33.68C520.242,-35.508 518.555,-37.711 517.289,-40.289C516.023,-42.867 515.391,-45.938 515.391,-49.5C515.391,-56.109 518.168,-61.453 523.723,-65.531C529.277,-69.609 536.555,-71.648 545.555,-71.648C549.82,-71.648 553.746,-71.215 557.332,-70.348C560.918,-69.48 563.93,-68.531 566.367,-67.5L567.844,-71.648L573.188,-71.648L574.313,-47.672L569.32,-47.672C567.68,-52.547 564.867,-56.754 560.883,-60.293C556.898,-63.832 552.609,-65.602 548.016,-65.602C544.406,-65.602 541.57,-64.852 539.508,-63.352C537.445,-61.852 536.414,-59.766 536.414,-57.094C536.414,-53.531 537.926,-50.953 540.949,-49.359C543.973,-47.766 548.203,-46.266 553.641,-44.859C562.031,-42.703 568.172,-39.762 572.063,-36.035C575.953,-32.309 577.898,-27.563 577.898,-21.797C577.898,-14.109 574.887,-8.156 568.863,-3.938C562.84,0.281 554.977,2.391 545.273,2.391Z" style="fill:rgb(58,58,58);fill-rule:nonzero;"/>
            </g>
        </g>
    </g>
</svg>
