<?xml version="1.0" encoding="UTF-8" standalone="no"?>
<!DOCTYPE svg PUBLIC "-//W3C//DTD SVG 1.1//EN" "http://www.w3.org/Graphics/SVG/1.1/DTD/svg11.dtd">
<svg width="100%" height="100%" viewBox="0 0 212 60" version="1.1" xmlns="http://www.w3.org/2000/svg" xmlns:xlink="http://www.w3.org/1999/xlink" xml:space="preserve" xmlns:serif="http://www.serif.com/" style="fill-rule:evenodd;clip-rule:evenodd;stroke-linejoin:round;stroke-miterlimit:2;">
    <g transform="matrix(1.06838,0,0,1.06838,-2.13675,-3.20513)">
        <path d="M23.54,3C33.75,3 39,8.72 39,8.72L35.34,14.39C32.136,11.665 28.095,10.116 23.89,10C15.04,10 9.89,16.61 9.89,24.4C9.89,32.4 15.26,39.4 23.99,39.4C31.25,39.4 36.15,34.09 36.15,34.09L40.15,39.58C35.826,43.998 29.871,46.451 23.69,46.36C10.85,46.31 2,36.81 2,24.48C1.997,24.335 1.995,24.189 1.995,24.044C1.995,12.497 11.498,2.994 23.045,2.994C23.21,2.994 23.375,2.996 23.54,3Z" style="fill:rgb(58,58,58);fill-rule:nonzero;"/>
    </g>
    <g transform="matrix(1.06838,0,0,1.06838,-2.13675,-3.20513)">
        <path d="M56.29,14.8C65.5,14.8 72.87,21.35 72.87,30.56C72.87,39.77 65.5,46.31 56.35,46.31C47.2,46.31 39.77,39.82 39.77,30.56C39.77,21.3 47.14,14.8 56.29,14.8ZM56.35,39.94C61.19,39.94 65.26,36.16 65.26,30.56C65.26,24.96 61.19,21.17 56.35,21.17C56.347,21.17 56.344,21.17 56.342,21.17C51.404,21.17 47.342,25.233 47.342,30.17C47.342,30.3 47.344,30.43 47.35,30.56C47.38,36.16 51.45,39.94 56.35,39.94Z" style="fill:rgb(58,58,58);fill-rule:nonzero;"/>
    </g>
    <g transform="matrix(1.06838,0,0,1.06838,-2.13675,-3.20513)">
        <path d="M88.16,14.8C94.77,14.8 96.84,18.64 96.84,18.64L97,18.64L97,16.93L97,3.71L104.49,3.71L104.49,45.6L97.31,45.6L97.31,43.12C97.308,42.471 97.348,41.823 97.43,41.18L97.31,41.18C95.353,44.496 91.717,46.472 87.87,46.31C79.72,46.31 74.53,39.88 74.53,30.56C74.53,21 80.2,14.8 88.16,14.8ZM89.58,40C93.47,40 97.13,37.16 97.13,30.5C97.13,25.84 94.65,21.23 89.64,21.23C85.51,21.23 82.08,24.6 82.08,30.56C82.08,36.28 85.15,40 89.58,40Z" style="fill:rgb(58,58,58);fill-rule:nonzero;"/>
    </g>
    <g transform="matrix(1.06838,0,0,1.06838,-2.13675,-3.20513)">
        <path d="M121.42,14.8C130.09,14.8 134.75,21.12 134.75,29.08C134.75,29.97 134.58,31.97 134.58,31.97L113.8,31.97C114.28,37.22 118.35,39.97 122.8,39.97C125.972,39.821 129.014,38.661 131.48,36.66L134.4,42C130.999,44.813 126.713,46.339 122.3,46.31C112.3,46.31 106.13,39.11 106.13,30.56C106.13,21.29 112.45,14.8 121.42,14.8ZM127.2,26.8C127.08,22.73 124.54,20.54 121.2,20.54C117.36,20.54 114.71,22.9 114,26.8L127.2,26.8Z" style="fill:rgb(58,58,58);fill-rule:nonzero;"/>
    </g>
    <g transform="matrix(1.06838,0,0,1.06838,-2.13675,-3.20513)">
        <path d="M167.33,44.61C168.237,44.123 169.097,43.554 169.9,42.91L164.5,35C163.994,35.522 163.418,35.973 162.79,36.34C161.62,36.966 160.307,37.276 158.98,37.24L151.98,37.24L151.98,14.17L158.98,14.17C160.319,14.133 161.643,14.451 162.82,15.09C163.887,15.707 164.798,16.563 165.48,17.59C166.206,18.718 166.721,19.968 167,21.28C167.328,22.751 167.492,24.253 167.49,25.76C167.487,26.566 167.434,27.371 167.33,28.17L177.14,28.17C177.21,27.37 177.26,26.56 177.26,25.73C177.273,23.042 176.875,20.368 176.08,17.8C175.351,15.412 174.166,13.187 172.59,11.25C171.026,9.362 169.062,7.846 166.84,6.81C164.378,5.698 161.701,5.142 159,5.18L142.24,5.18L142.24,46.18L160.69,46.18C163.002,46.197 165.283,45.644 167.33,44.57" style="fill:rgb(58,58,58);fill-rule:nonzero;"/>
    </g>
    <g transform="matrix(1.06838,0,0,1.06838,0,0)">
        <path d="M178.53,34.53L174.69,28.89L164.89,28.89L166.7,31.55L173.62,41.68L173.61,41.69L178.12,48.3L182.71,40.65L178.53,34.53Z" style="fill:rgb(58,58,58);fill-rule:nonzero;"/>
    </g>
    <g transform="matrix(1.06838,0,0,1.06838,0,0)">
        <path d="M177.71,48.58L173.31,42.13L163.66,56.16L173.46,56.16L177.84,48.78L177.71,48.58Z" style="fill:rgb(58,58,58);fill-rule:nonzero;"/>
    </g>
    <g transform="matrix(1.06838,0,0,1.06838,0,0)">
        <path d="M183.02,41.1L178.55,48.56L178.43,48.76L183.49,56.16L193.28,56.16L183.41,41.68L183.02,41.1Z" style="fill:rgb(58,58,58);fill-rule:nonzero;"/>
    </g>
    <g transform="matrix(1.06838,0,0,1.06838,0,0)">
        <path d="M197.68,15.66L178.53,34.53L174.69,28.89L164.89,28.89L178.12,48.3L197.68,15.66Z" style="fill:rgb(58,58,58);fill-rule:nonzero;"/>
    </g>
</svg>
