<?xml version="1.0" encoding="UTF-8" standalone="no"?>
<!DOCTYPE svg PUBLIC "-//W3C//DTD SVG 1.1//EN" "http://www.w3.org/Graphics/SVG/1.1/DTD/svg11.dtd">
<svg width="100%" height="100%" viewBox="0 0 193 60" version="1.1" xmlns="http://www.w3.org/2000/svg" xmlns:xlink="http://www.w3.org/1999/xlink" xml:space="preserve" xmlns:serif="http://www.serif.com/" style="fill-rule:evenodd;clip-rule:evenodd;stroke-linejoin:round;stroke-miterlimit:1.41421;">
    <g id="_-336698ff" serif:id="#336698ff">
        <path d="M77.32,0.413c0.215,-0.219 0.498,-0.387 0.816,-0.362c5.879,0.001 11.759,0.002 17.638,0c0.538,-0.051 1.03,0.437 0.983,0.976c-0.01,0.499 -0.489,0.902 -0.978,0.878c-5.843,0.006 -11.687,-0.002 -17.531,0.004c-0.351,0.027 -0.686,-0.118 -0.928,-0.37l0,-1.126Z" style="fill:#3a3a3a;fill-rule:nonzero;"/>
        <path d="M77.32,3.735c0.219,-0.217 0.502,-0.391 0.823,-0.36c5.878,0.002 11.756,0.001 17.633,0c0.527,-0.048 1.015,0.421 0.981,0.95c0.007,0.509 -0.48,0.929 -0.978,0.905c-5.879,0.003 -11.759,0.003 -17.64,0c-0.316,0.015 -0.6,-0.151 -0.819,-0.367l0,-1.128Z" style="fill:#3a3a3a;fill-rule:nonzero;"/>
        <path d="M77.32,7.068c0.213,-0.22 0.495,-0.379 0.81,-0.366c5.882,-0.002 11.766,-0.001 17.649,0c0.508,-0.029 0.996,0.406 0.978,0.925c0.023,0.519 -0.46,0.971 -0.976,0.93c-5.811,0.003 -11.623,-0.005 -17.435,0.004c-0.381,0.035 -0.769,-0.07 -1.026,-0.366l0,-1.127Z" style="fill:#3a3a3a;fill-rule:nonzero;"/>
    </g>
    <g id="_-000100ff" serif:id="#000100ff">
        <path d="M103.418,2.181c0.91,-1.323 2.525,-2 4.094,-2.068c1.357,-0.047 2.77,0.138 3.97,0.812c-0.16,0.375 -0.328,0.747 -0.487,1.123c-1.15,-0.711 -2.553,-0.954 -3.886,-0.81c-0.976,0.103 -1.962,0.539 -2.551,1.348c-0.95,1.272 -0.8,3.255 0.389,4.326c1.283,1.182 3.062,1.508 4.528,2.384c1.07,0.601 2.057,1.48 2.456,2.674c0.444,1.375 0.339,2.958 -0.405,4.21c-0.61,1.041 -1.66,1.771 -2.804,2.11c-1.707,0.509 -3.563,0.369 -5.229,-0.223c-0.468,-0.163 -0.917,-0.383 -1.321,-0.671c0.166,-0.355 0.329,-0.71 0.497,-1.063c1.422,0.939 3.19,1.348 4.878,1.104c0.923,-0.139 1.841,-0.525 2.475,-1.229c0.648,-0.693 0.933,-1.666 0.883,-2.603c0.005,-1.061 -0.501,-2.1 -1.341,-2.747c-1.251,-1.032 -2.904,-1.302 -4.274,-2.123c-1.025,-0.589 -1.971,-1.439 -2.379,-2.577c-0.458,-1.304 -0.29,-2.836 0.507,-3.977Z" style="fill:#3a3a3a;fill-rule:nonzero;"/>
        <path d="M150.825,3.195c0.428,-0.165 0.859,-0.324 1.287,-0.487c0.002,0.945 0,1.889 0.001,2.833c1.22,0 2.44,-0.001 3.66,0c0,0.353 0,0.704 0,1.057c-1.219,0 -2.44,0 -3.66,0c0.001,2.678 -0.001,5.357 0.001,8.035c0.019,0.672 0.026,1.378 0.334,1.994c0.221,0.453 0.667,0.796 1.175,0.854c0.613,0.061 1.238,0.007 1.832,-0.16c0.05,0.332 0.106,0.661 0.161,0.993c-0.96,0.306 -2.03,0.426 -2.998,0.095c-0.672,-0.224 -1.191,-0.778 -1.441,-1.431c-0.345,-0.872 -0.365,-1.827 -0.352,-2.752c0,-2.542 0,-5.086 0,-7.628c-0.722,0 -1.444,0 -2.165,0c-0.001,-0.353 -0.001,-0.704 0,-1.057c0.721,0 1.442,0 2.164,0c0.001,-0.782 0.001,-1.564 0.001,-2.346Z" style="fill:#3a3a3a;fill-rule:nonzero;"/>
        <path d="M118.505,5.342c1.687,-0.304 3.539,0.061 4.867,1.181c1.275,1.051 1.972,2.666 2.148,4.284c0.171,1.705 -0.05,3.513 -0.957,4.995c-0.796,1.327 -2.15,2.288 -3.649,2.651c-1.672,0.412 -3.546,0.11 -4.923,-0.951c-1.352,-1.013 -2.134,-2.641 -2.344,-4.293c-0.206,-1.722 0.005,-3.55 0.892,-5.067c0.831,-1.453 2.317,-2.507 3.966,-2.8m0.177,1.074c-1.313,0.223 -2.439,1.139 -3.043,2.31c-0.797,1.538 -0.97,3.38 -0.527,5.051c0.34,1.256 1.087,2.441 2.208,3.134c1.122,0.714 2.589,0.811 3.813,0.309c0.922,-0.378 1.688,-1.082 2.213,-1.92c1.048,-1.709 1.189,-3.9 0.505,-5.769c-0.376,-1.05 -1.05,-2.026 -2.016,-2.608c-0.938,-0.565 -2.087,-0.699 -3.153,-0.507Z" style="fill:#3a3a3a;fill-rule:nonzero;"/>
        <path d="M131.434,5.421c1.487,-0.416 3.208,-0.119 4.356,0.947c0.884,0.811 1.318,1.998 1.454,3.167c0.113,1.08 0.065,2.167 0.076,3.252c0,1.846 0.001,3.692 -0.001,5.539c-0.439,-0.001 -0.877,-0.001 -1.314,-0.001c0,-2.36 -0.001,-4.721 0,-7.081c0.021,-1.052 -0.053,-2.145 -0.517,-3.107c-0.342,-0.722 -0.952,-1.327 -1.712,-1.592c-0.994,-0.349 -2.134,-0.265 -3.063,0.234c-1.288,0.675 -2.188,2.065 -2.207,3.529c-0.002,2.672 0,5.345 -0.001,8.017c-0.438,0.001 -0.876,0.001 -1.314,0c-0.001,-2.673 0,-5.347 0,-8.019c-0.007,-1.588 0.039,-3.18 -0.104,-4.765c0.411,0 0.822,0 1.234,0c0.009,0.768 0.052,1.534 0.069,2.301c0.612,-1.194 1.743,-2.095 3.044,-2.421Z" style="fill:#3a3a3a;fill-rule:nonzero;"/>
        <path d="M139.641,6.33c1.396,-0.884 3.115,-1.255 4.75,-1.018c0.94,0.135 1.864,0.579 2.449,1.344c0.714,0.915 0.955,2.103 0.993,3.239c0.005,1.854 0.001,3.709 0.002,5.564c0.02,0.956 0.043,1.917 0.195,2.865c-0.399,0.001 -0.797,0.001 -1.195,0.002c-0.069,-0.615 -0.128,-1.23 -0.191,-1.845c-0.764,1.115 -1.992,1.896 -3.333,2.086c-1.221,0.19 -2.597,-0.029 -3.517,-0.912c-1.21,-1.14 -1.347,-3.102 -0.583,-4.526c0.541,-1.001 1.54,-1.665 2.585,-2.052c1.514,-0.556 3.15,-0.689 4.753,-0.665c0.002,-0.996 -0.071,-2.06 -0.649,-2.91c-0.437,-0.666 -1.208,-1.041 -1.984,-1.132c-1.343,-0.146 -2.746,0.154 -3.865,0.924c-0.141,-0.32 -0.278,-0.641 -0.41,-0.964m2.173,5.894c-0.788,0.377 -1.456,1.076 -1.639,1.95c-0.206,0.979 -0.013,2.141 0.796,2.803c0.785,0.648 1.896,0.653 2.836,0.41c1.532,-0.382 2.817,-1.853 2.741,-3.471c-0.004,-0.807 -0.001,-1.613 -0.003,-2.42c-1.596,-0.025 -3.263,0.03 -4.731,0.728Z" style="fill:#3a3a3a;fill-rule:nonzero;"/>
        <path d="M173.507,5.552c1.722,-0.577 3.772,-0.386 5.205,0.788c1.385,1.102 2.087,2.861 2.223,4.589c0.131,1.704 -0.109,3.495 -0.988,4.986c-0.653,1.125 -1.715,2.013 -2.954,2.42c-1.568,0.514 -3.39,0.371 -4.78,-0.554c-0.6,-0.39 -1.07,-0.947 -1.44,-1.553c0.001,2.46 0,4.919 0,7.38c-0.43,0 -0.86,0 -1.288,0c0,-4.709 -0.001,-9.417 0.001,-14.127c-0.033,-1.313 -0.028,-2.627 -0.116,-3.94c0.415,0 0.828,0 1.243,0c0.035,0.815 0.055,1.629 0.087,2.444c0.612,-1.107 1.593,-2.034 2.807,-2.433m0.755,0.888c-0.819,0.192 -1.584,0.622 -2.16,1.235c-0.941,0.959 -1.376,2.339 -1.33,3.666c0.006,0.69 -0.005,1.38 0.003,2.068c0.016,1.481 0.921,2.889 2.21,3.595c1.178,0.644 2.655,0.702 3.888,0.173c0.923,-0.39 1.648,-1.158 2.086,-2.049c0.594,-1.202 0.768,-2.576 0.687,-3.902c-0.115,-1.532 -0.712,-3.122 -1.967,-4.077c-0.954,-0.74 -2.249,-0.974 -3.417,-0.709Z" style="fill:#3a3a3a;fill-rule:nonzero;"/>
        <path d="M184.158,6.628c1.289,-1.219 3.205,-1.633 4.916,-1.256c1.141,0.238 2.154,0.977 2.755,1.972c0.806,1.323 1.081,2.925 0.948,4.455c-3.151,0.013 -6.302,0 -9.453,0.007c0.03,1.334 0.248,2.727 1.034,3.841c0.732,1.077 1.996,1.71 3.277,1.81c1.395,0.086 2.841,-0.066 4.104,-0.699c0.118,0.34 0.228,0.682 0.332,1.028c-1.339,0.661 -2.862,0.839 -4.339,0.811c-1.603,-0.044 -3.214,-0.727 -4.234,-1.987c-1.187,-1.423 -1.552,-3.362 -1.414,-5.171c0.113,-1.77 0.735,-3.592 2.074,-4.811m1.099,0.511c-1.099,0.879 -1.643,2.272 -1.845,3.63c2.679,0.009 5.357,0.001 8.036,0.004c0.014,-1.009 -0.2,-2.045 -0.748,-2.904c-0.44,-0.693 -1.147,-1.21 -1.946,-1.404c-1.185,-0.292 -2.533,-0.112 -3.497,0.674Z" style="fill:#3a3a3a;fill-rule:nonzero;"/>
        <path d="M156.991,5.542c0.464,-0.002 0.928,-0.002 1.391,0c0.794,1.988 1.597,3.972 2.389,5.961c0.699,1.697 1.382,3.403 1.907,5.163c0.634,-1.982 1.404,-3.918 2.129,-5.868c0.662,-1.752 1.316,-3.506 1.98,-5.257c0.464,0 0.927,-0.001 1.391,0.001c-1.481,3.695 -2.978,7.384 -4.448,11.083c-0.723,1.742 -1.455,3.51 -2.581,5.039c-0.846,1.156 -2.035,2.047 -3.37,2.563l-0.004,0c-0.145,-0.363 -0.28,-0.73 -0.408,-1.099c0.878,-0.35 1.695,-0.867 2.361,-1.541c0.878,-0.925 1.572,-2.023 2.05,-3.205c0.13,-0.279 0.122,-0.594 -0.003,-0.873c-1.59,-3.99 -3.193,-7.977 -4.784,-11.967Z" style="fill:#3a3a3a;fill-rule:nonzero;"/>
        <path d="M77.32,10.287c0.217,-0.217 0.5,-0.379 0.815,-0.363c5.849,-0.004 11.697,0.003 17.545,-0.004c0.317,-0.015 0.651,0.082 0.856,0.336c0.342,0.368 0.275,1.012 -0.117,1.317c-0.323,0.278 -0.777,0.195 -1.167,0.208c-5.46,-0.006 -10.92,-0.003 -16.379,-0.002c-0.533,-0.004 -1.169,0.103 -1.553,-0.361l0,-1.131Z" style="fill:#3a3a3a;fill-rule:nonzero;"/>
        <path d="M77.32,13.448c0.22,-0.211 0.498,-0.381 0.815,-0.356c5.885,0.002 11.768,0 17.653,0.002c0.477,-0.035 0.935,0.343 0.964,0.826c0.083,0.548 -0.424,1.055 -0.965,1.025c-5.849,0.009 -11.697,-0.001 -17.545,0.006c-0.35,0.03 -0.666,-0.131 -0.922,-0.355l0,-1.148Z" style="fill:#3a3a3a;fill-rule:nonzero;"/>
        <path d="M77.32,16.703c0.233,-0.264 0.57,-0.412 0.923,-0.39c5.811,0.001 11.621,0.001 17.431,0c0.315,-0.001 0.657,0.078 0.861,0.336c0.341,0.374 0.279,1.015 -0.117,1.323c-0.292,0.247 -0.698,0.224 -1.057,0.228c-5.705,-0.009 -11.412,-0.001 -17.117,-0.004c-0.351,0.014 -0.692,-0.12 -0.924,-0.386l0,-1.107Z" style="fill:#3a3a3a;fill-rule:nonzero;"/>
    </g>
    <path d="M15.826,23.916c-8.712,0 -15.567,6.908 -15.567,18.299c0,10.825 6.598,17.578 15.154,17.578c8.041,0 15.516,-6.031 15.516,-18.299c0,-10.773 -6.341,-17.578 -15.103,-17.578Zm-0.155,2.062c8.711,0 12.732,8.351 12.732,15.67c0,8.609 -4.588,16.083 -12.835,16.083c-8.248,0 -12.784,-7.784 -12.784,-15.619c0,-8.092 4.073,-16.134 12.887,-16.134Z" style="fill:#3a3a3a;fill-rule:nonzero;"/>
    <path d="M33.506,57.422c1.804,1.34 5.309,2.319 8.299,2.319c7.423,0 11.031,-4.484 11.031,-9.536c0,-5.206 -3.041,-7.783 -8.763,-10.103c-5,-1.959 -7.216,-3.918 -7.216,-7.784c0,-2.731 1.907,-6.34 7.525,-6.34c2.99,0 5.206,0.98 6.134,1.65l0.928,-2.062c-1.185,-0.773 -3.66,-1.65 -6.907,-1.65c-5.876,0 -10.103,3.712 -10.103,8.815c0,4.742 3.35,7.629 8.969,9.587c5,1.959 7.01,4.227 7.01,8.145c0,4.278 -3.196,7.216 -8.35,7.216c-2.938,0 -5.67,-0.979 -7.629,-2.319l-0.928,2.062Z" style="fill:#3a3a3a;fill-rule:nonzero;"/>
    <path d="M55.877,57.422c1.804,1.34 5.309,2.319 8.299,2.319c7.423,0 11.031,-4.484 11.031,-9.536c0,-5.206 -3.041,-7.783 -8.763,-10.103c-5,-1.959 -7.216,-3.918 -7.216,-7.784c0,-2.731 1.907,-6.34 7.525,-6.34c2.99,0 5.207,0.98 6.134,1.65l0.928,-2.062c-1.185,-0.773 -3.66,-1.65 -6.907,-1.65c-5.876,0 -10.103,3.712 -10.103,8.815c0,4.742 3.35,7.629 8.969,9.587c5,1.959 7.01,4.227 7.01,8.145c0,4.278 -3.196,7.216 -8.35,7.216c-2.938,0 -5.67,-0.979 -7.629,-2.319l-0.928,2.062Z" style="fill:#3a3a3a;fill-rule:nonzero;"/>
    <rect x="90.052" y="24.483" width="2.423" height="34.742" style="fill:#3a3a3a;fill-rule:nonzero;"/>
    <path d="M100.104,59.226l2.423,0l0,-15.31c0,-0.773 0.154,-1.598 0.36,-2.216c0.98,-3.196 3.918,-5.67 7.423,-5.67c5.103,0 6.856,4.072 6.856,8.557l0,14.639l2.422,0l0,-14.846c0,-9.278 -6.237,-10.464 -8.608,-10.464c-4.072,0 -7.165,2.268 -8.505,5.052l-0.103,0l-0.206,-4.485l-2.268,0c0.103,1.959 0.206,3.66 0.206,5.928l0,18.815Z" style="fill:#3a3a3a;fill-rule:nonzero;"/>
    <path d="M143.454,22.628l0,15.618l-0.103,0c-1.134,-2.113 -3.814,-4.33 -8.092,-4.33c-6.083,0 -11.186,5.155 -11.134,13.402c0,7.372 4.587,12.475 10.67,12.475c4.587,0 7.525,-2.526 8.814,-5.258l0.103,0l0.155,4.691l2.216,0c-0.103,-1.753 -0.206,-3.918 -0.206,-5.774l0,-30.824l-2.423,0Zm0,26.598c0,0.773 -0.103,1.391 -0.257,2.062c-1.083,4.123 -4.382,6.443 -7.938,6.443c-5.877,0 -8.66,-5.103 -8.66,-10.67c0,-6.444 3.402,-11.134 8.814,-11.134c4.021,0 6.907,2.783 7.784,6.082c0.154,0.67 0.257,1.598 0.257,2.268l0,4.949Z" style="fill:#3a3a3a;fill-rule:nonzero;"/>
    <path d="M171.289,46.597c0.104,-0.413 0.104,-0.825 0.104,-1.495c0,-3.557 -1.547,-11.186 -9.64,-11.186c-6.391,0 -11.134,5.155 -11.134,13.402c0,7.269 4.433,12.423 11.547,12.423c4.33,0 6.855,-1.031 7.783,-1.546l-0.618,-1.959c-1.392,0.67 -3.248,1.392 -6.856,1.392c-5.103,0 -9.433,-3.093 -9.433,-11.031l18.247,0Zm-18.092,-1.959c0.412,-3.814 2.783,-8.711 8.247,-8.711c5.98,0 7.423,5.257 7.371,8.711l-15.618,0Z" style="fill:#3a3a3a;fill-rule:nonzero;"/>
    <path d="M173.042,34.483l8.557,12.114l-9.072,12.629l2.783,0l4.33,-6.289c1.186,-1.649 2.165,-3.041 3.093,-4.639l0.103,0c1.031,1.598 2.01,3.093 3.093,4.639l4.433,6.289l2.783,0l-8.917,-12.681l8.608,-12.062l-2.732,0l-4.227,6.031c-0.979,1.392 -1.907,2.732 -2.886,4.227l-0.104,0c-0.927,-1.495 -1.752,-2.783 -2.835,-4.227l-4.226,-6.031l-2.784,0Z" style="fill:#3a3a3a;fill-rule:nonzero;"/>
</svg>
