<?xml version="1.0" encoding="UTF-8" standalone="no"?>
<!DOCTYPE svg PUBLIC "-//W3C//DTD SVG 1.1//EN" "http://www.w3.org/Graphics/SVG/1.1/DTD/svg11.dtd">
<svg width="100%" height="100%" viewBox="0 0 192 60" version="1.1" xmlns="http://www.w3.org/2000/svg" xmlns:xlink="http://www.w3.org/1999/xlink" xml:space="preserve" xmlns:serif="http://www.serif.com/" style="fill-rule:evenodd;clip-rule:evenodd;stroke-linejoin:round;stroke-miterlimit:1.41421;">
    <g transform="matrix(0.107948,0,0,0.107948,-11.9973,-12.0027)">
        <path d="M111.14,111.2C259.25,111.2 407.36,111.18 555.46,111.2C555.44,259.35 555.46,407.49 555.45,555.64C518.48,555.64 481.51,555.64 444.54,555.63C444.52,444.49 444.6,333.35 444.51,222.2C407.43,222.21 370.34,222.19 333.26,222.21C333.24,333.34 333.24,444.48 333.26,555.61C259.22,555.68 185.19,555.62 111.15,555.63C111.13,407.49 111.15,259.34 111.14,111.2Z" style="fill:rgb(58,58,58);fill-rule:nonzero;"/>
    </g>
    <g transform="matrix(0.107948,0,0,0.107948,-11.9973,-12.0027)">
        <path d="M666.77,111.19C814.86,111.2 962.96,111.19 1111.06,111.2C1111.09,227.47 1111.06,343.74 1111.07,460.01C1110.99,491.91 1111.24,523.81 1110.95,555.7C1036.92,555.57 962.89,555.66 888.87,555.65C888.85,592.7 888.87,629.75 888.86,666.81C814.83,666.8 740.8,666.81 666.77,666.81C666.74,481.6 666.75,296.4 666.77,111.19M888.88,222.2C888.78,296.31 888.98,370.41 888.78,444.52C925.83,444.88 962.91,444.55 999.98,444.68C1000.02,370.52 1000,296.36 999.99,222.2C962.95,222.21 925.92,222.2 888.88,222.2Z" style="fill:rgb(58,58,58);fill-rule:nonzero;"/>
    </g>
    <g transform="matrix(0.107948,0,0,0.107948,-11.9973,-12.0027)">
        <path d="M1222.29,111.2C1444.48,111.19 1666.67,111.2 1888.86,111.2C1888.85,259.34 1888.87,407.49 1888.85,555.64C1851.9,555.69 1814.94,555.55 1777.99,555.7C1777.66,503.81 1777.94,451.9 1777.85,400C1777.84,340.74 1777.86,281.48 1777.84,222.22C1740.77,222.18 1703.69,222.22 1666.62,222.2C1666.53,333.34 1666.61,444.49 1666.58,555.64C1629.6,555.63 1592.62,555.66 1555.65,555.62C1555.66,444.49 1555.67,333.35 1555.64,222.22C1518.55,222.19 1481.45,222.2 1444.36,222.22C1444.33,333.35 1444.34,444.49 1444.35,555.62C1370.33,555.66 1296.31,555.64 1222.29,555.63C1222.28,407.49 1222.29,259.34 1222.29,111.2Z" style="fill:rgb(58,58,58);fill-rule:nonzero;"/>
    </g>
</svg>
