<?xml version="1.0" encoding="UTF-8" standalone="no"?>
<!DOCTYPE svg PUBLIC "-//W3C//DTD SVG 1.1//EN" "http://www.w3.org/Graphics/SVG/1.1/DTD/svg11.dtd">
<svg width="100%" height="100%" viewBox="0 0 167 60" version="1.1" xmlns="http://www.w3.org/2000/svg" xmlns:xlink="http://www.w3.org/1999/xlink" xml:space="preserve" xmlns:serif="http://www.serif.com/" style="fill-rule:evenodd;clip-rule:evenodd;stroke-linejoin:round;stroke-miterlimit:1.41421;">
    <g id="_-217df8ff" serif:id="#217df8ff" transform="matrix(0.392046,0,0,0.392046,0,0)">
        <path d="M73.22,0L73.71,0C75.81,2.94 78.5,5.36 81.04,7.9C102.06,28.9 123.06,49.93 144.09,70.92C145.39,72.33 146.9,73.92 146.81,75.99C147.28,80.04 143.27,82.29 140.96,84.93C118.54,107.49 96.15,130.06 73.56,152.46C50.91,129.79 28.26,107.12 5.58,84.48C3.43,82.19 0.47,80.19 0,76.84L0,75.52C1.17,71.62 4.79,69.34 7.39,66.46C27.82,45.85 48.28,25.28 68.89,4.85C70.45,3.34 71.98,1.79 73.22,0M51.45,76.57C58.82,83.86 66.03,91.31 73.5,98.5C80.76,91.11 88.05,83.76 95.46,76.51C88.24,68.99 80.84,61.63 73.35,54.39C66.27,61.99 58.7,69.13 51.45,76.57Z" style="fill:rgb(58,58,58);fill-rule:nonzero;"/>
    </g>
    <g transform="matrix(0.392046,0,0,0.392046,0,0)">
        <path d="M260.48,12.65C265.19,11.52 271.16,13.18 273.15,17.97C275.06,22.6 274.35,28.91 270,31.95C265.93,34.47 260.26,34.41 256.39,31.53C250.1,26.52 252.03,14.07 260.48,12.65Z" style="fill:rgb(58,58,58);fill-rule:nonzero;"/>
    </g>
    <g transform="matrix(0.392046,0,0,0.392046,0,0)">
        <path d="M218.5,18.5C223.87,18.47 229.25,18.58 234.62,18.41C234.94,44.93 234.65,71.47 234.76,97.99C234.82,107.7 233.22,118.15 226.76,125.8C221.48,132.16 213.04,134.99 204.96,135.02C197.95,135.29 190.92,134.35 184.24,132.17C184.25,126.94 184.24,121.71 184.25,116.48C190.19,118.74 196.61,119.83 202.96,119.45C207.4,119.14 212.09,117.51 214.85,113.83C217.38,110.47 218.46,106.22 218.5,102.06C218.5,74.21 218.49,46.35 218.5,18.5Z" style="fill:rgb(58,58,58);fill-rule:nonzero;"/>
    </g>
    <g transform="matrix(0.392046,0,0,0.392046,0,0)">
        <path d="M316.81,50.77C323.23,45.69 331.79,44.28 339.77,44.92C339.75,49.92 339.71,54.92 339.81,59.92C332.25,59.27 324.04,59.2 317.33,63.24C311.56,66.64 308.89,73.56 308.76,80.01C308.69,98.19 308.86,116.37 308.68,134.55C303.62,134.47 298.56,134.51 293.5,134.5C293.54,105.07 293.41,75.64 293.57,46.21C298.62,46.28 303.69,46.24 308.75,46.25C308.78,50.87 308.68,55.49 308.84,60.11C311.26,56.82 313.48,53.25 316.81,50.77Z" style="fill:rgb(58,58,58);fill-rule:nonzero;"/>
    </g>
    <g transform="matrix(0.392046,0,0,0.392046,0,0)">
        <path d="M354.82,57.87C363.77,45.05 381.98,41.2 396.09,46.94C402.56,49.57 407.46,54.99 410.57,61.13C410.46,56.16 410.47,51.19 410.55,46.22C415.61,46.27 420.68,46.24 425.75,46.25C425.68,75.69 425.9,105.14 425.64,134.57C420.59,134.44 415.55,134.52 410.5,134.5C410.5,129.37 410.47,124.24 410.53,119.11C407.01,125.88 401.17,131.48 393.9,134C382.31,138.07 368.16,136.73 358.89,128.16C350.31,120.19 346.71,108.3 345.77,96.93C344.67,83.47 346.7,69.02 354.82,57.87M380.22,59.32C374.92,60.36 369.93,63.29 366.78,67.73C362.77,73.28 361.35,80.25 361.01,86.97C360.74,95.47 361.27,104.52 365.76,111.99C368.53,116.78 373.47,120.07 378.84,121.2C387.65,123.01 397.79,120.88 403.83,113.85C409.64,107.43 410.78,98.32 410.52,90C410.74,81.45 409.5,72.1 403.43,65.59C397.65,59.27 388.33,57.61 380.22,59.32Z" style="fill:rgb(58,58,58);fill-rule:nonzero;"/>
    </g>
    <g transform="matrix(0.392046,0,0,0.392046,0,0)">
        <path d="M255.44,46.34C260.61,46.15 265.79,46.3 270.97,46.22C271.04,75.65 270.98,105.07 271,134.5C265.83,134.51 260.67,134.5 255.5,134.5C255.45,105.11 255.58,75.72 255.44,46.34Z" style="fill:rgb(58,58,58);fill-rule:nonzero;"/>
    </g>
</svg>
