<?xml version="1.0" encoding="UTF-8" standalone="no"?>
<!DOCTYPE svg PUBLIC "-//W3C//DTD SVG 1.1//EN" "http://www.w3.org/Graphics/SVG/1.1/DTD/svg11.dtd">
<svg width="100%" height="100%" viewBox="0 0 186 60" version="1.1" xmlns="http://www.w3.org/2000/svg" xmlns:xlink="http://www.w3.org/1999/xlink" xml:space="preserve" xmlns:serif="http://www.serif.com/" style="fill-rule:evenodd;clip-rule:evenodd;stroke-linejoin:round;stroke-miterlimit:1.41421;">
    <g id="_-f0a335ff" serif:id="#f0a335ff" transform="matrix(0.275734,0,0,0.275734,-30.4411,-37.5246)">
        <path d="M166.91,138.31C172.54,137.16 178.22,136.07 183.98,136.09C235.46,136.11 286.94,136.1 338.41,136.1C338.38,154.62 338.39,173.14 338.41,191.66C327.34,191.67 316.27,191.66 305.21,191.66C305.23,184.27 305.11,176.88 305.31,169.49C264.2,169.29 223.08,169.42 181.97,169.42C161.81,169.81 144.02,187.73 143.7,207.88C143.63,245.31 143.65,282.75 143.69,320.19C184.47,320.21 225.26,320.23 266.04,320.18C280,319.94 293.07,311.66 300.06,299.72C311.97,299.71 323.87,299.69 335.77,299.73C331.63,314.09 323.23,327.24 311.61,336.69C298.37,347.57 281.2,353.82 264.01,353.3C212.81,353.27 161.6,353.3 110.4,353.28C110.61,304.54 110.4,255.8 110.5,207.06C110.97,192.09 116.17,177.27 125.3,165.39C135.54,151.99 150.39,141.99 166.91,138.31Z" style="fill:rgb(58,58,58);fill-rule:nonzero;"/>
    </g>
    <g transform="matrix(0.275734,0,0,0.275734,-30.4411,-37.5246)">
        <path d="M165.76,184.81C171.26,180.72 178.15,178.75 184.97,178.81C222.04,178.85 259.1,178.81 296.17,178.83C296.17,183.33 296.15,187.83 296.23,192.32C285.86,194.74 276.64,201.48 271.56,210.89C246.37,210.91 221.17,210.81 195.99,210.93C191.18,210.76 186.57,214.26 185.69,219.02C184.9,223.74 185.41,228.55 185.3,233.3C212.75,233.3 240.19,233.3 267.63,233.3C267.54,243.66 267.55,254.02 267.63,264.38C240.18,264.39 212.72,264.35 185.26,264.4C185.31,280.15 185.3,295.9 185.27,311.65C174.6,311.62 163.93,311.67 153.25,311.62C153.36,277.39 153.28,243.15 153.29,208.92C153.28,199.49 158.16,190.32 165.76,184.81Z" style="fill:rgb(58,58,58);fill-rule:nonzero;"/>
    </g>
    <g transform="matrix(0.275734,0,0,0.275734,-30.4411,-37.5246)">
        <path d="M275.93,225.99C276.26,211.89 288.94,199.59 303.03,199.64C324.88,199.59 346.73,199.65 368.57,199.61C368.59,221.1 368.57,242.58 368.59,264.07C368.79,276.05 360.29,287.55 348.76,290.85C344.3,292.24 339.58,291.85 334.99,291.89C315.26,291.87 295.54,291.89 275.82,291.88C275.91,269.92 275.68,247.95 275.93,225.99M294.58,227.03C294.39,242.49 294.63,257.95 294.47,273.42C309.99,273.39 325.52,273.49 341.04,273.38C346.02,273.54 350.06,268.91 349.9,264.07C349.97,248.79 349.9,233.51 349.92,218.23C334.61,218.26 319.3,218.2 303.99,218.25C299.11,217.98 294.58,222.1 294.58,227.03Z" style="fill:rgb(58,58,58);fill-rule:nonzero;"/>
    </g>
    <g transform="matrix(0.275734,0,0,0.275734,-30.4411,-37.5246)">
        <path d="M378.33,291.9C378.41,261.12 378.3,230.34 378.39,199.56C400.25,199.71 422.12,199.56 443.98,199.63C453.08,199.72 461.8,204.84 466.71,212.45C473.62,223.01 471.95,238.14 462.93,246.97C457.18,252.96 448.79,255.52 440.63,255.3C450.89,267.4 460.94,279.68 471.02,291.94C462.92,291.86 454.82,291.83 446.72,291.94C436.5,279.72 426.42,267.39 416.22,255.16C409.79,255.18 403.36,255.17 396.93,255.17C396.92,267.41 396.98,279.66 396.9,291.9C390.71,291.88 384.52,291.87 378.33,291.9M396.93,218.23C396.95,224.33 396.89,230.43 396.99,236.52C412.01,236.58 427.04,236.55 442.06,236.55C446.02,236.65 450.25,234.55 451.76,230.73C454.12,225.37 449.9,218.47 444.01,218.3C428.32,218.12 412.62,218.29 396.93,218.23Z" style="fill:rgb(58,58,58);fill-rule:nonzero;"/>
    </g>
    <g transform="matrix(0.275734,0,0,0.275734,-30.4411,-37.5246)">
        <path d="M473.39,218.26C473.43,212.03 473.41,205.8 473.42,199.57C502.53,199.7 531.65,199.56 560.76,199.64C560.65,205.84 560.71,212.03 560.7,218.23C549.2,218.22 537.7,218.27 526.2,218.2C526.16,242.76 526.14,267.32 526.21,291.88C520.02,291.89 513.84,291.86 507.65,291.91C507.6,267.34 507.6,242.78 507.66,218.22C496.24,218.27 484.81,218.19 473.39,218.26Z" style="fill:rgb(58,58,58);fill-rule:nonzero;"/>
    </g>
    <g transform="matrix(0.275734,0,0,0.275734,-30.4411,-37.5246)">
        <path d="M568.56,199.58C574.69,199.65 580.83,199.62 586.96,199.62C586.79,230.38 586.91,261.14 586.9,291.9C580.79,291.89 574.69,291.83 568.59,291.95C568.51,261.16 568.56,230.37 568.56,199.58Z" style="fill:rgb(58,58,58);fill-rule:nonzero;"/>
    </g>
    <g transform="matrix(0.275734,0,0,0.275734,-30.4411,-37.5246)">
        <path d="M602.78,204.84C606.97,200.6 613.25,199.71 618.95,199.63C641.66,199.6 664.37,199.63 687.09,199.62C687.05,205.82 687.07,212.03 687.08,218.23C666.36,218.25 645.65,218.21 624.93,218.24C621.46,218.11 617.58,219.88 616.63,223.47C615.71,227.76 616.32,232.2 616.12,236.55C636.26,236.54 656.4,236.59 676.54,236.52C676.5,242.74 676.52,248.95 676.51,255.16C656.38,255.19 636.24,255.14 616.11,255.19C616.22,267.42 616.19,279.65 616.13,291.88C609.91,291.89 603.7,291.86 597.49,291.91C597.46,268.61 597.49,245.3 597.48,222C597.53,215.98 598.32,209.31 602.78,204.84Z" style="fill:rgb(58,58,58);fill-rule:nonzero;"/>
    </g>
    <g transform="matrix(0.275734,0,0,0.275734,-30.4411,-37.5246)">
        <path d="M689.8,199.63C698.92,199.61 708.05,199.63 717.18,199.62C723.74,211.4 729.98,223.36 736.61,235.11C742.85,223.31 749.02,211.48 755.22,199.65C764.39,199.57 773.56,199.67 782.73,199.59C771.13,218.1 759.95,236.87 748.39,255.4C747.34,257.08 746.24,258.87 746.44,260.95C746.41,271.27 746.49,281.59 746.43,291.91C739.85,291.87 733.27,291.86 726.7,291.92C726.74,282.61 726.66,273.3 726.75,264C726.68,261.51 727.06,258.78 725.47,256.66C713.55,237.67 701.71,218.63 689.8,199.63Z" style="fill:rgb(58,58,58);fill-rule:nonzero;"/>
    </g>
</svg>
