<?xml version="1.0" encoding="UTF-8" standalone="no"?>
<!DOCTYPE svg PUBLIC "-//W3C//DTD SVG 1.1//EN" "http://www.w3.org/Graphics/SVG/1.1/DTD/svg11.dtd">
<svg width="100%" height="100%" viewBox="0 0 211 60" version="1.1" xmlns="http://www.w3.org/2000/svg" xmlns:xlink="http://www.w3.org/1999/xlink" xml:space="preserve" xmlns:serif="http://www.serif.com/" style="fill-rule:evenodd;clip-rule:evenodd;stroke-linejoin:round;stroke-miterlimit:1.41421;">
    <g transform="matrix(0.474092,0,0,0.474092,-29.4681,-33.5611)">
        <path d="M263.5,105.5C267.4,107.2 267.7,108.5 264.6,114.3C261.5,120.3 260.7,120.6 256.9,119.1C252.1,117 245.9,115.5 241.9,115.5C235.4,115.5 231,117.8 231,121.4C231,133.1 268.4,126.8 268.4,151.8C268.4,164.4 257.6,172.8 241.4,172.8C232.9,172.8 222.4,170 215.1,166.3C211.5,164.5 211.3,163.4 214.4,157.4C217.1,152.1 218,151.6 221.9,153.2C228.1,155.9 235.9,158 241.2,158C247.2,158 251.1,155.6 251.1,152C251.1,140.6 213,146 213,121.8C213,108.9 223.7,100.3 239.8,100.3C247.4,100.2 256.9,102.5 263.5,105.5Z" style="fill:rgb(58,58,58);fill-rule:nonzero;"/>
        <path d="M293.7,75.8L293.7,169C293.7,170.4 292.2,171.9 290.1,171.9L280.3,171.9C278.2,171.9 276.7,170.4 276.7,169L276.7,75.8C276.7,71.2 278,70.8 285.2,70.8C293.4,70.7 293.7,71.3 293.7,75.8Z" style="fill:rgb(58,58,58);fill-rule:nonzero;"/>
        <path d="M363.4,128.2L363.4,168.3C363.4,170.4 361.9,171.9 359.8,171.9L350.1,171.9C347.9,171.9 346.3,170.3 346.5,168.1L346.6,163.8C341.3,169.6 333.8,172.7 326.3,172.7C311.7,172.7 301.9,164.2 301.9,151.6C301.9,138.2 313,129.1 329.6,129.1C335.9,129.1 341.7,130.2 346.4,132.2L346.4,127.6C346.4,120.2 340.6,115.8 330.7,115.8C326.1,115.8 320.4,117.6 315.9,120.3C312.4,122.3 311.6,122.1 307.8,116.5C304.1,110.9 304.2,109.8 307.8,107.5C314.6,103.1 323.9,100.3 332.4,100.3C351.4,100.2 363.4,110.6 363.4,128.2ZM318.2,151.4C318.2,156.2 322.2,159.4 328.4,159.4C335.8,159.4 342.5,155.8 346.4,149.8L346.4,143.5C342.5,142 337.7,141.2 333.5,141.2C324.3,141.2 318.2,145.5 318.2,151.4Z" style="fill:rgb(58,58,58);fill-rule:nonzero;"/>
        <path d="M429.9,105.6C433.5,107.7 433.6,108.8 429.7,114.8C426,120.5 425.4,120.8 421.5,118.8C418.5,117.2 413.8,115.9 409.8,115.9C397.5,115.9 389.3,124 389.3,136.2C389.3,148.9 397.5,157.4 409.8,157.4C414.1,157.4 419.4,155.8 422.9,153.8C426.5,151.7 427.2,151.9 431,157.4C434.4,162.5 434.3,163.7 431.3,165.9C425.8,169.7 417.2,172.6 409.6,172.6C386.9,172.6 371.7,158 371.7,136.2C371.7,114.5 386.9,100.1 409.8,100.1C416.6,100.2 424.8,102.6 429.9,105.6Z" style="fill:rgb(58,58,58);fill-rule:nonzero;"/>
        <path d="M504.1,163.1C506.9,166.7 505.8,168 498.7,170.6C491.5,173.2 490.5,173.1 487.9,169.7L467.6,142.6L458.5,151.4L458.5,169C458.5,170.4 457,171.9 454.9,171.9L445,171.9C442.9,171.9 441.4,170.4 441.4,169L441.4,75.8C441.4,71.2 442.7,70.8 449.9,70.8C458.1,70.8 458.4,71.4 458.4,75.8L458.4,128.8L486.2,102.1C489.3,99.2 491,99.4 496.4,103C502.4,106.9 502.9,108 500,110.8L479.3,131L504.1,163.1Z" style="fill:rgb(58,58,58);fill-rule:nonzero;"/>
    </g>
    <g transform="matrix(0.474092,0,0,0.474092,-29.4681,-33.5611)">
        <g transform="matrix(0.9482,-0.3176,0.3176,0.9482,-36.3568,46.5912)">
            <rect x="115.9" y="126.3" width="17.6" height="17" style="fill:rgb(58,58,58);"/>
        </g>
        <g>
            <g transform="matrix(0.9482,-0.3176,0.3176,0.9482,-36.3568,46.5912)">
                <rect x="115.9" y="126.3" width="17.6" height="17" style="fill:rgb(58,58,58);"/>
            </g>
            <path d="M182,117.5C169.1,74.5 150.5,64.5 107.5,77.4C64.5,90.3 54.5,108.9 67.4,151.9C80.3,194.9 98.9,204.9 141.9,192C184.9,179.1 194.9,160.5 182,117.5ZM160.3,145.4L152.2,148.1L155,156.5C156.1,159.9 154.3,163.6 150.9,164.7C150.2,164.9 149.4,165.1 148.7,165C146.1,164.9 143.6,163.2 142.7,160.6L139.9,152.2L123.2,157.8L126,166.2C127.1,169.6 125.3,173.3 121.9,174.4C121.2,174.6 120.4,174.8 119.7,174.7C117.1,174.6 114.6,172.9 113.7,170.3L110.9,161.9L102.8,164.6C102.1,164.8 101.3,165 100.6,164.9C98,164.8 95.5,163.1 94.6,160.5C93.5,157.1 95.3,153.4 98.7,152.3L106.8,149.6L101.4,133.5L93.3,136.2C92.6,136.4 91.8,136.6 91.1,136.5C88.5,136.4 86,134.7 85.1,132.1C84,128.7 85.8,125 89.2,123.9L97.3,121.2L94.5,112.8C93.4,109.4 95.2,105.7 98.6,104.6C102,103.5 105.7,105.3 106.8,108.7L109.6,117.1L126.3,111.5L123.5,103.1C122.4,99.7 124.2,96 127.6,94.9C131,93.8 134.7,95.6 135.8,99L138.6,107.4L146.7,104.7C150.1,103.6 153.8,105.4 154.9,108.8C156,112.2 154.2,115.9 150.8,117L142.7,119.7L148.1,135.8L156.2,133.1C159.6,132 163.3,133.8 164.4,137.2C165.5,140.6 163.7,144.3 160.3,145.4Z" style="fill:rgb(58,58,58);fill-rule:nonzero;"/>
        </g>
    </g>
</svg>
