<?xml version="1.0" encoding="UTF-8" standalone="no"?>
<!DOCTYPE svg PUBLIC "-//W3C//DTD SVG 1.1//EN" "http://www.w3.org/Graphics/SVG/1.1/DTD/svg11.dtd">
<svg width="100%" height="100%" viewBox="0 0 170 60" version="1.1" xmlns="http://www.w3.org/2000/svg" xmlns:xlink="http://www.w3.org/1999/xlink" xml:space="preserve" xmlns:serif="http://www.serif.com/" style="fill-rule:evenodd;clip-rule:evenodd;stroke-linejoin:round;stroke-miterlimit:2;">
    <g transform="matrix(1,0,0,1,-58.1409,11.2727)">
        <g transform="matrix(36,0,0,36,58.2362,44.6714)">
            <path d="M0.383,0.012C0.582,0.012 0.724,-0.134 0.724,-0.333C0.724,-0.532 0.582,-0.678 0.383,-0.678C0.183,-0.678 0.042,-0.532 0.042,-0.333C0.042,-0.134 0.183,0.012 0.383,0.012ZM0.383,-0.092C0.248,-0.092 0.162,-0.196 0.162,-0.333C0.162,-0.471 0.248,-0.574 0.383,-0.574C0.517,-0.574 0.604,-0.471 0.604,-0.333C0.604,-0.196 0.517,-0.092 0.383,-0.092Z" style="fill:#3a3a3a;fill-rule:nonzero;"/>
        </g>
        <g transform="matrix(36,0,0,36,85.7762,44.6714)">
            <path d="M0.3,0.012C0.479,0.012 0.558,-0.084 0.558,-0.195C0.558,-0.443 0.17,-0.366 0.17,-0.491C0.17,-0.54 0.214,-0.574 0.282,-0.574C0.352,-0.574 0.423,-0.55 0.476,-0.497L0.542,-0.584C0.481,-0.644 0.396,-0.678 0.293,-0.678C0.146,-0.678 0.05,-0.593 0.05,-0.482C0.05,-0.237 0.438,-0.324 0.438,-0.184C0.438,-0.139 0.401,-0.092 0.305,-0.092C0.212,-0.092 0.139,-0.136 0.094,-0.185L0.028,-0.094C0.088,-0.032 0.177,0.012 0.3,0.012Z" style="fill:#3a3a3a;fill-rule:nonzero;"/>
        </g>
        <g transform="matrix(36,0,0,36,107.16,44.6714)">
            <path d="M0.3,0.012C0.479,0.012 0.558,-0.084 0.558,-0.195C0.558,-0.443 0.17,-0.366 0.17,-0.491C0.17,-0.54 0.214,-0.574 0.282,-0.574C0.352,-0.574 0.423,-0.55 0.476,-0.497L0.542,-0.584C0.481,-0.644 0.396,-0.678 0.293,-0.678C0.146,-0.678 0.05,-0.593 0.05,-0.482C0.05,-0.237 0.438,-0.324 0.438,-0.184C0.438,-0.139 0.401,-0.092 0.305,-0.092C0.212,-0.092 0.139,-0.136 0.094,-0.185L0.028,-0.094C0.088,-0.032 0.177,0.012 0.3,0.012Z" style="fill:#3a3a3a;fill-rule:nonzero;"/>
        </g>
        <g transform="matrix(36,0,0,36,137.832,44.6714)">
            <rect x="0.071" y="-0.667" width="0.117" height="0.667" style="fill:#3a3a3a;fill-rule:nonzero;"/>
        </g>
        <g transform="matrix(36,0,0,36,147.156,44.6714)">
            <path d="M0.5,0L0.5,-0.34C0.5,-0.439 0.448,-0.495 0.344,-0.495C0.268,-0.495 0.205,-0.456 0.173,-0.418L0.173,-0.483L0.068,-0.483L0.068,0L0.173,0L0.173,-0.338C0.198,-0.37 0.244,-0.402 0.297,-0.402C0.356,-0.402 0.395,-0.378 0.395,-0.302L0.395,0L0.5,0Z" style="fill:#3a3a3a;fill-rule:nonzero;"/>
        </g>
        <g transform="matrix(36,0,0,36,167.604,44.6714)">
            <path d="M0.513,0L0.513,-0.667L0.408,-0.667L0.408,-0.416C0.37,-0.468 0.314,-0.495 0.253,-0.495C0.129,-0.495 0.039,-0.398 0.039,-0.242C0.039,-0.082 0.13,0.012 0.253,0.012C0.316,0.012 0.371,-0.018 0.408,-0.066L0.408,0L0.513,0ZM0.284,-0.081C0.2,-0.081 0.147,-0.148 0.147,-0.242C0.147,-0.335 0.2,-0.402 0.284,-0.402C0.333,-0.402 0.385,-0.373 0.408,-0.337L0.408,-0.146C0.385,-0.11 0.333,-0.081 0.284,-0.081Z" style="fill:#3a3a3a;fill-rule:nonzero;"/>
        </g>
        <g transform="matrix(36,0,0,36,188.52,44.6714)">
            <path d="M0.292,0.012C0.368,0.012 0.439,-0.013 0.488,-0.059L0.44,-0.128C0.405,-0.093 0.35,-0.074 0.302,-0.074C0.211,-0.074 0.157,-0.135 0.149,-0.207L0.521,-0.207L0.521,-0.233C0.521,-0.385 0.429,-0.495 0.284,-0.495C0.141,-0.495 0.039,-0.382 0.039,-0.242C0.039,-0.089 0.146,0.012 0.292,0.012ZM0.42,-0.282L0.148,-0.282C0.152,-0.34 0.194,-0.409 0.283,-0.409C0.378,-0.409 0.417,-0.339 0.42,-0.282Z" style="fill:#3a3a3a;fill-rule:nonzero;"/>
        </g>
        <g transform="matrix(36,0,0,36,208.572,44.6714)">
            <path d="M0.492,0L0.314,-0.248L0.481,-0.483L0.363,-0.483L0.248,-0.32L0.134,-0.483L0.016,-0.483L0.183,-0.248L0.005,0L0.123,0L0.249,-0.178L0.374,0L0.492,0Z" style="fill:#3a3a3a;fill-rule:nonzero;"/>
        </g>
    </g>
    <g id="Sonatype-logo" serif:id="Sonatype logo" transform="matrix(0.0529174,-4.88931e-06,4.88931e-06,0.0529174,47.8533,4.2956)">
        <path d="M3.39,92.45C56.83,61.7 110.17,30.77 163.61,0.01C218.05,31.36 272.39,62.87 326.85,94.18C327.09,156.93 326.81,219.7 327,282.45C272.66,314.16 218.06,345.42 163.6,376.92C111.72,347 59.86,317.03 7.99,287.08C5.3,285.47 2.45,284.12 0,282.14L0,95.84C0.12,93.89 2.08,93.37 3.39,92.45M47.65,121.58C47.6,166.19 47.56,210.82 47.67,255.44C86.4,277.59 124.89,300.23 163.7,322.2C202.39,300.01 240.98,277.62 279.62,255.34C279.69,210.71 279.82,166.07 279.56,121.46C240.75,99.34 202.27,76.63 163.41,54.64C124.88,77.05 86.18,99.17 47.65,121.58Z" style="fill:#3a3a3a;fill-rule:nonzero;"/>
        <path d="M1403.53,14.53C1419.92,14.5 1436.31,14.55 1452.7,14.51C1452.75,35.02 1452.68,55.54 1452.73,76.05L1498.23,76.05C1498.24,90.35 1498.24,104.65 1498.23,118.95C1483.06,118.96 1467.9,118.94 1452.73,118.96C1452.69,158.97 1452.73,198.99 1452.71,239C1453.05,245.82 1455.04,253.02 1460.14,257.85C1464.3,261.93 1470.37,263.5 1476.08,263C1483.17,262.45 1490.55,260.26 1495.76,255.18C1499.98,267.36 1503.6,279.77 1507.59,292.05C1500.65,298.84 1491.31,302.59 1481.95,304.61C1472.81,306.59 1463.38,306.75 1454.08,306.33C1440.59,305.33 1426.62,300.87 1417.29,290.63C1406.86,279.57 1403.55,263.78 1403.51,249.02C1403.53,205.66 1403.54,162.3 1403.5,118.95C1391.09,118.96 1378.67,118.94 1366.26,118.96C1366.3,104.65 1366.3,90.35 1366.26,76.04C1378.69,76.02 1391.12,76.13 1403.54,75.99C1403.5,55.5 1403.52,35.02 1403.53,14.53Z" style="fill:#3a3a3a;fill-rule:nonzero;"/>
        <path d="M485.89,70.89C508.33,69.01 531.4,71.89 552.23,80.68C564.64,85.84 576.11,93.16 586.2,102.02C579.43,113.64 572.45,125.13 565.63,136.71C551.82,121.71 532.08,113.23 512.11,110.52C500.09,109.08 487.61,109.17 475.99,112.93C469.37,115.18 462.79,119.04 459.42,125.4C456.33,131.36 456.26,139.14 460.39,144.64C464.61,150.5 471.48,153.61 478.02,156.17C498.72,163.72 520.93,165.81 541.71,173.13C556.92,178.22 571.92,186.11 581.8,199.13C591.22,211.55 594.17,227.84 592.8,243.11C591.57,258.05 584.59,272.43 573.53,282.57C559.14,296.16 539.54,302.76 520.23,305.29C499.07,307.81 477.38,306.62 456.74,301.15C436.82,295.8 417.71,286.19 402.96,271.59C410.45,259.66 417.85,247.63 425.61,235.89C437.02,247.91 452.12,255.92 467.58,261.5C484.94,267.65 504.06,269.78 522.11,265.51C530.24,263.54 538.56,259.47 542.9,251.98C547,244.7 547.08,234.83 541.83,228.09C538.38,223.37 533.19,220.35 528.03,217.84C510.12,209.81 490.38,207.68 471.61,202.47C455,197.99 437.99,191.89 425.48,179.61C414.71,169.11 409.66,153.81 410.03,138.96C409.65,120.75 418.35,102.88 432.29,91.31C447.16,78.59 466.65,72.55 485.89,70.89Z" style="fill:#3a3a3a;fill-rule:nonzero;"/>
        <path d="M721.57,70.81C743.56,69.01 766.28,72.16 786.27,81.79C802.07,89.22 815.89,100.72 826.2,114.8C847.35,143.42 853.22,181.35 846.34,215.81C842.3,235.67 833.4,254.67 819.87,269.84C805.24,286.58 785.06,298.12 763.46,303.16C746.06,307.16 727.84,307.61 710.25,304.63C690.74,301.3 672.05,292.88 657.06,279.9C639.63,265 627.54,244.34 621.82,222.22C612.81,187.33 617.75,148.24 638.16,118.15C649.19,101.92 664.71,88.71 682.64,80.71C694.9,75.14 708.17,71.95 721.57,70.81M723.4,114.54C708.5,116.47 694.61,124.49 685.31,136.25C673.87,150.47 668.74,168.94 668.47,186.99C668.32,205.06 672.8,223.66 683.62,238.38C691.98,250.11 704.78,258.6 718.9,261.57C735.26,265.06 753.2,262.58 767.31,253.33C778.7,245.94 787.04,234.51 792,221.97C798.54,205.16 799.72,186.43 796.16,168.79C792.72,151.86 783.92,135.5 769.72,125.26C756.58,115.52 739.41,112.27 723.4,114.54Z" style="fill:#3a3a3a;fill-rule:nonzero;"/>
        <path d="M936.56,106.53C958.74,80.64 994.21,66.94 1028.06,70.96C1041.32,72.33 1054.71,76.33 1065.26,84.75C1076.76,93.64 1083.64,107.38 1086.37,121.45C1089.11,134.14 1088.02,147.17 1088.24,160.04L1088.24,300.95C1071.91,300.95 1055.59,300.94 1039.26,300.96C1039.32,253.63 1039.26,206.31 1039.3,158.99C1038.99,147.44 1036.96,135.01 1029,126.09C1021.5,117.66 1009.92,114.46 999,114C974.72,112.19 950.81,124.91 936.48,144.17C936.49,196.42 936.44,248.68 936.51,300.94C920.16,300.94 903.82,300.99 887.48,300.91C887.52,226 887.63,151.08 887.42,76.18C903.77,75.89 920.15,76.11 936.51,76.07C936.48,86.22 936.39,96.38 936.56,106.53Z" style="fill:#3a3a3a;fill-rule:nonzero;"/>
        <path d="M1203.92,73.9C1224.26,69.41 1245.52,69.15 1265.97,73C1284.28,76.57 1302.4,84.86 1314.33,99.62C1322.6,109.63 1327.42,122.14 1329.41,134.89C1331.08,145.16 1330.67,155.6 1330.72,165.97C1330.72,210.97 1330.7,255.97 1330.73,300.97C1314.32,300.94 1297.92,300.95 1281.52,300.96C1281.52,292.99 1281.53,285.02 1281.51,277.05C1266.55,294.09 1244.38,303.56 1222.09,305.87C1203.38,308.11 1183.81,305.15 1167.35,295.73C1155.43,289.11 1145.32,279.14 1138.95,267.05C1131.71,253.29 1129.54,237.23 1131.32,221.89C1132.84,207.22 1138.86,192.82 1149.22,182.2C1164.05,166.64 1185.8,159.33 1206.94,158.77C1227.25,158.52 1248.21,162.51 1265.54,173.56C1271.51,177.28 1276.74,182.04 1281.44,187.25C1281.63,176.17 1281.45,165.1 1281.54,154.02C1281.68,144.37 1278.16,134.55 1271.33,127.64C1263.85,119.65 1253.22,115.32 1242.59,113.54C1220.77,110.02 1197.68,114.97 1179.31,127.3C1173.28,131.3 1167.6,135.85 1162.54,141.03C1155.78,129.65 1149.1,118.22 1142.37,106.82C1159.24,90.35 1180.94,79.02 1203.92,73.9M1215.56,193.72C1203.26,196.05 1191.3,202.93 1185.08,214.08C1178.34,226.15 1178.62,242.05 1186.42,253.57C1191.32,261.07 1199.05,266.37 1207.41,269.37C1219.75,273.83 1233.35,273.58 1246.06,270.92C1259.62,267.92 1272.99,261.19 1281.38,249.82C1281.69,238.52 1281.47,227.19 1281.49,215.88C1274.75,206.07 1263.85,199.8 1252.7,196.22C1240.75,192.55 1227.88,191.33 1215.56,193.72Z" style="fill:#3a3a3a;fill-rule:nonzero;"/>
        <path d="M1874.22,74.18C1892.94,68.52 1913.32,69.3 1931.92,75.06C1949.56,80.6 1965.29,91.82 1976.36,106.62C1989.74,124.3 1996.64,146.1 1999.07,167.94C2001.26,188.7 2000.31,209.92 1995.1,230.18C1990.13,249.04 1981.01,267.21 1966.79,280.8C1952.01,295.62 1931.67,304.19 1910.96,306.08C1888.28,308.51 1864.53,302.69 1846.49,288.47C1839.62,283.5 1834.17,276.96 1828.51,270.75C1828.37,309.42 1828.6,348.1 1828.4,386.77C1812.02,386.65 1795.65,386.74 1779.28,386.72C1779.28,283.16 1779.3,179.6 1779.27,76.04C1795.69,76.11 1812.12,75.94 1828.54,76.13C1828.43,86.14 1828.42,96.16 1828.54,106.18C1839.93,91.09 1856.11,79.65 1874.22,74.18M1875.57,114.74C1857.11,118.2 1839.06,128.1 1828.54,143.98C1828.43,173.63 1828.42,203.29 1828.55,232.94C1831.21,237.27 1834.83,240.94 1838.61,244.32C1853.21,256.82 1872.63,264.57 1892.02,262.8C1907.87,261.57 1923.13,253.59 1932.86,240.97C1945.5,225.04 1949.85,203.98 1949.15,184.02C1948.4,163.76 1941.59,142.7 1926.23,128.79C1912.8,116.4 1893.39,111.69 1875.57,114.74Z" style="fill:#3a3a3a;fill-rule:nonzero;"/>
        <path d="M2093.41,83.49C2110.92,74.12 2130.96,69.83 2150.76,70.38C2168.37,70.79 2186.06,74.94 2201.52,83.52C2216.99,91.99 2230.01,104.69 2239.24,119.69C2248.88,135.22 2254.57,152.98 2257,171.04C2258.61,182.18 2258.51,193.45 2258.5,204.68C2200.62,204.78 2142.74,204.66 2084.87,204.74C2086.77,223.62 2096.56,241.78 2112.05,252.94C2127.95,264.52 2148.61,268.09 2167.86,265.55C2187.06,262.87 2206.24,255.3 2220.17,241.48C2227.62,252.34 2235.28,263.06 2242.66,273.97C2231.73,284.35 2218.53,292.22 2204.41,297.43C2184.26,304.98 2162.43,307.5 2141.02,306.21C2122.15,304.88 2103.46,299.5 2087.19,289.76C2070.59,279.87 2056.76,265.4 2047.66,248.35C2037.44,229.34 2032.98,207.53 2033.46,186.04C2033.67,163.33 2040.09,140.59 2052.41,121.46C2062.54,105.58 2076.76,92.32 2093.41,83.49M2111.23,121.2C2095.33,132.16 2085.89,151.03 2084.42,170.05L2210.8,170.05C2210.17,158.31 2206.74,146.61 2200.17,136.8C2192.07,124.24 2178.72,115.44 2164.16,112.34C2146.32,108.51 2126.47,110.6 2111.23,121.2Z" style="fill:#3a3a3a;fill-rule:nonzero;"/>
        <path d="M1519.74,76.06C1537.21,76.04 1554.69,76.04 1572.17,76.06C1593.38,130.77 1614.76,185.41 1636.02,240.1C1636.63,241.29 1636.64,243 1637.87,243.8C1659.41,187.81 1681.41,131.99 1703.08,76.05C1720.73,76.04 1738.39,76.07 1756.04,76.03C1722.68,157.4 1689.48,238.83 1656.18,320.22C1648.91,337.21 1643.51,355.74 1630.41,369.4C1618.88,382.14 1602.22,389.13 1585.38,391.18C1571.1,393.19 1556.55,392.02 1542.5,389C1545,374.34 1547.49,359.67 1550,345.01C1560.37,349.04 1572.13,350.07 1582.86,346.8C1590.6,344.41 1596.58,338.14 1599.94,330.91C1603.98,321.9 1607.8,312.79 1611.85,303.79C1581.27,227.83 1550.36,152 1519.74,76.06Z" style="fill:#3a3a3a;fill-rule:nonzero;"/>
    </g>
</svg>
