<?xml version="1.0" encoding="UTF-8" standalone="no"?>
<!DOCTYPE svg PUBLIC "-//W3C//DTD SVG 1.1//EN" "http://www.w3.org/Graphics/SVG/1.1/DTD/svg11.dtd">
<svg width="100%" height="100%" viewBox="0 0 4000 4794" version="1.1" xmlns="http://www.w3.org/2000/svg" xmlns:xlink="http://www.w3.org/1999/xlink" xml:space="preserve" xmlns:serif="http://www.serif.com/" style="fill-rule:evenodd;clip-rule:evenodd;stroke-linejoin:round;stroke-miterlimit:2;">
    <g transform="matrix(1,0,0,1,-0.0003,-233.539)">
        <g opacity="0.09">
            <g>
                <g transform="matrix(1,0,0,1,728.7,841.429)">
                    <path d="M0,-63.828C17.598,-46.23 17.598,-17.596 0,0.001L-57.764,57.765C-75.362,75.363 -103.996,75.363 -121.593,57.765L-179.358,0.001C-196.955,-17.596 -196.954,-46.229 -179.356,-63.827L-121.592,-121.591C-103.995,-139.189 -75.362,-139.19 -57.764,-121.592L0,-63.828ZM-135.196,-140.592L-198.357,-77.43C-223.495,-52.292 -223.495,-11.535 -198.357,13.603L-135.196,76.765C-110.058,101.903 -69.3,101.903 -44.162,76.765L19,13.603C44.139,-11.536 44.138,-52.292 19,-77.43L-44.162,-140.592C-69.3,-165.73 -110.056,-165.731 -135.196,-140.592" style="fill:white;fill-rule:nonzero;"/>
                </g>
                <g transform="matrix(1,0,0,1,558.203,1354.75)">
                    <path d="M0,-63.828C17.598,-46.23 17.598,-17.596 0,0.001L-57.764,57.765C-75.362,75.363 -103.996,75.363 -121.593,57.765L-179.358,0.001C-196.955,-17.596 -196.954,-46.229 -179.356,-63.827L-121.592,-121.591C-103.995,-139.189 -75.362,-139.19 -57.764,-121.592L0,-63.828ZM-135.196,-140.592L-198.357,-77.43C-223.495,-52.292 -223.495,-11.535 -198.357,13.603L-135.196,76.765C-110.058,101.903 -69.3,101.903 -44.162,76.765L19,13.603C44.139,-11.536 44.138,-52.292 19,-77.43L-44.162,-140.592C-69.3,-165.73 -110.056,-165.731 -135.196,-140.592" style="fill:white;fill-rule:nonzero;"/>
                </g>
                <g transform="matrix(1,0,0,1,728.699,1184.25)">
                    <path d="M0,-63.828C17.598,-46.23 17.598,-17.596 0,0.001L-57.764,57.765C-75.362,75.363 -103.996,75.363 -121.593,57.765L-179.358,0.001C-196.955,-17.596 -196.954,-46.229 -179.356,-63.827L-121.592,-121.591C-103.995,-139.189 -75.362,-139.19 -57.764,-121.592L0,-63.828ZM-135.196,-140.592L-198.357,-77.43C-223.495,-52.292 -223.495,-11.535 -198.357,13.603L-135.196,76.765C-110.058,101.903 -69.3,101.903 -44.162,76.765L19,13.603C44.139,-11.536 44.138,-52.292 19,-77.43L-44.162,-140.592C-69.3,-165.73 -110.056,-165.731 -135.196,-140.592" style="fill:white;fill-rule:nonzero;"/>
                </g>
                <g transform="matrix(1,0,0,1,387.707,1184.25)">
                    <path d="M0,-63.828C17.598,-46.23 17.598,-17.596 0,0.001L-57.764,57.765C-75.362,75.363 -103.996,75.363 -121.593,57.765L-179.358,0.001C-196.955,-17.596 -196.954,-46.229 -179.356,-63.827L-121.592,-121.591C-103.995,-139.189 -75.362,-139.19 -57.764,-121.592L0,-63.828ZM-135.196,-140.592L-198.357,-77.43C-223.495,-52.292 -223.495,-11.535 -198.357,13.603L-135.196,76.765C-110.058,101.903 -69.3,101.903 -44.162,76.765L19,13.603C44.139,-11.536 44.138,-52.292 19,-77.43L-44.162,-140.592C-69.3,-165.73 -110.056,-165.731 -135.196,-140.592" style="fill:white;fill-rule:nonzero;"/>
                </g>
                <g transform="matrix(1,0,0,1,899.195,1013.76)">
                    <path d="M0,-63.828C17.598,-46.23 17.598,-17.596 0,0.001L-57.764,57.765C-75.362,75.363 -103.996,75.363 -121.593,57.765L-179.358,0.001C-196.955,-17.596 -196.954,-46.229 -179.356,-63.827L-121.592,-121.591C-103.995,-139.189 -75.362,-139.19 -57.764,-121.592L0,-63.828ZM-135.196,-140.592L-198.357,-77.43C-223.495,-52.292 -223.495,-11.535 -198.357,13.603L-135.196,76.765C-110.058,101.903 -69.3,101.903 -44.162,76.765L19,13.603C44.139,-11.536 44.138,-52.292 19,-77.43L-44.162,-140.592C-69.3,-165.73 -110.056,-165.731 -135.196,-140.592" style="fill:white;fill-rule:nonzero;"/>
                </g>
                <g transform="matrix(1,0,0,1,899.197,1354.75)">
                    <path d="M0,-63.828C17.598,-46.23 17.598,-17.596 0,0.001L-57.764,57.765C-75.362,75.363 -103.996,75.363 -121.593,57.765L-179.358,0.001C-196.955,-17.596 -196.954,-46.229 -179.356,-63.827L-121.592,-121.591C-103.995,-139.189 -75.362,-139.19 -57.764,-121.592L0,-63.828ZM-135.196,-140.592L-198.357,-77.43C-223.495,-52.292 -223.495,-11.535 -198.357,13.603L-135.196,76.765C-110.058,101.903 -69.3,101.903 -44.162,76.765L19,13.603C44.139,-11.536 44.138,-52.292 19,-77.43L-44.162,-140.592C-69.3,-165.73 -110.056,-165.731 -135.196,-140.592" style="fill:white;fill-rule:nonzero;"/>
                </g>
                <g transform="matrix(1,0,0,1,1240.19,1013.76)">
                    <path d="M0,-63.828C17.598,-46.23 17.598,-17.596 0,0.001L-57.764,57.765C-75.362,75.363 -103.996,75.363 -121.593,57.765L-179.358,0.001C-196.955,-17.596 -196.954,-46.229 -179.356,-63.827L-121.592,-121.591C-103.995,-139.189 -75.362,-139.19 -57.764,-121.592L0,-63.828ZM-135.196,-140.592L-198.357,-77.43C-223.495,-52.292 -223.495,-11.535 -198.357,13.603L-135.196,76.765C-110.058,101.903 -69.3,101.903 -44.162,76.765L19,13.603C44.139,-11.536 44.138,-52.292 19,-77.43L-44.162,-140.592C-69.3,-165.73 -110.056,-165.731 -135.196,-140.592" style="fill:white;fill-rule:nonzero;"/>
                </g>
                <g transform="matrix(1,0,0,1,558.256,1694.92)">
                    <path d="M0,-63.828C17.598,-46.23 17.598,-17.596 0,0.001L-57.764,57.765C-75.362,75.363 -103.996,75.363 -121.593,57.765L-179.358,0.001C-196.955,-17.596 -196.954,-46.229 -179.356,-63.827L-121.592,-121.591C-103.995,-139.189 -75.362,-139.19 -57.764,-121.592L0,-63.828ZM-135.196,-140.592L-198.357,-77.43C-223.495,-52.292 -223.495,-11.535 -198.357,13.603L-135.196,76.765C-110.058,101.903 -69.3,101.903 -44.162,76.765L19,13.603C44.139,-11.536 44.138,-52.292 19,-77.43L-44.162,-140.592C-69.3,-165.73 -110.056,-165.731 -135.196,-140.592" style="fill:white;fill-rule:nonzero;"/>
                </g>
                <g transform="matrix(1,0,0,1,217.263,1694.92)">
                    <path d="M0,-63.828C17.598,-46.23 17.598,-17.596 0,0.001L-57.764,57.765C-75.362,75.363 -103.996,75.363 -121.593,57.765L-179.358,0.001C-196.955,-17.596 -196.954,-46.229 -179.356,-63.827L-121.592,-121.591C-103.995,-139.189 -75.362,-139.19 -57.764,-121.592L0,-63.828ZM-135.196,-140.592L-198.357,-77.43C-223.495,-52.292 -223.495,-11.535 -198.357,13.603L-135.196,76.765C-110.058,101.903 -69.3,101.903 -44.162,76.765L19,13.603C44.139,-11.536 44.138,-52.292 19,-77.43L-44.162,-140.592C-69.3,-165.73 -110.056,-165.731 -135.196,-140.592" style="fill:white;fill-rule:nonzero;"/>
                </g>
                <g transform="matrix(1,0,0,1,387.76,1524.43)">
                    <path d="M0,-63.828C17.598,-46.23 17.598,-17.596 0,0.001L-57.764,57.765C-75.362,75.363 -103.996,75.363 -121.593,57.765L-179.358,0.001C-196.955,-17.596 -196.954,-46.229 -179.356,-63.827L-121.592,-121.591C-103.995,-139.189 -75.362,-139.19 -57.764,-121.592L0,-63.828ZM-135.196,-140.592L-198.357,-77.43C-223.495,-52.292 -223.495,-11.535 -198.357,13.603L-135.196,76.765C-110.058,101.903 -69.3,101.903 -44.162,76.765L19,13.603C44.139,-11.536 44.138,-52.292 19,-77.43L-44.162,-140.592C-69.3,-165.73 -110.056,-165.731 -135.196,-140.592" style="fill:white;fill-rule:nonzero;"/>
                </g>
                <g transform="matrix(1,0,0,1,728.753,1865.42)">
                    <path d="M0,-63.828C17.598,-46.23 17.598,-17.596 0,0.001L-57.764,57.765C-75.362,75.363 -103.996,75.363 -121.593,57.765L-179.358,0.001C-196.955,-17.596 -196.954,-46.229 -179.356,-63.827L-121.592,-121.591C-103.995,-139.189 -75.362,-139.19 -57.764,-121.592L0,-63.828ZM-135.196,-140.592L-198.357,-77.43C-223.495,-52.292 -223.495,-11.535 -198.357,13.603L-135.196,76.765C-110.058,101.903 -69.3,101.903 -44.162,76.765L19,13.603C44.139,-11.536 44.138,-52.292 19,-77.43L-44.162,-140.592C-69.3,-165.73 -110.056,-165.731 -135.196,-140.592" style="fill:white;fill-rule:nonzero;"/>
                </g>
                <g transform="matrix(1,0,0,1,1069.75,1865.42)">
                    <path d="M0,-63.828C17.598,-46.23 17.598,-17.596 0,0.001L-57.764,57.765C-75.362,75.363 -103.996,75.363 -121.593,57.765L-179.358,0.001C-196.955,-17.596 -196.954,-46.229 -179.356,-63.827L-121.592,-121.591C-103.995,-139.189 -75.362,-139.19 -57.764,-121.592L0,-63.828ZM-135.196,-140.592L-198.357,-77.43C-223.495,-52.292 -223.495,-11.535 -198.357,13.603L-135.196,76.765C-110.058,101.903 -69.3,101.903 -44.162,76.765L19,13.603C44.139,-11.536 44.138,-52.292 19,-77.43L-44.162,-140.592C-69.3,-165.73 -110.056,-165.731 -135.196,-140.592" style="fill:white;fill-rule:nonzero;"/>
                </g>
                <g transform="matrix(1,0,0,1,1240.24,1694.92)">
                    <path d="M0,-63.828C17.598,-46.23 17.598,-17.596 0,0.001L-57.764,57.765C-75.362,75.363 -103.996,75.363 -121.593,57.765L-179.358,0.001C-196.955,-17.596 -196.954,-46.229 -179.356,-63.827L-121.592,-121.591C-103.995,-139.189 -75.362,-139.19 -57.764,-121.592L0,-63.828ZM-135.196,-140.592L-198.357,-77.43C-223.495,-52.292 -223.495,-11.535 -198.357,13.603L-135.196,76.765C-110.058,101.903 -69.3,101.903 -44.162,76.765L19,13.603C44.139,-11.536 44.138,-52.292 19,-77.43L-44.162,-140.592C-69.3,-165.73 -110.056,-165.731 -135.196,-140.592" style="fill:white;fill-rule:nonzero;"/>
                </g>
                <g transform="matrix(1,0,0,1,899.249,1694.92)">
                    <path d="M0,-63.828C17.598,-46.23 17.598,-17.596 0,0.001L-57.764,57.765C-75.362,75.363 -103.996,75.363 -121.593,57.765L-179.358,0.001C-196.955,-17.596 -196.954,-46.229 -179.356,-63.827L-121.592,-121.591C-103.995,-139.189 -75.362,-139.19 -57.764,-121.592L0,-63.828ZM-135.196,-140.592L-198.357,-77.43C-223.495,-52.292 -223.495,-11.535 -198.357,13.603L-135.196,76.765C-110.058,101.903 -69.3,101.903 -44.162,76.765L19,13.603C44.139,-11.536 44.138,-52.292 19,-77.43L-44.162,-140.592C-69.3,-165.73 -110.056,-165.731 -135.196,-140.592" style="fill:white;fill-rule:nonzero;"/>
                </g>
            </g>
        </g>
    </g>
    <g transform="matrix(1,0,0,1,1195.09,3006)">
        <g opacity="0.09">
            <g>
                <g transform="matrix(1,0,0,1,558.203,670.932)">
                    <path d="M0,-63.828C17.598,-46.23 17.598,-17.596 0,0.001L-57.764,57.765C-75.362,75.363 -103.996,75.363 -121.593,57.765L-179.358,0.001C-196.955,-17.596 -196.954,-46.229 -179.356,-63.827L-121.592,-121.591C-103.995,-139.189 -75.362,-139.19 -57.764,-121.592L0,-63.828ZM-135.196,-140.592L-198.357,-77.43C-223.495,-52.292 -223.495,-11.535 -198.357,13.603L-135.196,76.765C-110.058,101.903 -69.3,101.903 -44.162,76.765L19,13.603C44.139,-11.536 44.138,-52.292 19,-77.43L-44.162,-140.592C-69.3,-165.73 -110.056,-165.731 -135.196,-140.592" style="fill:white;fill-rule:nonzero;"/>
                </g>
                <g transform="matrix(1,0,0,1,217.211,670.932)">
                    <path d="M0,-63.828C17.598,-46.23 17.598,-17.596 0,0.001L-57.764,57.765C-75.362,75.363 -103.996,75.363 -121.593,57.765L-179.358,0.001C-196.955,-17.596 -196.954,-46.229 -179.356,-63.827L-121.592,-121.591C-103.995,-139.189 -75.362,-139.19 -57.764,-121.592L0,-63.828ZM-135.196,-140.592L-198.357,-77.43C-223.495,-52.292 -223.495,-11.535 -198.357,13.603L-135.196,76.765C-110.058,101.903 -69.3,101.903 -44.162,76.765L19,13.603C44.139,-11.536 44.138,-52.292 19,-77.43L-44.162,-140.592C-69.3,-165.73 -110.056,-165.731 -135.196,-140.592" style="fill:white;fill-rule:nonzero;"/>
                </g>
                <g transform="matrix(1,0,0,1,728.7,841.429)">
                    <path d="M0,-63.828C17.598,-46.23 17.598,-17.596 0,0.001L-57.764,57.765C-75.362,75.363 -103.996,75.363 -121.593,57.765L-179.358,0.001C-196.955,-17.596 -196.954,-46.229 -179.356,-63.827L-121.592,-121.591C-103.995,-139.189 -75.362,-139.19 -57.764,-121.592L0,-63.828ZM-135.196,-140.592L-198.357,-77.43C-223.495,-52.292 -223.495,-11.535 -198.357,13.603L-135.196,76.765C-110.058,101.903 -69.3,101.903 -44.162,76.765L19,13.603C44.139,-11.536 44.138,-52.292 19,-77.43L-44.162,-140.592C-69.3,-165.73 -110.056,-165.731 -135.196,-140.592" style="fill:white;fill-rule:nonzero;"/>
                </g>
                <g transform="matrix(1,0,0,1,1240.19,670.933)">
                    <path d="M0,-63.828C17.598,-46.23 17.598,-17.596 0,0.001L-57.764,57.765C-75.362,75.363 -103.996,75.363 -121.593,57.765L-179.358,0.001C-196.955,-17.596 -196.954,-46.229 -179.356,-63.827L-121.592,-121.591C-103.995,-139.189 -75.362,-139.19 -57.764,-121.592L0,-63.828ZM-135.196,-140.592L-198.357,-77.43C-223.495,-52.292 -223.495,-11.535 -198.357,13.603L-135.196,76.765C-110.058,101.903 -69.3,101.903 -44.162,76.765L19,13.603C44.139,-11.536 44.138,-52.292 19,-77.43L-44.162,-140.592C-69.3,-165.73 -110.056,-165.731 -135.196,-140.592" style="fill:white;fill-rule:nonzero;"/>
                </g>
                <g transform="matrix(1,0,0,1,899.197,670.933)">
                    <path d="M0,-63.828C17.598,-46.23 17.598,-17.596 0,0.001L-57.764,57.765C-75.362,75.363 -103.996,75.363 -121.593,57.765L-179.358,0.001C-196.955,-17.596 -196.954,-46.229 -179.356,-63.827L-121.592,-121.591C-103.995,-139.189 -75.362,-139.19 -57.764,-121.592L0,-63.828ZM-135.196,-140.592L-198.357,-77.43C-223.495,-52.292 -223.495,-11.535 -198.357,13.603L-135.196,76.765C-110.058,101.903 -69.3,101.903 -44.162,76.765L19,13.603C44.139,-11.536 44.138,-52.292 19,-77.43L-44.162,-140.592C-69.3,-165.73 -110.056,-165.731 -135.196,-140.592" style="fill:white;fill-rule:nonzero;"/>
                </g>
                <g transform="matrix(1,0,0,1,558.203,1354.75)">
                    <path d="M0,-63.828C17.598,-46.23 17.598,-17.596 0,0.001L-57.764,57.765C-75.362,75.363 -103.996,75.363 -121.593,57.765L-179.358,0.001C-196.955,-17.596 -196.954,-46.229 -179.356,-63.827L-121.592,-121.591C-103.995,-139.189 -75.362,-139.19 -57.764,-121.592L0,-63.828ZM-135.196,-140.592L-198.357,-77.43C-223.495,-52.292 -223.495,-11.535 -198.357,13.603L-135.196,76.765C-110.058,101.903 -69.3,101.903 -44.162,76.765L19,13.603C44.139,-11.536 44.138,-52.292 19,-77.43L-44.162,-140.592C-69.3,-165.73 -110.056,-165.731 -135.196,-140.592" style="fill:white;fill-rule:nonzero;"/>
                </g>
                <g transform="matrix(1,0,0,1,387.707,1184.25)">
                    <path d="M0,-63.828C17.598,-46.23 17.598,-17.596 0,0.001L-57.764,57.765C-75.362,75.363 -103.996,75.363 -121.593,57.765L-179.358,0.001C-196.955,-17.596 -196.954,-46.229 -179.356,-63.827L-121.592,-121.591C-103.995,-139.189 -75.362,-139.19 -57.764,-121.592L0,-63.828ZM-135.196,-140.592L-198.357,-77.43C-223.495,-52.292 -223.495,-11.535 -198.357,13.603L-135.196,76.765C-110.058,101.903 -69.3,101.903 -44.162,76.765L19,13.603C44.139,-11.536 44.138,-52.292 19,-77.43L-44.162,-140.592C-69.3,-165.73 -110.056,-165.731 -135.196,-140.592" style="fill:white;fill-rule:nonzero;"/>
                </g>
                <g transform="matrix(1,0,0,1,387.76,1865.42)">
                    <path d="M0,-63.828C17.598,-46.23 17.598,-17.596 0,0.001L-57.764,57.765C-75.362,75.363 -103.996,75.363 -121.593,57.765L-179.358,0.001C-196.955,-17.596 -196.954,-46.229 -179.356,-63.827L-121.592,-121.591C-103.995,-139.189 -75.362,-139.19 -57.764,-121.592L0,-63.828ZM-135.196,-140.592L-198.357,-77.43C-223.495,-52.292 -223.495,-11.535 -198.357,13.603L-135.196,76.765C-110.058,101.903 -69.3,101.903 -44.162,76.765L19,13.603C44.139,-11.536 44.138,-52.292 19,-77.43L-44.162,-140.592C-69.3,-165.73 -110.056,-165.731 -135.196,-140.592" style="fill:white;fill-rule:nonzero;"/>
                </g>
                <g transform="matrix(1,0,0,1,217.263,1694.92)">
                    <path d="M0,-63.828C17.598,-46.23 17.598,-17.596 0,0.001L-57.764,57.765C-75.362,75.363 -103.996,75.363 -121.593,57.765L-179.358,0.001C-196.955,-17.596 -196.954,-46.229 -179.356,-63.827L-121.592,-121.591C-103.995,-139.189 -75.362,-139.19 -57.764,-121.592L0,-63.828ZM-135.196,-140.592L-198.357,-77.43C-223.495,-52.292 -223.495,-11.535 -198.357,13.603L-135.196,76.765C-110.058,101.903 -69.3,101.903 -44.162,76.765L19,13.603C44.139,-11.536 44.138,-52.292 19,-77.43L-44.162,-140.592C-69.3,-165.73 -110.056,-165.731 -135.196,-140.592" style="fill:white;fill-rule:nonzero;"/>
                </g>
                <g transform="matrix(1,0,0,1,387.76,1524.43)">
                    <path d="M0,-63.828C17.598,-46.23 17.598,-17.596 0,0.001L-57.764,57.765C-75.362,75.363 -103.996,75.363 -121.593,57.765L-179.358,0.001C-196.955,-17.596 -196.954,-46.229 -179.356,-63.827L-121.592,-121.591C-103.995,-139.189 -75.362,-139.19 -57.764,-121.592L0,-63.828ZM-135.196,-140.592L-198.357,-77.43C-223.495,-52.292 -223.495,-11.535 -198.357,13.603L-135.196,76.765C-110.058,101.903 -69.3,101.903 -44.162,76.765L19,13.603C44.139,-11.536 44.138,-52.292 19,-77.43L-44.162,-140.592C-69.3,-165.73 -110.056,-165.731 -135.196,-140.592" style="fill:white;fill-rule:nonzero;"/>
                </g>
                <g transform="matrix(1,0,0,1,728.753,1865.42)">
                    <path d="M0,-63.828C17.598,-46.23 17.598,-17.596 0,0.001L-57.764,57.765C-75.362,75.363 -103.996,75.363 -121.593,57.765L-179.358,0.001C-196.955,-17.596 -196.954,-46.229 -179.356,-63.827L-121.592,-121.591C-103.995,-139.189 -75.362,-139.19 -57.764,-121.592L0,-63.828ZM-135.196,-140.592L-198.357,-77.43C-223.495,-52.292 -223.495,-11.535 -198.357,13.603L-135.196,76.765C-110.058,101.903 -69.3,101.903 -44.162,76.765L19,13.603C44.139,-11.536 44.138,-52.292 19,-77.43L-44.162,-140.592C-69.3,-165.73 -110.056,-165.731 -135.196,-140.592" style="fill:white;fill-rule:nonzero;"/>
                </g>
                <g transform="matrix(1,0,0,1,1069.75,1865.42)">
                    <path d="M0,-63.828C17.598,-46.23 17.598,-17.596 0,0.001L-57.764,57.765C-75.362,75.363 -103.996,75.363 -121.593,57.765L-179.358,0.001C-196.955,-17.596 -196.954,-46.229 -179.356,-63.827L-121.592,-121.591C-103.995,-139.189 -75.362,-139.19 -57.764,-121.592L0,-63.828ZM-135.196,-140.592L-198.357,-77.43C-223.495,-52.292 -223.495,-11.535 -198.357,13.603L-135.196,76.765C-110.058,101.903 -69.3,101.903 -44.162,76.765L19,13.603C44.139,-11.536 44.138,-52.292 19,-77.43L-44.162,-140.592C-69.3,-165.73 -110.056,-165.731 -135.196,-140.592" style="fill:white;fill-rule:nonzero;"/>
                </g>
                <g transform="matrix(1,0,0,1,1240.24,1694.92)">
                    <path d="M0,-63.828C17.598,-46.23 17.598,-17.596 0,0.001L-57.764,57.765C-75.362,75.363 -103.996,75.363 -121.593,57.765L-179.358,0.001C-196.955,-17.596 -196.954,-46.229 -179.356,-63.827L-121.592,-121.591C-103.995,-139.189 -75.362,-139.19 -57.764,-121.592L0,-63.828ZM-135.196,-140.592L-198.357,-77.43C-223.495,-52.292 -223.495,-11.535 -198.357,13.603L-135.196,76.765C-110.058,101.903 -69.3,101.903 -44.162,76.765L19,13.603C44.139,-11.536 44.138,-52.292 19,-77.43L-44.162,-140.592C-69.3,-165.73 -110.056,-165.731 -135.196,-140.592" style="fill:white;fill-rule:nonzero;"/>
                </g>
                <g transform="matrix(1,0,0,1,899.249,1694.92)">
                    <path d="M0,-63.828C17.598,-46.23 17.598,-17.596 0,0.001L-57.764,57.765C-75.362,75.363 -103.996,75.363 -121.593,57.765L-179.358,0.001C-196.955,-17.596 -196.954,-46.229 -179.356,-63.827L-121.592,-121.591C-103.995,-139.189 -75.362,-139.19 -57.764,-121.592L0,-63.828ZM-135.196,-140.592L-198.357,-77.43C-223.495,-52.292 -223.495,-11.535 -198.357,13.603L-135.196,76.765C-110.058,101.903 -69.3,101.903 -44.162,76.765L19,13.603C44.139,-11.536 44.138,-52.292 19,-77.43L-44.162,-140.592C-69.3,-165.73 -110.056,-165.731 -135.196,-140.592" style="fill:white;fill-rule:nonzero;"/>
                </g>
            </g>
        </g>
    </g>
    <g transform="matrix(1,0,0,1,1191.9,1643.39)">
        <g opacity="0.09">
            <g>
                <g transform="matrix(1,0,0,1,387.707,841.428)">
                    <path d="M0,-63.828C17.598,-46.23 17.598,-17.596 0,0.001L-57.764,57.765C-75.362,75.363 -103.996,75.363 -121.593,57.765L-179.358,0.001C-196.955,-17.596 -196.954,-46.229 -179.356,-63.827L-121.592,-121.591C-103.995,-139.189 -75.362,-139.19 -57.764,-121.592L0,-63.828ZM-135.196,-140.592L-198.357,-77.43C-223.495,-52.292 -223.495,-11.535 -198.357,13.603L-135.196,76.765C-110.058,101.903 -69.3,101.903 -44.162,76.765L19,13.603C44.139,-11.536 44.138,-52.292 19,-77.43L-44.162,-140.592C-69.3,-165.73 -110.056,-165.731 -135.196,-140.592" style="fill:white;fill-rule:nonzero;"/>
                </g>
                <g transform="matrix(1,0,0,1,217.211,670.932)">
                    <path d="M0,-63.828C17.598,-46.23 17.598,-17.596 0,0.001L-57.764,57.765C-75.362,75.363 -103.996,75.363 -121.593,57.765L-179.358,0.001C-196.955,-17.596 -196.954,-46.229 -179.356,-63.827L-121.592,-121.591C-103.995,-139.189 -75.362,-139.19 -57.764,-121.592L0,-63.828ZM-135.196,-140.592L-198.357,-77.43C-223.495,-52.292 -223.495,-11.535 -198.357,13.603L-135.196,76.765C-110.058,101.903 -69.3,101.903 -44.162,76.765L19,13.603C44.139,-11.536 44.138,-52.292 19,-77.43L-44.162,-140.592C-69.3,-165.73 -110.056,-165.731 -135.196,-140.592" style="fill:white;fill-rule:nonzero;"/>
                </g>
                <g transform="matrix(1,0,0,1,387.707,1184.25)">
                    <path d="M0,-63.828C17.598,-46.23 17.598,-17.596 0,0.001L-57.764,57.765C-75.362,75.363 -103.996,75.363 -121.593,57.765L-179.358,0.001C-196.955,-17.596 -196.954,-46.229 -179.356,-63.827L-121.592,-121.591C-103.995,-139.189 -75.362,-139.19 -57.764,-121.592L0,-63.828ZM-135.196,-140.592L-198.357,-77.43C-223.495,-52.292 -223.495,-11.535 -198.357,13.603L-135.196,76.765C-110.058,101.903 -69.3,101.903 -44.162,76.765L19,13.603C44.139,-11.536 44.138,-52.292 19,-77.43L-44.162,-140.592C-69.3,-165.73 -110.056,-165.731 -135.196,-140.592" style="fill:white;fill-rule:nonzero;"/>
                </g>
                <g transform="matrix(1,0,0,1,899.197,1354.75)">
                    <path d="M0,-63.828C17.598,-46.23 17.598,-17.596 0,0.001L-57.764,57.765C-75.362,75.363 -103.996,75.363 -121.593,57.765L-179.358,0.001C-196.955,-17.596 -196.954,-46.229 -179.356,-63.827L-121.592,-121.591C-103.995,-139.189 -75.362,-139.19 -57.764,-121.592L0,-63.828ZM-135.196,-140.592L-198.357,-77.43C-223.495,-52.292 -223.495,-11.535 -198.357,13.603L-135.196,76.765C-110.058,101.903 -69.3,101.903 -44.162,76.765L19,13.603C44.139,-11.536 44.138,-52.292 19,-77.43L-44.162,-140.592C-69.3,-165.73 -110.056,-165.731 -135.196,-140.592" style="fill:white;fill-rule:nonzero;"/>
                </g>
                <g transform="matrix(1,0,0,1,1240.19,1013.76)">
                    <path d="M0,-63.828C17.598,-46.23 17.598,-17.596 0,0.001L-57.764,57.765C-75.362,75.363 -103.996,75.363 -121.593,57.765L-179.358,0.001C-196.955,-17.596 -196.954,-46.229 -179.356,-63.827L-121.592,-121.591C-103.995,-139.189 -75.362,-139.19 -57.764,-121.592L0,-63.828ZM-135.196,-140.592L-198.357,-77.43C-223.495,-52.292 -223.495,-11.535 -198.357,13.603L-135.196,76.765C-110.058,101.903 -69.3,101.903 -44.162,76.765L19,13.603C44.139,-11.536 44.138,-52.292 19,-77.43L-44.162,-140.592C-69.3,-165.73 -110.056,-165.731 -135.196,-140.592" style="fill:white;fill-rule:nonzero;"/>
                </g>
                <g transform="matrix(1,0,0,1,558.256,1694.92)">
                    <path d="M0,-63.828C17.598,-46.23 17.598,-17.596 0,0.001L-57.764,57.765C-75.362,75.363 -103.996,75.363 -121.593,57.765L-179.358,0.001C-196.955,-17.596 -196.954,-46.229 -179.356,-63.827L-121.592,-121.591C-103.995,-139.189 -75.362,-139.19 -57.764,-121.592L0,-63.828ZM-135.196,-140.592L-198.357,-77.43C-223.495,-52.292 -223.495,-11.535 -198.357,13.603L-135.196,76.765C-110.058,101.903 -69.3,101.903 -44.162,76.765L19,13.603C44.139,-11.536 44.138,-52.292 19,-77.43L-44.162,-140.592C-69.3,-165.73 -110.056,-165.731 -135.196,-140.592" style="fill:white;fill-rule:nonzero;"/>
                </g>
                <g transform="matrix(1,0,0,1,387.76,1524.43)">
                    <path d="M0,-63.828C17.598,-46.23 17.598,-17.596 0,0.001L-57.764,57.765C-75.362,75.363 -103.996,75.363 -121.593,57.765L-179.358,0.001C-196.955,-17.596 -196.954,-46.229 -179.356,-63.827L-121.592,-121.591C-103.995,-139.189 -75.362,-139.19 -57.764,-121.592L0,-63.828ZM-135.196,-140.592L-198.357,-77.43C-223.495,-52.292 -223.495,-11.535 -198.357,13.603L-135.196,76.765C-110.058,101.903 -69.3,101.903 -44.162,76.765L19,13.603C44.139,-11.536 44.138,-52.292 19,-77.43L-44.162,-140.592C-69.3,-165.73 -110.056,-165.731 -135.196,-140.592" style="fill:white;fill-rule:nonzero;"/>
                </g>
                <g transform="matrix(1,0,0,1,728.752,1524.43)">
                    <path d="M0,-63.828C17.598,-46.23 17.598,-17.596 0,0.001L-57.764,57.765C-75.362,75.363 -103.996,75.363 -121.593,57.765L-179.358,0.001C-196.955,-17.596 -196.954,-46.229 -179.356,-63.827L-121.592,-121.591C-103.995,-139.189 -75.362,-139.19 -57.764,-121.592L0,-63.828ZM-135.196,-140.592L-198.357,-77.43C-223.495,-52.292 -223.495,-11.535 -198.357,13.603L-135.196,76.765C-110.058,101.903 -69.3,101.903 -44.162,76.765L19,13.603C44.139,-11.536 44.138,-52.292 19,-77.43L-44.162,-140.592C-69.3,-165.73 -110.056,-165.731 -135.196,-140.592" style="fill:white;fill-rule:nonzero;"/>
                </g>
                <g transform="matrix(1,0,0,1,1240.24,1694.92)">
                    <path d="M0,-63.828C17.598,-46.23 17.598,-17.596 0,0.001L-57.764,57.765C-75.362,75.363 -103.996,75.363 -121.593,57.765L-179.358,0.001C-196.955,-17.596 -196.954,-46.229 -179.356,-63.827L-121.592,-121.591C-103.995,-139.189 -75.362,-139.19 -57.764,-121.592L0,-63.828ZM-135.196,-140.592L-198.357,-77.43C-223.495,-52.292 -223.495,-11.535 -198.357,13.603L-135.196,76.765C-110.058,101.903 -69.3,101.903 -44.162,76.765L19,13.603C44.139,-11.536 44.138,-52.292 19,-77.43L-44.162,-140.592C-69.3,-165.73 -110.056,-165.731 -135.196,-140.592" style="fill:white;fill-rule:nonzero;"/>
                </g>
            </g>
        </g>
    </g>
    <g transform="matrix(1,0,0,1,170.496,1301.09)">
        <g opacity="0.09">
            <g>
                <g transform="matrix(1,0,0,1,387.707,841.428)">
                    <path d="M0,-63.828C17.598,-46.23 17.598,-17.596 0,0.001L-57.764,57.765C-75.362,75.363 -103.996,75.363 -121.593,57.765L-179.358,0.001C-196.955,-17.596 -196.954,-46.229 -179.356,-63.827L-121.592,-121.591C-103.995,-139.189 -75.362,-139.19 -57.764,-121.592L0,-63.828ZM-135.196,-140.592L-198.357,-77.43C-223.495,-52.292 -223.495,-11.535 -198.357,13.603L-135.196,76.765C-110.058,101.903 -69.3,101.903 -44.162,76.765L19,13.603C44.139,-11.536 44.138,-52.292 19,-77.43L-44.162,-140.592C-69.3,-165.73 -110.056,-165.731 -135.196,-140.592" style="fill:white;fill-rule:nonzero;"/>
                </g>
                <g transform="matrix(1,0,0,1,217.211,670.932)">
                    <path d="M0,-63.828C17.598,-46.23 17.598,-17.596 0,0.001L-57.764,57.765C-75.362,75.363 -103.996,75.363 -121.593,57.765L-179.358,0.001C-196.955,-17.596 -196.954,-46.229 -179.356,-63.827L-121.592,-121.591C-103.995,-139.189 -75.362,-139.19 -57.764,-121.592L0,-63.828ZM-135.196,-140.592L-198.357,-77.43C-223.495,-52.292 -223.495,-11.535 -198.357,13.603L-135.196,76.765C-110.058,101.903 -69.3,101.903 -44.162,76.765L19,13.603C44.139,-11.536 44.138,-52.292 19,-77.43L-44.162,-140.592C-69.3,-165.73 -110.056,-165.731 -135.196,-140.592" style="fill:white;fill-rule:nonzero;"/>
                </g>
                <g transform="matrix(1,0,0,1,387.707,500.436)">
                    <path d="M0,-63.828C17.598,-46.23 17.598,-17.596 0,0.001L-57.764,57.765C-75.362,75.363 -103.996,75.363 -121.593,57.765L-179.358,0.001C-196.955,-17.596 -196.954,-46.229 -179.356,-63.827L-121.592,-121.591C-103.995,-139.189 -75.362,-139.19 -57.764,-121.592L0,-63.828ZM-135.196,-140.592L-198.357,-77.43C-223.495,-52.292 -223.495,-11.535 -198.357,13.603L-135.196,76.765C-110.058,101.903 -69.3,101.903 -44.162,76.765L19,13.603C44.139,-11.536 44.138,-52.292 19,-77.43L-44.162,-140.592C-69.3,-165.73 -110.056,-165.731 -135.196,-140.592" style="fill:white;fill-rule:nonzero;"/>
                </g>
                <g transform="matrix(1,0,0,1,728.7,841.429)">
                    <path d="M0,-63.828C17.598,-46.23 17.598,-17.596 0,0.001L-57.764,57.765C-75.362,75.363 -103.996,75.363 -121.593,57.765L-179.358,0.001C-196.955,-17.596 -196.954,-46.229 -179.356,-63.827L-121.592,-121.591C-103.995,-139.189 -75.362,-139.19 -57.764,-121.592L0,-63.828ZM-135.196,-140.592L-198.357,-77.43C-223.495,-52.292 -223.495,-11.535 -198.357,13.603L-135.196,76.765C-110.058,101.903 -69.3,101.903 -44.162,76.765L19,13.603C44.139,-11.536 44.138,-52.292 19,-77.43L-44.162,-140.592C-69.3,-165.73 -110.056,-165.731 -135.196,-140.592" style="fill:white;fill-rule:nonzero;"/>
                </g>
                <g transform="matrix(1,0,0,1,1240.19,670.933)">
                    <path d="M0,-63.828C17.598,-46.23 17.598,-17.596 0,0.001L-57.764,57.765C-75.362,75.363 -103.996,75.363 -121.593,57.765L-179.358,0.001C-196.955,-17.596 -196.954,-46.229 -179.356,-63.827L-121.592,-121.591C-103.995,-139.189 -75.362,-139.19 -57.764,-121.592L0,-63.828ZM-135.196,-140.592L-198.357,-77.43C-223.495,-52.292 -223.495,-11.535 -198.357,13.603L-135.196,76.765C-110.058,101.903 -69.3,101.903 -44.162,76.765L19,13.603C44.139,-11.536 44.138,-52.292 19,-77.43L-44.162,-140.592C-69.3,-165.73 -110.056,-165.731 -135.196,-140.592" style="fill:white;fill-rule:nonzero;"/>
                </g>
                <g transform="matrix(1,0,0,1,1069.69,500.437)">
                    <path d="M0,-63.828C17.598,-46.23 17.598,-17.596 0,0.001L-57.764,57.765C-75.362,75.363 -103.996,75.363 -121.593,57.765L-179.358,0.001C-196.955,-17.596 -196.954,-46.229 -179.356,-63.827L-121.592,-121.591C-103.995,-139.189 -75.362,-139.19 -57.764,-121.592L0,-63.828ZM-135.196,-140.592L-198.357,-77.43C-223.495,-52.292 -223.495,-11.535 -198.357,13.603L-135.196,76.765C-110.058,101.903 -69.3,101.903 -44.162,76.765L19,13.603C44.139,-11.536 44.138,-52.292 19,-77.43L-44.162,-140.592C-69.3,-165.73 -110.056,-165.731 -135.196,-140.592" style="fill:white;fill-rule:nonzero;"/>
                </g>
                <g transform="matrix(1,0,0,1,728.699,1184.25)">
                    <path d="M0,-63.828C17.598,-46.23 17.598,-17.596 0,0.001L-57.764,57.765C-75.362,75.363 -103.996,75.363 -121.593,57.765L-179.358,0.001C-196.955,-17.596 -196.954,-46.229 -179.356,-63.827L-121.592,-121.591C-103.995,-139.189 -75.362,-139.19 -57.764,-121.592L0,-63.828ZM-135.196,-140.592L-198.357,-77.43C-223.495,-52.292 -223.495,-11.535 -198.357,13.603L-135.196,76.765C-110.058,101.903 -69.3,101.903 -44.162,76.765L19,13.603C44.139,-11.536 44.138,-52.292 19,-77.43L-44.162,-140.592C-69.3,-165.73 -110.056,-165.731 -135.196,-140.592" style="fill:white;fill-rule:nonzero;"/>
                </g>
                <g transform="matrix(1,0,0,1,387.707,1184.25)">
                    <path d="M0,-63.828C17.598,-46.23 17.598,-17.596 0,0.001L-57.764,57.765C-75.362,75.363 -103.996,75.363 -121.593,57.765L-179.358,0.001C-196.955,-17.596 -196.954,-46.229 -179.356,-63.827L-121.592,-121.591C-103.995,-139.189 -75.362,-139.19 -57.764,-121.592L0,-63.828ZM-135.196,-140.592L-198.357,-77.43C-223.495,-52.292 -223.495,-11.535 -198.357,13.603L-135.196,76.765C-110.058,101.903 -69.3,101.903 -44.162,76.765L19,13.603C44.139,-11.536 44.138,-52.292 19,-77.43L-44.162,-140.592C-69.3,-165.73 -110.056,-165.731 -135.196,-140.592" style="fill:white;fill-rule:nonzero;"/>
                </g>
                <g transform="matrix(1,0,0,1,899.195,1013.76)">
                    <path d="M0,-63.828C17.598,-46.23 17.598,-17.596 0,0.001L-57.764,57.765C-75.362,75.363 -103.996,75.363 -121.593,57.765L-179.358,0.001C-196.955,-17.596 -196.954,-46.229 -179.356,-63.827L-121.592,-121.591C-103.995,-139.189 -75.362,-139.19 -57.764,-121.592L0,-63.828ZM-135.196,-140.592L-198.357,-77.43C-223.495,-52.292 -223.495,-11.535 -198.357,13.603L-135.196,76.765C-110.058,101.903 -69.3,101.903 -44.162,76.765L19,13.603C44.139,-11.536 44.138,-52.292 19,-77.43L-44.162,-140.592C-69.3,-165.73 -110.056,-165.731 -135.196,-140.592" style="fill:white;fill-rule:nonzero;"/>
                </g>
                <g transform="matrix(1,0,0,1,558.256,1694.92)">
                    <path d="M0,-63.828C17.598,-46.23 17.598,-17.596 0,0.001L-57.764,57.765C-75.362,75.363 -103.996,75.363 -121.593,57.765L-179.358,0.001C-196.955,-17.596 -196.954,-46.229 -179.356,-63.827L-121.592,-121.591C-103.995,-139.189 -75.362,-139.19 -57.764,-121.592L0,-63.828ZM-135.196,-140.592L-198.357,-77.43C-223.495,-52.292 -223.495,-11.535 -198.357,13.603L-135.196,76.765C-110.058,101.903 -69.3,101.903 -44.162,76.765L19,13.603C44.139,-11.536 44.138,-52.292 19,-77.43L-44.162,-140.592C-69.3,-165.73 -110.056,-165.731 -135.196,-140.592" style="fill:white;fill-rule:nonzero;"/>
                </g>
                <g transform="matrix(1,0,0,1,217.263,1694.92)">
                    <path d="M0,-63.828C17.598,-46.23 17.598,-17.596 0,0.001L-57.764,57.765C-75.362,75.363 -103.996,75.363 -121.593,57.765L-179.358,0.001C-196.955,-17.596 -196.954,-46.229 -179.356,-63.827L-121.592,-121.591C-103.995,-139.189 -75.362,-139.19 -57.764,-121.592L0,-63.828ZM-135.196,-140.592L-198.357,-77.43C-223.495,-52.292 -223.495,-11.535 -198.357,13.603L-135.196,76.765C-110.058,101.903 -69.3,101.903 -44.162,76.765L19,13.603C44.139,-11.536 44.138,-52.292 19,-77.43L-44.162,-140.592C-69.3,-165.73 -110.056,-165.731 -135.196,-140.592" style="fill:white;fill-rule:nonzero;"/>
                </g>
                <g transform="matrix(1,0,0,1,387.76,1524.43)">
                    <path d="M0,-63.828C17.598,-46.23 17.598,-17.596 0,0.001L-57.764,57.765C-75.362,75.363 -103.996,75.363 -121.593,57.765L-179.358,0.001C-196.955,-17.596 -196.954,-46.229 -179.356,-63.827L-121.592,-121.591C-103.995,-139.189 -75.362,-139.19 -57.764,-121.592L0,-63.828ZM-135.196,-140.592L-198.357,-77.43C-223.495,-52.292 -223.495,-11.535 -198.357,13.603L-135.196,76.765C-110.058,101.903 -69.3,101.903 -44.162,76.765L19,13.603C44.139,-11.536 44.138,-52.292 19,-77.43L-44.162,-140.592C-69.3,-165.73 -110.056,-165.731 -135.196,-140.592" style="fill:white;fill-rule:nonzero;"/>
                </g>
                <g transform="matrix(1,0,0,1,1069.75,1865.42)">
                    <path d="M0,-63.828C17.598,-46.23 17.598,-17.596 0,0.001L-57.764,57.765C-75.362,75.363 -103.996,75.363 -121.593,57.765L-179.358,0.001C-196.955,-17.596 -196.954,-46.229 -179.356,-63.827L-121.592,-121.591C-103.995,-139.189 -75.362,-139.19 -57.764,-121.592L0,-63.828ZM-135.196,-140.592L-198.357,-77.43C-223.495,-52.292 -223.495,-11.535 -198.357,13.603L-135.196,76.765C-110.058,101.903 -69.3,101.903 -44.162,76.765L19,13.603C44.139,-11.536 44.138,-52.292 19,-77.43L-44.162,-140.592C-69.3,-165.73 -110.056,-165.731 -135.196,-140.592" style="fill:white;fill-rule:nonzero;"/>
                </g>
                <g transform="matrix(1,0,0,1,899.249,1694.92)">
                    <path d="M0,-63.828C17.598,-46.23 17.598,-17.596 0,0.001L-57.764,57.765C-75.362,75.363 -103.996,75.363 -121.593,57.765L-179.358,0.001C-196.955,-17.596 -196.954,-46.229 -179.356,-63.827L-121.592,-121.591C-103.995,-139.189 -75.362,-139.19 -57.764,-121.592L0,-63.828ZM-135.196,-140.592L-198.357,-77.43C-223.495,-52.292 -223.495,-11.535 -198.357,13.603L-135.196,76.765C-110.058,101.903 -69.3,101.903 -44.162,76.765L19,13.603C44.139,-11.536 44.138,-52.292 19,-77.43L-44.162,-140.592C-69.3,-165.73 -110.056,-165.731 -135.196,-140.592" style="fill:white;fill-rule:nonzero;"/>
                </g>
                <g transform="matrix(1,0,0,1,1069.75,1524.43)">
                    <path d="M0,-63.828C17.598,-46.23 17.598,-17.596 0,0.001L-57.764,57.765C-75.362,75.363 -103.996,75.363 -121.593,57.765L-179.358,0.001C-196.955,-17.596 -196.954,-46.229 -179.356,-63.827L-121.592,-121.591C-103.995,-139.189 -75.362,-139.19 -57.764,-121.592L0,-63.828ZM-135.196,-140.592L-198.357,-77.43C-223.495,-52.292 -223.495,-11.535 -198.357,13.603L-135.196,76.765C-110.058,101.903 -69.3,101.903 -44.162,76.765L19,13.603C44.139,-11.536 44.138,-52.292 19,-77.43L-44.162,-140.592C-69.3,-165.73 -110.056,-165.731 -135.196,-140.592" style="fill:white;fill-rule:nonzero;"/>
                </g>
            </g>
        </g>
    </g>
    <g transform="matrix(1,0,0,1,2045,2499.25)">
        <g opacity="0.09">
            <g>
                <g transform="matrix(1,0,0,1,558.203,670.932)">
                    <path d="M0,-63.828C17.598,-46.23 17.598,-17.596 0,0.001L-57.764,57.765C-75.362,75.363 -103.996,75.363 -121.593,57.765L-179.358,0.001C-196.955,-17.596 -196.954,-46.229 -179.356,-63.827L-121.592,-121.591C-103.995,-139.189 -75.362,-139.19 -57.764,-121.592L0,-63.828ZM-135.196,-140.592L-198.357,-77.43C-223.495,-52.292 -223.495,-11.535 -198.357,13.603L-135.196,76.765C-110.058,101.903 -69.3,101.903 -44.162,76.765L19,13.603C44.139,-11.536 44.138,-52.292 19,-77.43L-44.162,-140.592C-69.3,-165.73 -110.056,-165.731 -135.196,-140.592" style="fill:white;fill-rule:nonzero;"/>
                </g>
                <g transform="matrix(1,0,0,1,387.707,500.436)">
                    <path d="M0,-63.828C17.598,-46.23 17.598,-17.596 0,0.001L-57.764,57.765C-75.362,75.363 -103.996,75.363 -121.593,57.765L-179.358,0.001C-196.955,-17.596 -196.954,-46.229 -179.356,-63.827L-121.592,-121.591C-103.995,-139.189 -75.362,-139.19 -57.764,-121.592L0,-63.828ZM-135.196,-140.592L-198.357,-77.43C-223.495,-52.292 -223.495,-11.535 -198.357,13.603L-135.196,76.765C-110.058,101.903 -69.3,101.903 -44.162,76.765L19,13.603C44.139,-11.536 44.138,-52.292 19,-77.43L-44.162,-140.592C-69.3,-165.73 -110.056,-165.731 -135.196,-140.592" style="fill:white;fill-rule:nonzero;"/>
                </g>
                <g transform="matrix(1,0,0,1,728.7,841.429)">
                    <path d="M0,-63.828C17.598,-46.23 17.598,-17.596 0,0.001L-57.764,57.765C-75.362,75.363 -103.996,75.363 -121.593,57.765L-179.358,0.001C-196.955,-17.596 -196.954,-46.229 -179.356,-63.827L-121.592,-121.591C-103.995,-139.189 -75.362,-139.19 -57.764,-121.592L0,-63.828ZM-135.196,-140.592L-198.357,-77.43C-223.495,-52.292 -223.495,-11.535 -198.357,13.603L-135.196,76.765C-110.058,101.903 -69.3,101.903 -44.162,76.765L19,13.603C44.139,-11.536 44.138,-52.292 19,-77.43L-44.162,-140.592C-69.3,-165.73 -110.056,-165.731 -135.196,-140.592" style="fill:white;fill-rule:nonzero;"/>
                </g>
                <g transform="matrix(1,0,0,1,1069.69,841.429)">
                    <path d="M0,-63.828C17.598,-46.23 17.598,-17.596 0,0.001L-57.764,57.765C-75.362,75.363 -103.996,75.363 -121.593,57.765L-179.358,0.001C-196.955,-17.596 -196.954,-46.229 -179.356,-63.827L-121.592,-121.591C-103.995,-139.189 -75.362,-139.19 -57.764,-121.592L0,-63.828ZM-135.196,-140.592L-198.357,-77.43C-223.495,-52.292 -223.495,-11.535 -198.357,13.603L-135.196,76.765C-110.058,101.903 -69.3,101.903 -44.162,76.765L19,13.603C44.139,-11.536 44.138,-52.292 19,-77.43L-44.162,-140.592C-69.3,-165.73 -110.056,-165.731 -135.196,-140.592" style="fill:white;fill-rule:nonzero;"/>
                </g>
                <g transform="matrix(1,0,0,1,1240.19,670.933)">
                    <path d="M0,-63.828C17.598,-46.23 17.598,-17.596 0,0.001L-57.764,57.765C-75.362,75.363 -103.996,75.363 -121.593,57.765L-179.358,0.001C-196.955,-17.596 -196.954,-46.229 -179.356,-63.827L-121.592,-121.591C-103.995,-139.189 -75.362,-139.19 -57.764,-121.592L0,-63.828ZM-135.196,-140.592L-198.357,-77.43C-223.495,-52.292 -223.495,-11.535 -198.357,13.603L-135.196,76.765C-110.058,101.903 -69.3,101.903 -44.162,76.765L19,13.603C44.139,-11.536 44.138,-52.292 19,-77.43L-44.162,-140.592C-69.3,-165.73 -110.056,-165.731 -135.196,-140.592" style="fill:white;fill-rule:nonzero;"/>
                </g>
                <g transform="matrix(1,0,0,1,1069.69,500.437)">
                    <path d="M0,-63.828C17.598,-46.23 17.598,-17.596 0,0.001L-57.764,57.765C-75.362,75.363 -103.996,75.363 -121.593,57.765L-179.358,0.001C-196.955,-17.596 -196.954,-46.229 -179.356,-63.827L-121.592,-121.591C-103.995,-139.189 -75.362,-139.19 -57.764,-121.592L0,-63.828ZM-135.196,-140.592L-198.357,-77.43C-223.495,-52.292 -223.495,-11.535 -198.357,13.603L-135.196,76.765C-110.058,101.903 -69.3,101.903 -44.162,76.765L19,13.603C44.139,-11.536 44.138,-52.292 19,-77.43L-44.162,-140.592C-69.3,-165.73 -110.056,-165.731 -135.196,-140.592" style="fill:white;fill-rule:nonzero;"/>
                </g>
                <g transform="matrix(1,0,0,1,728.699,1184.25)">
                    <path d="M0,-63.828C17.598,-46.23 17.598,-17.596 0,0.001L-57.764,57.765C-75.362,75.363 -103.996,75.363 -121.593,57.765L-179.358,0.001C-196.955,-17.596 -196.954,-46.229 -179.356,-63.827L-121.592,-121.591C-103.995,-139.189 -75.362,-139.19 -57.764,-121.592L0,-63.828ZM-135.196,-140.592L-198.357,-77.43C-223.495,-52.292 -223.495,-11.535 -198.357,13.603L-135.196,76.765C-110.058,101.903 -69.3,101.903 -44.162,76.765L19,13.603C44.139,-11.536 44.138,-52.292 19,-77.43L-44.162,-140.592C-69.3,-165.73 -110.056,-165.731 -135.196,-140.592" style="fill:white;fill-rule:nonzero;"/>
                </g>
                <g transform="matrix(1,0,0,1,1069.69,1184.25)">
                    <path d="M0,-63.828C17.598,-46.23 17.598,-17.596 0,0.001L-57.764,57.765C-75.362,75.363 -103.996,75.363 -121.593,57.765L-179.358,0.001C-196.955,-17.596 -196.954,-46.229 -179.356,-63.827L-121.592,-121.591C-103.995,-139.189 -75.362,-139.19 -57.764,-121.592L0,-63.828ZM-135.196,-140.592L-198.357,-77.43C-223.495,-52.292 -223.495,-11.535 -198.357,13.603L-135.196,76.765C-110.058,101.903 -69.3,101.903 -44.162,76.765L19,13.603C44.139,-11.536 44.138,-52.292 19,-77.43L-44.162,-140.592C-69.3,-165.73 -110.056,-165.731 -135.196,-140.592" style="fill:white;fill-rule:nonzero;"/>
                </g>
                <g transform="matrix(1,0,0,1,728.753,1865.42)">
                    <path d="M0,-63.828C17.598,-46.23 17.598,-17.596 0,0.001L-57.764,57.765C-75.362,75.363 -103.996,75.363 -121.593,57.765L-179.358,0.001C-196.955,-17.596 -196.954,-46.229 -179.356,-63.827L-121.592,-121.591C-103.995,-139.189 -75.362,-139.19 -57.764,-121.592L0,-63.828ZM-135.196,-140.592L-198.357,-77.43C-223.495,-52.292 -223.495,-11.535 -198.357,13.603L-135.196,76.765C-110.058,101.903 -69.3,101.903 -44.162,76.765L19,13.603C44.139,-11.536 44.138,-52.292 19,-77.43L-44.162,-140.592C-69.3,-165.73 -110.056,-165.731 -135.196,-140.592" style="fill:white;fill-rule:nonzero;"/>
                </g>
                <g transform="matrix(1,0,0,1,1240.24,1694.92)">
                    <path d="M0,-63.828C17.598,-46.23 17.598,-17.596 0,0.001L-57.764,57.765C-75.362,75.363 -103.996,75.363 -121.593,57.765L-179.358,0.001C-196.955,-17.596 -196.954,-46.229 -179.356,-63.827L-121.592,-121.591C-103.995,-139.189 -75.362,-139.19 -57.764,-121.592L0,-63.828ZM-135.196,-140.592L-198.357,-77.43C-223.495,-52.292 -223.495,-11.535 -198.357,13.603L-135.196,76.765C-110.058,101.903 -69.3,101.903 -44.162,76.765L19,13.603C44.139,-11.536 44.138,-52.292 19,-77.43L-44.162,-140.592C-69.3,-165.73 -110.056,-165.731 -135.196,-140.592" style="fill:white;fill-rule:nonzero;"/>
                </g>
                <g transform="matrix(1,0,0,1,899.249,1694.92)">
                    <path d="M0,-63.828C17.598,-46.23 17.598,-17.596 0,0.001L-57.764,57.765C-75.362,75.363 -103.996,75.363 -121.593,57.765L-179.358,0.001C-196.955,-17.596 -196.954,-46.229 -179.356,-63.827L-121.592,-121.591C-103.995,-139.189 -75.362,-139.19 -57.764,-121.592L0,-63.828ZM-135.196,-140.592L-198.357,-77.43C-223.495,-52.292 -223.495,-11.535 -198.357,13.603L-135.196,76.765C-110.058,101.903 -69.3,101.903 -44.162,76.765L19,13.603C44.139,-11.536 44.138,-52.292 19,-77.43L-44.162,-140.592C-69.3,-165.73 -110.056,-165.731 -135.196,-140.592" style="fill:white;fill-rule:nonzero;"/>
                </g>
            </g>
        </g>
    </g>
    <g transform="matrix(1,0,0,1,0.504144,2832.11)">
        <g opacity="0.09">
            <g>
                <g transform="matrix(1,0,0,1,558.203,670.932)">
                    <path d="M0,-63.828C17.598,-46.23 17.598,-17.596 0,0.001L-57.764,57.765C-75.362,75.363 -103.996,75.363 -121.593,57.765L-179.358,0.001C-196.955,-17.596 -196.954,-46.229 -179.356,-63.827L-121.592,-121.591C-103.995,-139.189 -75.362,-139.19 -57.764,-121.592L0,-63.828ZM-135.196,-140.592L-198.357,-77.43C-223.495,-52.292 -223.495,-11.535 -198.357,13.603L-135.196,76.765C-110.058,101.903 -69.3,101.903 -44.162,76.765L19,13.603C44.139,-11.536 44.138,-52.292 19,-77.43L-44.162,-140.592C-69.3,-165.73 -110.056,-165.731 -135.196,-140.592" style="fill:white;fill-rule:nonzero;"/>
                </g>
                <g transform="matrix(1,0,0,1,217.211,670.932)">
                    <path d="M0,-63.828C17.598,-46.23 17.598,-17.596 0,0.001L-57.764,57.765C-75.362,75.363 -103.996,75.363 -121.593,57.765L-179.358,0.001C-196.955,-17.596 -196.954,-46.229 -179.356,-63.827L-121.592,-121.591C-103.995,-139.189 -75.362,-139.19 -57.764,-121.592L0,-63.828ZM-135.196,-140.592L-198.357,-77.43C-223.495,-52.292 -223.495,-11.535 -198.357,13.603L-135.196,76.765C-110.058,101.903 -69.3,101.903 -44.162,76.765L19,13.603C44.139,-11.536 44.138,-52.292 19,-77.43L-44.162,-140.592C-69.3,-165.73 -110.056,-165.731 -135.196,-140.592" style="fill:white;fill-rule:nonzero;"/>
                </g>
                <g transform="matrix(1,0,0,1,387.707,500.436)">
                    <path d="M0,-63.828C17.598,-46.23 17.598,-17.596 0,0.001L-57.764,57.765C-75.362,75.363 -103.996,75.363 -121.593,57.765L-179.358,0.001C-196.955,-17.596 -196.954,-46.229 -179.356,-63.827L-121.592,-121.591C-103.995,-139.189 -75.362,-139.19 -57.764,-121.592L0,-63.828ZM-135.196,-140.592L-198.357,-77.43C-223.495,-52.292 -223.495,-11.535 -198.357,13.603L-135.196,76.765C-110.058,101.903 -69.3,101.903 -44.162,76.765L19,13.603C44.139,-11.536 44.138,-52.292 19,-77.43L-44.162,-140.592C-69.3,-165.73 -110.056,-165.731 -135.196,-140.592" style="fill:white;fill-rule:nonzero;"/>
                </g>
                <g transform="matrix(1,0,0,1,728.699,500.436)">
                    <path d="M0,-63.828C17.598,-46.23 17.598,-17.596 0,0.001L-57.764,57.765C-75.362,75.363 -103.996,75.363 -121.593,57.765L-179.358,0.001C-196.955,-17.596 -196.954,-46.229 -179.356,-63.827L-121.592,-121.591C-103.995,-139.189 -75.362,-139.19 -57.764,-121.592L0,-63.828ZM-135.196,-140.592L-198.357,-77.43C-223.495,-52.292 -223.495,-11.535 -198.357,13.603L-135.196,76.765C-110.058,101.903 -69.3,101.903 -44.162,76.765L19,13.603C44.139,-11.536 44.138,-52.292 19,-77.43L-44.162,-140.592C-69.3,-165.73 -110.056,-165.731 -135.196,-140.592" style="fill:white;fill-rule:nonzero;"/>
                </g>
                <g transform="matrix(1,0,0,1,728.7,841.429)">
                    <path d="M0,-63.828C17.598,-46.23 17.598,-17.596 0,0.001L-57.764,57.765C-75.362,75.363 -103.996,75.363 -121.593,57.765L-179.358,0.001C-196.955,-17.596 -196.954,-46.229 -179.356,-63.827L-121.592,-121.591C-103.995,-139.189 -75.362,-139.19 -57.764,-121.592L0,-63.828ZM-135.196,-140.592L-198.357,-77.43C-223.495,-52.292 -223.495,-11.535 -198.357,13.603L-135.196,76.765C-110.058,101.903 -69.3,101.903 -44.162,76.765L19,13.603C44.139,-11.536 44.138,-52.292 19,-77.43L-44.162,-140.592C-69.3,-165.73 -110.056,-165.731 -135.196,-140.592" style="fill:white;fill-rule:nonzero;"/>
                </g>
                <g transform="matrix(1,0,0,1,1069.69,841.429)">
                    <path d="M0,-63.828C17.598,-46.23 17.598,-17.596 0,0.001L-57.764,57.765C-75.362,75.363 -103.996,75.363 -121.593,57.765L-179.358,0.001C-196.955,-17.596 -196.954,-46.229 -179.356,-63.827L-121.592,-121.591C-103.995,-139.189 -75.362,-139.19 -57.764,-121.592L0,-63.828ZM-135.196,-140.592L-198.357,-77.43C-223.495,-52.292 -223.495,-11.535 -198.357,13.603L-135.196,76.765C-110.058,101.903 -69.3,101.903 -44.162,76.765L19,13.603C44.139,-11.536 44.138,-52.292 19,-77.43L-44.162,-140.592C-69.3,-165.73 -110.056,-165.731 -135.196,-140.592" style="fill:white;fill-rule:nonzero;"/>
                </g>
                <g transform="matrix(1,0,0,1,1240.19,670.933)">
                    <path d="M0,-63.828C17.598,-46.23 17.598,-17.596 0,0.001L-57.764,57.765C-75.362,75.363 -103.996,75.363 -121.593,57.765L-179.358,0.001C-196.955,-17.596 -196.954,-46.229 -179.356,-63.827L-121.592,-121.591C-103.995,-139.189 -75.362,-139.19 -57.764,-121.592L0,-63.828ZM-135.196,-140.592L-198.357,-77.43C-223.495,-52.292 -223.495,-11.535 -198.357,13.603L-135.196,76.765C-110.058,101.903 -69.3,101.903 -44.162,76.765L19,13.603C44.139,-11.536 44.138,-52.292 19,-77.43L-44.162,-140.592C-69.3,-165.73 -110.056,-165.731 -135.196,-140.592" style="fill:white;fill-rule:nonzero;"/>
                </g>
                <g transform="matrix(1,0,0,1,899.197,670.933)">
                    <path d="M0,-63.828C17.598,-46.23 17.598,-17.596 0,0.001L-57.764,57.765C-75.362,75.363 -103.996,75.363 -121.593,57.765L-179.358,0.001C-196.955,-17.596 -196.954,-46.229 -179.356,-63.827L-121.592,-121.591C-103.995,-139.189 -75.362,-139.19 -57.764,-121.592L0,-63.828ZM-135.196,-140.592L-198.357,-77.43C-223.495,-52.292 -223.495,-11.535 -198.357,13.603L-135.196,76.765C-110.058,101.903 -69.3,101.903 -44.162,76.765L19,13.603C44.139,-11.536 44.138,-52.292 19,-77.43L-44.162,-140.592C-69.3,-165.73 -110.056,-165.731 -135.196,-140.592" style="fill:white;fill-rule:nonzero;"/>
                </g>
                <g transform="matrix(1,0,0,1,558.203,1354.75)">
                    <path d="M0,-63.828C17.598,-46.23 17.598,-17.596 0,0.001L-57.764,57.765C-75.362,75.363 -103.996,75.363 -121.593,57.765L-179.358,0.001C-196.955,-17.596 -196.954,-46.229 -179.356,-63.827L-121.592,-121.591C-103.995,-139.189 -75.362,-139.19 -57.764,-121.592L0,-63.828ZM-135.196,-140.592L-198.357,-77.43C-223.495,-52.292 -223.495,-11.535 -198.357,13.603L-135.196,76.765C-110.058,101.903 -69.3,101.903 -44.162,76.765L19,13.603C44.139,-11.536 44.138,-52.292 19,-77.43L-44.162,-140.592C-69.3,-165.73 -110.056,-165.731 -135.196,-140.592" style="fill:white;fill-rule:nonzero;"/>
                </g>
                <g transform="matrix(1,0,0,1,728.699,1184.25)">
                    <path d="M0,-63.828C17.598,-46.23 17.598,-17.596 0,0.001L-57.764,57.765C-75.362,75.363 -103.996,75.363 -121.593,57.765L-179.358,0.001C-196.955,-17.596 -196.954,-46.229 -179.356,-63.827L-121.592,-121.591C-103.995,-139.189 -75.362,-139.19 -57.764,-121.592L0,-63.828ZM-135.196,-140.592L-198.357,-77.43C-223.495,-52.292 -223.495,-11.535 -198.357,13.603L-135.196,76.765C-110.058,101.903 -69.3,101.903 -44.162,76.765L19,13.603C44.139,-11.536 44.138,-52.292 19,-77.43L-44.162,-140.592C-69.3,-165.73 -110.056,-165.731 -135.196,-140.592" style="fill:white;fill-rule:nonzero;"/>
                </g>
                <g transform="matrix(1,0,0,1,387.707,1184.25)">
                    <path d="M0,-63.828C17.598,-46.23 17.598,-17.596 0,0.001L-57.764,57.765C-75.362,75.363 -103.996,75.363 -121.593,57.765L-179.358,0.001C-196.955,-17.596 -196.954,-46.229 -179.356,-63.827L-121.592,-121.591C-103.995,-139.189 -75.362,-139.19 -57.764,-121.592L0,-63.828ZM-135.196,-140.592L-198.357,-77.43C-223.495,-52.292 -223.495,-11.535 -198.357,13.603L-135.196,76.765C-110.058,101.903 -69.3,101.903 -44.162,76.765L19,13.603C44.139,-11.536 44.138,-52.292 19,-77.43L-44.162,-140.592C-69.3,-165.73 -110.056,-165.731 -135.196,-140.592" style="fill:white;fill-rule:nonzero;"/>
                </g>
                <g transform="matrix(1,0,0,1,558.203,1013.76)">
                    <path d="M0,-63.828C17.598,-46.23 17.598,-17.596 0,0.001L-57.764,57.765C-75.362,75.363 -103.996,75.363 -121.593,57.765L-179.358,0.001C-196.955,-17.596 -196.954,-46.229 -179.356,-63.827L-121.592,-121.591C-103.995,-139.189 -75.362,-139.19 -57.764,-121.592L0,-63.828ZM-135.196,-140.592L-198.357,-77.43C-223.495,-52.292 -223.495,-11.535 -198.357,13.603L-135.196,76.765C-110.058,101.903 -69.3,101.903 -44.162,76.765L19,13.603C44.139,-11.536 44.138,-52.292 19,-77.43L-44.162,-140.592C-69.3,-165.73 -110.056,-165.731 -135.196,-140.592" style="fill:white;fill-rule:nonzero;"/>
                </g>
                <g transform="matrix(1,0,0,1,899.197,1354.75)">
                    <path d="M0,-63.828C17.598,-46.23 17.598,-17.596 0,0.001L-57.764,57.765C-75.362,75.363 -103.996,75.363 -121.593,57.765L-179.358,0.001C-196.955,-17.596 -196.954,-46.229 -179.356,-63.827L-121.592,-121.591C-103.995,-139.189 -75.362,-139.19 -57.764,-121.592L0,-63.828ZM-135.196,-140.592L-198.357,-77.43C-223.495,-52.292 -223.495,-11.535 -198.357,13.603L-135.196,76.765C-110.058,101.903 -69.3,101.903 -44.162,76.765L19,13.603C44.139,-11.536 44.138,-52.292 19,-77.43L-44.162,-140.592C-69.3,-165.73 -110.056,-165.731 -135.196,-140.592" style="fill:white;fill-rule:nonzero;"/>
                </g>
                <g transform="matrix(1,0,0,1,1410.68,1184.25)">
                    <path d="M0,-63.828C17.598,-46.23 17.598,-17.596 0,0.001L-57.764,57.765C-75.362,75.363 -103.996,75.363 -121.593,57.765L-179.358,0.001C-196.955,-17.596 -196.954,-46.229 -179.356,-63.827L-121.592,-121.591C-103.995,-139.189 -75.362,-139.19 -57.764,-121.592L0,-63.828ZM-135.196,-140.592L-198.357,-77.43C-223.495,-52.292 -223.495,-11.535 -198.357,13.603L-135.196,76.765C-110.058,101.903 -69.3,101.903 -44.162,76.765L19,13.603C44.139,-11.536 44.138,-52.292 19,-77.43L-44.162,-140.592C-69.3,-165.73 -110.056,-165.731 -135.196,-140.592" style="fill:white;fill-rule:nonzero;"/>
                </g>
                <g transform="matrix(1,0,0,1,217.263,1694.92)">
                    <path d="M0,-63.828C17.598,-46.23 17.598,-17.596 0,0.001L-57.764,57.765C-75.362,75.363 -103.996,75.363 -121.593,57.765L-179.358,0.001C-196.955,-17.596 -196.954,-46.229 -179.356,-63.827L-121.592,-121.591C-103.995,-139.189 -75.362,-139.19 -57.764,-121.592L0,-63.828ZM-135.196,-140.592L-198.357,-77.43C-223.495,-52.292 -223.495,-11.535 -198.357,13.603L-135.196,76.765C-110.058,101.903 -69.3,101.903 -44.162,76.765L19,13.603C44.139,-11.536 44.138,-52.292 19,-77.43L-44.162,-140.592C-69.3,-165.73 -110.056,-165.731 -135.196,-140.592" style="fill:white;fill-rule:nonzero;"/>
                </g>
                <g transform="matrix(1,0,0,1,728.753,1865.42)">
                    <path d="M0,-63.828C17.598,-46.23 17.598,-17.596 0,0.001L-57.764,57.765C-75.362,75.363 -103.996,75.363 -121.593,57.765L-179.358,0.001C-196.955,-17.596 -196.954,-46.229 -179.356,-63.827L-121.592,-121.591C-103.995,-139.189 -75.362,-139.19 -57.764,-121.592L0,-63.828ZM-135.196,-140.592L-198.357,-77.43C-223.495,-52.292 -223.495,-11.535 -198.357,13.603L-135.196,76.765C-110.058,101.903 -69.3,101.903 -44.162,76.765L19,13.603C44.139,-11.536 44.138,-52.292 19,-77.43L-44.162,-140.592C-69.3,-165.73 -110.056,-165.731 -135.196,-140.592" style="fill:white;fill-rule:nonzero;"/>
                </g>
                <g transform="matrix(1,0,0,1,1240.24,1694.92)">
                    <path d="M0,-63.828C17.598,-46.23 17.598,-17.596 0,0.001L-57.764,57.765C-75.362,75.363 -103.996,75.363 -121.593,57.765L-179.358,0.001C-196.955,-17.596 -196.954,-46.229 -179.356,-63.827L-121.592,-121.591C-103.995,-139.189 -75.362,-139.19 -57.764,-121.592L0,-63.828ZM-135.196,-140.592L-198.357,-77.43C-223.495,-52.292 -223.495,-11.535 -198.357,13.603L-135.196,76.765C-110.058,101.903 -69.3,101.903 -44.162,76.765L19,13.603C44.139,-11.536 44.138,-52.292 19,-77.43L-44.162,-140.592C-69.3,-165.73 -110.056,-165.731 -135.196,-140.592" style="fill:white;fill-rule:nonzero;"/>
                </g>
                <g transform="matrix(1,0,0,1,899.249,1694.92)">
                    <path d="M0,-63.828C17.598,-46.23 17.598,-17.596 0,0.001L-57.764,57.765C-75.362,75.363 -103.996,75.363 -121.593,57.765L-179.358,0.001C-196.955,-17.596 -196.954,-46.229 -179.356,-63.827L-121.592,-121.591C-103.995,-139.189 -75.362,-139.19 -57.764,-121.592L0,-63.828ZM-135.196,-140.592L-198.357,-77.43C-223.495,-52.292 -223.495,-11.535 -198.357,13.603L-135.196,76.765C-110.058,101.903 -69.3,101.903 -44.162,76.765L19,13.603C44.139,-11.536 44.138,-52.292 19,-77.43L-44.162,-140.592C-69.3,-165.73 -110.056,-165.731 -135.196,-140.592" style="fill:white;fill-rule:nonzero;"/>
                </g>
                <g transform="matrix(1,0,0,1,1069.75,1524.43)">
                    <path d="M0,-63.828C17.598,-46.23 17.598,-17.596 0,0.001L-57.764,57.765C-75.362,75.363 -103.996,75.363 -121.593,57.765L-179.358,0.001C-196.955,-17.596 -196.954,-46.229 -179.356,-63.827L-121.592,-121.591C-103.995,-139.189 -75.362,-139.19 -57.764,-121.592L0,-63.828ZM-135.196,-140.592L-198.357,-77.43C-223.495,-52.292 -223.495,-11.535 -198.357,13.603L-135.196,76.765C-110.058,101.903 -69.3,101.903 -44.162,76.765L19,13.603C44.139,-11.536 44.138,-52.292 19,-77.43L-44.162,-140.592C-69.3,-165.73 -110.056,-165.731 -135.196,-140.592" style="fill:white;fill-rule:nonzero;"/>
                </g>
            </g>
        </g>
    </g>
    <g transform="matrix(1.31569,1.30104e-18,-1.30104e-18,1.31569,1102.12,3748.45)">
        <g transform="matrix(1,0,0,1,730.584,538.272)">
            <path d="M0,-444.466C43.609,-488.075 114.568,-488.075 158.176,-444.466L301.323,-301.319C344.932,-257.711 344.932,-186.752 301.323,-143.143L158.176,0.004C114.568,43.612 43.612,43.61 0.003,0.001L-143.144,-143.146C-186.753,-186.755 -186.755,-257.711 -143.147,-301.319L0,-444.466ZM-190.23,-109.435L-33.708,47.087C28.587,109.382 129.589,109.382 191.884,47.087L348.406,-109.435C410.701,-171.73 410.701,-272.732 348.406,-335.027L191.884,-491.549C129.586,-553.848 28.587,-553.844 -33.708,-491.549L-190.23,-335.027C-252.525,-272.732 -252.528,-171.733 -190.23,-109.435" style="fill:rgb(255,0,207);fill-rule:nonzero;"/>
        </g>
        <g transform="matrix(1,0,0,1,-784.411,-346.541)">
            <g transform="matrix(132.12,0,0,132.12,1411.2,709.419)">
                <path d="M0.13,-0L0.201,-0L0.201,-0.717L0.031,-0.717L0.031,-0.654L0.13,-0.654L0.13,-0Z" style="fill:white;fill-rule:nonzero;"/>
            </g>
            <g transform="matrix(132.12,0,0,132.12,1453.08,709.419)">
                <path d="M0.065,-0.365C0.065,-0.156 0.111,0.002 0.308,0.002C0.504,0.002 0.551,-0.156 0.551,-0.365C0.551,-0.57 0.504,-0.727 0.308,-0.727C0.111,-0.727 0.065,-0.57 0.065,-0.365ZM0.482,-0.365C0.482,-0.197 0.46,-0.062 0.308,-0.062C0.156,-0.062 0.134,-0.197 0.134,-0.365C0.134,-0.527 0.156,-0.664 0.308,-0.664C0.46,-0.664 0.482,-0.527 0.482,-0.365Z" style="fill:white;fill-rule:nonzero;"/>
            </g>
            <g transform="matrix(132.12,0,0,132.12,1537.77,709.419)">
                <path d="M0.248,-0.272L0.248,-0L0.318,-0L0.318,-0.272L0.542,-0.699L0.464,-0.699L0.283,-0.336L0.101,-0.699L0.022,-0.699L0.248,-0.272Z" style="fill:rgb(255,0,207);fill-rule:nonzero;"/>
            </g>
            <g transform="matrix(132.12,0,0,132.12,1615.59,709.419)">
                <path d="M0.456,-0.496C0.456,-0.411 0.405,-0.349 0.291,-0.349L0.15,-0.349L0.15,-0.64L0.29,-0.64C0.408,-0.64 0.456,-0.584 0.456,-0.496ZM0.08,-0.699L0.08,-0L0.15,-0L0.15,-0.292L0.279,-0.292L0.452,-0L0.536,-0L0.356,-0.297C0.474,-0.319 0.528,-0.4 0.528,-0.496C0.528,-0.611 0.452,-0.699 0.29,-0.699L0.08,-0.699Z" style="fill:rgb(255,0,207);fill-rule:nonzero;"/>
            </g>
            <g transform="matrix(132.12,0,0,132.12,1696.44,709.419)">
                <path d="M0.517,-0.184C0.517,-0.444 0.133,-0.32 0.133,-0.522C0.133,-0.603 0.201,-0.648 0.283,-0.647C0.38,-0.646 0.427,-0.586 0.435,-0.537L0.511,-0.537C0.499,-0.633 0.419,-0.707 0.286,-0.707C0.151,-0.707 0.062,-0.628 0.062,-0.52C0.062,-0.257 0.446,-0.387 0.446,-0.181C0.446,-0.109 0.389,-0.052 0.292,-0.052C0.179,-0.052 0.136,-0.122 0.13,-0.18L0.056,-0.18C0.06,-0.073 0.152,0.007 0.292,0.007C0.44,0.007 0.517,-0.089 0.517,-0.184Z" style="fill:rgb(255,0,207);fill-rule:nonzero;"/>
            </g>
        </g>
        <g transform="matrix(1,0,0,1,-710.686,-158.047)">
            <g transform="matrix(36.4894,0,0,36.4894,1415.29,585.409)">
                <path d="M0.051,-0.005L0.528,-0.005L0.528,-0.064L0.158,-0.064C0.299,-0.168 0.506,-0.337 0.506,-0.52C0.506,-0.658 0.414,-0.729 0.289,-0.729C0.157,-0.729 0.065,-0.646 0.057,-0.495L0.125,-0.495C0.131,-0.595 0.183,-0.669 0.289,-0.669C0.4,-0.669 0.436,-0.6 0.436,-0.517C0.436,-0.364 0.257,-0.209 0.051,-0.055L0.051,-0.005Z" style="fill:white;fill-rule:nonzero;"/>
            </g>
            <g transform="matrix(36.4894,0,0,36.4894,1437.07,585.409)">
                <path d="M0.065,-0.365C0.065,-0.156 0.111,0.002 0.308,0.002C0.504,0.002 0.551,-0.156 0.551,-0.365C0.551,-0.57 0.504,-0.727 0.308,-0.727C0.111,-0.727 0.065,-0.57 0.065,-0.365ZM0.482,-0.365C0.482,-0.197 0.46,-0.062 0.308,-0.062C0.156,-0.062 0.134,-0.197 0.134,-0.365C0.134,-0.527 0.156,-0.664 0.308,-0.664C0.46,-0.664 0.482,-0.527 0.482,-0.365Z" style="fill:white;fill-rule:nonzero;"/>
            </g>
            <g transform="matrix(36.4894,0,0,36.4894,1460.46,585.409)">
                <path d="M0.13,-0L0.201,-0L0.201,-0.717L0.031,-0.717L0.031,-0.654L0.13,-0.654L0.13,-0Z" style="fill:white;fill-rule:nonzero;"/>
            </g>
            <g transform="matrix(36.4894,0,0,36.4894,1472.03,585.409)">
                <path d="M0.062,-0.534L0.13,-0.534C0.141,-0.621 0.206,-0.669 0.295,-0.669C0.39,-0.669 0.441,-0.616 0.441,-0.54C0.441,-0.452 0.374,-0.407 0.237,-0.407L0.214,-0.407L0.214,-0.348L0.236,-0.348C0.375,-0.348 0.455,-0.302 0.455,-0.196C0.455,-0.117 0.404,-0.054 0.298,-0.054C0.192,-0.054 0.13,-0.119 0.118,-0.204L0.05,-0.204C0.064,-0.068 0.163,0.005 0.298,0.005C0.449,0.005 0.522,-0.081 0.522,-0.19C0.522,-0.296 0.458,-0.358 0.367,-0.376L0.367,-0.381C0.461,-0.396 0.509,-0.466 0.509,-0.547C0.509,-0.649 0.435,-0.73 0.297,-0.73C0.163,-0.73 0.072,-0.656 0.062,-0.534Z" style="fill:white;fill-rule:nonzero;"/>
            </g>
            <g transform="matrix(36.4894,0,0,36.4894,1506.3,585.409)">
                <rect x="0.03" y="-0.4" width="0.389" height="0.059" style="fill:white;fill-rule:nonzero;"/>
            </g>
            <g transform="matrix(36.4894,0,0,36.4894,1538.15,585.409)">
                <path d="M0.051,-0.005L0.528,-0.005L0.528,-0.064L0.158,-0.064C0.299,-0.168 0.506,-0.337 0.506,-0.52C0.506,-0.658 0.414,-0.729 0.289,-0.729C0.157,-0.729 0.065,-0.646 0.057,-0.495L0.125,-0.495C0.131,-0.595 0.183,-0.669 0.289,-0.669C0.4,-0.669 0.436,-0.6 0.436,-0.517C0.436,-0.364 0.257,-0.209 0.051,-0.055L0.051,-0.005Z" style="fill:white;fill-rule:nonzero;"/>
            </g>
            <g transform="matrix(36.4894,0,0,36.4894,1559.94,585.409)">
                <path d="M0.065,-0.365C0.065,-0.156 0.111,0.002 0.308,0.002C0.504,0.002 0.551,-0.156 0.551,-0.365C0.551,-0.57 0.504,-0.727 0.308,-0.727C0.111,-0.727 0.065,-0.57 0.065,-0.365ZM0.482,-0.365C0.482,-0.197 0.46,-0.062 0.308,-0.062C0.156,-0.062 0.134,-0.197 0.134,-0.365C0.134,-0.527 0.156,-0.664 0.308,-0.664C0.46,-0.664 0.482,-0.527 0.482,-0.365Z" style="fill:white;fill-rule:nonzero;"/>
            </g>
            <g transform="matrix(36.4894,0,0,36.4894,1583.33,585.409)">
                <path d="M0.051,-0.005L0.528,-0.005L0.528,-0.064L0.158,-0.064C0.299,-0.168 0.506,-0.337 0.506,-0.52C0.506,-0.658 0.414,-0.729 0.289,-0.729C0.157,-0.729 0.065,-0.646 0.057,-0.495L0.125,-0.495C0.131,-0.595 0.183,-0.669 0.289,-0.669C0.4,-0.669 0.436,-0.6 0.436,-0.517C0.436,-0.364 0.257,-0.209 0.051,-0.055L0.051,-0.005Z" style="fill:white;fill-rule:nonzero;"/>
            </g>
            <g transform="matrix(36.4894,0,0,36.4894,1605.11,585.409)">
                <path d="M0.062,-0.534L0.13,-0.534C0.141,-0.621 0.206,-0.669 0.295,-0.669C0.39,-0.669 0.441,-0.616 0.441,-0.54C0.441,-0.452 0.374,-0.407 0.237,-0.407L0.214,-0.407L0.214,-0.348L0.236,-0.348C0.375,-0.348 0.455,-0.302 0.455,-0.196C0.455,-0.117 0.404,-0.054 0.298,-0.054C0.192,-0.054 0.13,-0.119 0.118,-0.204L0.05,-0.204C0.064,-0.068 0.163,0.005 0.298,0.005C0.449,0.005 0.522,-0.081 0.522,-0.19C0.522,-0.296 0.458,-0.358 0.367,-0.376L0.367,-0.381C0.461,-0.396 0.509,-0.466 0.509,-0.547C0.509,-0.649 0.435,-0.73 0.297,-0.73C0.163,-0.73 0.072,-0.656 0.062,-0.534Z" style="fill:white;fill-rule:nonzero;"/>
            </g>
        </g>
    </g>
</svg>
