<?xml version="1.0" encoding="UTF-8" standalone="no"?><!DOCTYPE svg PUBLIC "-//W3C//DTD SVG 1.1//EN" "http://www.w3.org/Graphics/SVG/1.1/DTD/svg11.dtd"><svg width="98px" height="30px" version="1.1" xmlns="http://www.w3.org/2000/svg" xmlns:xlink="http://www.w3.org/1999/xlink" xml:space="preserve" xmlns:serif="http://www.serif.com/" style="fill-rule:evenodd;clip-rule:evenodd;stroke-linejoin:round;stroke-miterlimit:1.41421;"><g><path d="M15.055,29.782c-8.182,0 -14.815,-6.633 -14.815,-14.814c0,-8.182 6.633,-14.815 14.815,-14.815c8.181,0 14.814,6.633 14.814,14.815c0,8.181 -6.633,14.814 -14.814,14.814Zm-0.001,-27.349c-6.922,0 -12.534,5.612 -12.534,12.535c0,6.922 5.612,12.534 12.534,12.534c6.923,0 12.535,-5.612 12.535,-12.534c0,-6.923 -5.612,-12.535 -12.535,-12.535Z" style="fill:#fff;fill-rule:nonzero;"/><path d="M19.866,25.465c-0.474,0 -2.201,-3.073 -2.433,-3.949c-0.485,-1.834 -0.38,-2.609 -0.351,-2.856c0.088,-0.757 0.822,-1.135 0.867,-2.158c0.014,-0.316 0.173,-1.895 0.301,-3.129c-0.315,-0.061 -0.628,-0.203 -0.906,-0.422c0.835,1.12 -0.394,2.463 -2.181,4.249c-1.896,1.897 -6.105,3.657 -6.105,3.657c0,0 1.76,-4.209 3.656,-6.106c1.394,-1.393 2.518,-2.448 3.476,-2.448c0.271,0 0.528,0.084 0.774,0.267c-0.22,-0.278 -0.361,-0.591 -0.423,-0.905c-1.233,0.128 -2.813,0.287 -3.129,0.301c-1.023,0.044 -1.401,0.778 -2.157,0.867c-0.087,0.01 -0.239,0.03 -0.479,0.03c-0.444,0 -1.188,-0.067 -2.378,-0.382c-0.952,-0.252 -4.503,-2.272 -3.875,-2.525c0.32,-0.13 1.341,-0.218 2.685,-0.218c1.293,0 2.884,0.081 4.439,0.284c1.939,0.253 3.717,0.572 4.928,0.81c0.02,-0.065 0.043,-0.129 0.071,-0.19l-1.238,-0.594c0,0 -0.989,-1.135 -0.884,-1.213c0.004,-0.003 0.01,-0.005 0.016,-0.005c0.155,0 0.946,0.905 1.023,1.008c0.058,0.02 0.394,0.131 0.747,0.249l-0.351,-0.307c0,0 -0.479,-1.775 -0.354,-1.817c0.001,-0.001 0.003,-0.001 0.005,-0.001c0.131,0 0.566,1.544 0.604,1.655c0.085,0.075 0.374,0.188 0.735,0.396l-0.38,-0.976c0,0 0.172,-1.611 0.301,-1.611c0.001,0 0.002,0 0.003,0c0.129,0.026 -0.026,1.344 -0.058,1.508c0.047,0.072 0.338,0.518 0.63,0.966c0.179,-0.068 0.372,-0.101 0.571,-0.101c0.227,0 0.462,0.044 0.689,0.131c-0.291,-0.62 -0.269,-1.265 0.117,-1.651c0.122,-0.122 0.27,-0.207 0.435,-0.258c0.02,-0.113 0.073,-0.22 0.158,-0.305c0.112,-0.112 0.259,-0.167 0.408,-0.167c0.156,0 0.313,0.06 0.434,0.181c0.116,0.116 0.176,0.265 0.181,0.414c0.187,-0.384 0.406,-0.902 0.391,-1.07c-0.036,-0.379 -0.476,-1.052 -0.481,-1.058c-0.028,-0.044 -0.016,-0.102 0.028,-0.131c0.015,-0.011 0.033,-0.016 0.051,-0.016c0.031,0 0.061,0.015 0.079,0.043c0.019,0.029 0.471,0.718 0.511,1.145c0.022,0.244 -0.258,0.859 -0.411,1.174c0.215,0.117 0.424,0.272 0.615,0.463c0.191,0.191 0.346,0.4 0.463,0.614c0.302,-0.147 0.883,-0.411 1.144,-0.411c0.01,0 0.02,0 0.03,0.001c0.426,0.04 1.116,0.491 1.145,0.511c0.043,0.028 0.055,0.087 0.027,0.13c-0.018,0.028 -0.049,0.043 -0.079,0.043c-0.018,0 -0.036,-0.005 -0.052,-0.016c-0.007,-0.004 -0.679,-0.445 -1.059,-0.48c-0.005,-0.001 -0.012,-0.001 -0.018,-0.001c-0.185,0 -0.681,0.211 -1.052,0.391c0.149,0.005 0.299,0.066 0.414,0.182c0.237,0.236 0.243,0.613 0.015,0.841c-0.086,0.086 -0.193,0.139 -0.305,0.158c-0.051,0.166 -0.136,0.314 -0.259,0.436c-0.212,0.213 -0.504,0.315 -0.827,0.315c-0.262,0 -0.546,-0.068 -0.824,-0.198c0.163,0.425 0.176,0.874 0.031,1.26c0.447,0.292 0.894,0.583 0.966,0.63c0.117,-0.023 0.823,-0.109 1.226,-0.109c0.161,0 0.274,0.014 0.281,0.051c0.026,0.129 -1.61,0.303 -1.61,0.303l-0.976,-0.379c0.208,0.361 0.32,0.65 0.395,0.735c0.113,0.038 1.696,0.484 1.655,0.609c-0.005,0.015 -0.033,0.021 -0.078,0.021c-0.349,0 -1.74,-0.376 -1.74,-0.376l-0.306,-0.35c0.117,0.353 0.229,0.688 0.249,0.747c0.107,0.08 1.081,0.932 1.003,1.038c-0.004,0.005 -0.011,0.008 -0.02,0.008c-0.171,0 -1.193,-0.891 -1.193,-0.891l-0.594,-1.239c-0.061,0.029 -0.125,0.052 -0.19,0.072c0.237,1.211 0.557,2.989 0.81,4.927c0.413,3.172 0.32,6.496 0.066,7.124c-0.02,0.051 -0.052,0.074 -0.093,0.074Z" style="fill:#fff;fill-rule:nonzero;"/><path d="M41.339,11.619c0,-1.56 -0.265,-2.397 -3.431,-2.397c-3.148,0 -3.413,0.837 -3.413,2.397l0,5.781c0,1.56 0.265,2.397 3.413,2.397c3.166,0 3.431,-0.837 3.431,-2.397l0,-5.781Zm-3.431,9.376c-4.418,0 -4.93,-1.369 -4.93,-3.423l0,-6.124c0,-2.036 0.512,-3.424 4.93,-3.424c4.436,0 4.948,1.388 4.948,3.424l0,6.124c0,2.054 -0.512,3.423 -4.948,3.423Z" style="fill:#fff;fill-rule:nonzero;"/><path d="M53.508,8.176l0,9.205c0,1.56 0.304,2.397 2.579,2.397c2.312,0 2.578,-0.837 2.578,-2.397l0,-9.205l1.516,0l0,9.396c0,2.054 -0.53,3.423 -4.094,3.423c-2.029,0 -2.939,-0.837 -3.337,-1.483c-0.398,0.646 -1.308,1.483 -3.337,1.483c-3.564,0 -4.095,-1.369 -4.095,-3.423l0,-9.396l1.517,0l0,9.205c0,1.56 0.265,2.397 2.578,2.397c2.275,0 2.578,-0.837 2.578,-2.397l0,-9.205l1.517,0Z" style="fill:#fff;fill-rule:nonzero;"/><path d="M70.97,11.619c0,-1.56 -0.208,-2.397 -3.374,-2.397c-3.166,0 -3.375,0.837 -3.375,2.397l0,3.214l6.749,0l0,-3.214Zm1.517,9.243l-1.517,0l0,-4.698l-6.749,0l0,4.698l-1.516,0l0,-9.414c0,-2.036 0.474,-3.424 4.891,-3.424c4.417,0 4.891,1.388 4.891,3.424l0,9.414Z" style="fill:#fff;fill-rule:nonzero;"/><path d="M79.792,21.014c-4.417,0 -4.891,-1.388 -4.891,-3.423l0,-1.008l1.516,0l0,0.836c0,1.56 0.209,2.397 3.375,2.397c3.166,0 3.374,-0.837 3.374,-2.397l0,-0.19c0,-1.16 -0.568,-1.616 -1.725,-1.806l-3.943,-0.628c-1.801,-0.285 -2.597,-1.293 -2.597,-2.701l0,-0.627c0,-2.055 0.474,-3.424 4.891,-3.424c4.417,0 4.891,1.369 4.891,3.424l0,0.437l-1.517,0l0,-0.266c0,-1.56 -0.208,-2.397 -3.374,-2.397c-3.166,0 -3.375,0.837 -3.375,2.397l0,0.304c0,0.837 0.304,1.35 1.422,1.541l4.209,0.684c1.725,0.286 2.635,1.16 2.635,2.739l0,0.685c0,2.035 -0.474,3.423 -4.891,3.423Z" style="fill:#fff;fill-rule:nonzero;"/><path d="M95.406,11.752c0,-1.56 -0.702,-2.377 -2.541,-2.377l-4.208,0l0,6.637l4.208,0c1.858,0 2.541,-0.837 2.541,-2.396l0,-1.864Zm-2.541,5.458l-4.208,0l0,3.652l-1.517,0l0,-12.686l5.725,0c3.109,0 4.057,1.37 4.057,3.424l0,2.187c0,2.035 -0.948,3.423 -4.057,3.423Z" style="fill:#fff;fill-rule:nonzero;"/></g></svg>