<?xml version="1.0" encoding="UTF-8" standalone="no"?><!DOCTYPE svg PUBLIC "-//W3C//DTD SVG 1.1//EN" "http://www.w3.org/Graphics/SVG/1.1/DTD/svg11.dtd"><svg width="50px" height="50px" version="1.1" xmlns="http://www.w3.org/2000/svg" xmlns:xlink="http://www.w3.org/1999/xlink" xml:space="preserve" xmlns:serif="http://www.serif.com/" style="fill-rule:evenodd;clip-rule:evenodd;stroke-linejoin:round;stroke-miterlimit:1.41421;"><g><path d="M24.145,4.862L24.145,0C11.913,1.798 2.191,11.307 0.09,23.438L4.983,23.438C6.971,13.968 14.571,6.563 24.145,4.862Z" style="fill:#908e8f;fill-rule:nonzero;"/><path d="M24.145,9.277L24.145,4.862C14.571,6.562 6.971,13.968 4.983,23.438L9.429,23.438C11.268,16.364 16.968,10.849 24.145,9.277Z" style="fill:#bcbbbb;fill-rule:nonzero;"/><path d="M37.947,21.461L34.32,25.096C34.426,25.303 34.547,25.495 34.636,25.717C34.97,26.552 35.137,27.467 35.137,28.453L35.137,28.518C35.137,29.528 34.97,30.441 34.636,31.256C34.304,32.074 33.842,32.781 33.252,33.381C32.661,33.984 31.947,34.444 31.111,34.765C30.273,35.087 29.349,35.249 28.34,35.249L24.509,35.249L24.509,34.929L19.723,39.727L28.34,39.727C30.101,39.727 31.715,39.436 33.187,38.857C34.658,38.276 35.925,37.484 36.987,36.471C38.051,35.464 38.871,34.274 39.451,32.897C40.031,31.524 40.321,30.043 40.321,28.453L40.321,28.391C40.321,26.801 40.031,25.325 39.451,23.96C39.062,23.045 38.554,22.217 37.946,21.46L37.947,21.461Z" style="fill:#3d598b;fill-rule:nonzero;"/><path d="M24.509,21.659L28.34,21.659C29.348,21.659 30.273,21.825 31.112,22.158C31.947,22.491 32.661,22.959 33.253,23.558C33.685,24 34.025,24.528 34.32,25.096L37.947,21.461C37.65,21.092 37.337,20.734 36.987,20.403C35.926,19.395 34.658,18.607 33.188,18.036C31.716,17.467 30.102,17.183 28.34,17.183L19.549,17.183L19.549,39.728L19.724,39.728L24.51,34.93L24.51,21.66L24.509,21.659Z" style="fill:#768aad;fill-rule:nonzero;"/><path d="M33.461,5.044L33.461,9.502C37.432,10.576 40.893,12.875 43.435,15.96L46.509,12.878C43.188,8.987 38.64,6.174 33.461,5.044Z" style="fill:#bcbbbb;fill-rule:nonzero;"/><path d="M33.461,0.146L33.461,5.044C38.64,6.174 43.188,8.986 46.509,12.877L49.905,9.473C45.717,4.697 39.975,1.318 33.461,0.146L33.461,0.146ZM4.874,32.753L0,32.753C1.049,39.592 4.521,45.624 9.503,49.971L12.897,46.569C8.802,43.089 5.894,38.253 4.874,32.753Z" style="fill:#3d598b;fill-rule:nonzero;"/><path d="M9.299,32.753L4.874,32.753C5.895,38.253 8.802,43.089 12.897,46.569L15.974,43.485C12.684,40.787 10.283,37.043 9.299,32.753Z" style="fill:#bcbbbb;fill-rule:nonzero;"/></g></svg>