<?xml version="1.0" encoding="UTF-8" standalone="no"?><!DOCTYPE svg PUBLIC "-//W3C//DTD SVG 1.1//EN" "http://www.w3.org/Graphics/SVG/1.1/DTD/svg11.dtd"><svg width="120px" height="37px" version="1.1" xmlns="http://www.w3.org/2000/svg" xmlns:xlink="http://www.w3.org/1999/xlink" xml:space="preserve" xmlns:serif="http://www.serif.com/" style="fill-rule:evenodd;clip-rule:evenodd;stroke-linejoin:round;stroke-miterlimit:1.41421;"><g><path d="M18.583,36.84c-10.13,0 -18.343,-8.213 -18.343,-18.343c0,-10.131 8.213,-18.344 18.343,-18.344c10.131,0 18.344,8.213 18.344,18.344c0,10.13 -8.213,18.343 -18.344,18.343Zm0,-33.864c-8.571,0 -15.52,6.949 -15.52,15.52c0,8.572 6.949,15.521 15.52,15.521c8.572,0 15.52,-6.949 15.52,-15.521c0,-8.571 -6.948,-15.52 -15.52,-15.52Z" style="fill:#231f20;fill-rule:nonzero;"/><path d="M24.541,31.495c-0.587,0 -2.725,-3.805 -3.012,-4.89c-0.601,-2.271 -0.471,-3.23 -0.435,-3.537c0.109,-0.937 1.018,-1.405 1.074,-2.671c0.016,-0.391 0.214,-2.347 0.372,-3.874c-0.389,-0.076 -0.777,-0.252 -1.121,-0.524c1.034,1.387 -0.489,3.05 -2.701,5.262c-2.348,2.348 -7.56,4.528 -7.56,4.528c0,0 2.18,-5.212 4.528,-7.56c1.726,-1.726 3.117,-3.032 4.304,-3.032c0.335,0 0.653,0.104 0.958,0.331c-0.272,-0.344 -0.447,-0.732 -0.524,-1.12c-1.527,0.157 -3.483,0.355 -3.874,0.372c-1.267,0.055 -1.735,0.964 -2.671,1.074c-0.108,0.012 -0.296,0.036 -0.593,0.036c-0.549,0 -1.471,-0.082 -2.944,-0.472c-1.18,-0.312 -5.576,-2.813 -4.798,-3.127c0.396,-0.161 1.66,-0.269 3.324,-0.269c1.6,0 3.571,0.1 5.496,0.351c2.401,0.313 4.602,0.708 6.102,1.002c0.025,-0.08 0.054,-0.159 0.089,-0.235l-1.534,-0.735c0,0 -1.225,-1.405 -1.094,-1.502c0.005,-0.004 0.011,-0.006 0.019,-0.006c0.192,0 1.172,1.121 1.267,1.248c0.072,0.024 0.488,0.163 0.925,0.308l-0.434,-0.379c0,0 -0.594,-2.199 -0.439,-2.251c0.002,0 0.004,-0.001 0.006,-0.001c0.163,0 0.702,1.912 0.748,2.05c0.106,0.093 0.463,0.232 0.91,0.49l-0.47,-1.209c0,0 0.213,-1.994 0.372,-1.994c0.001,0 0.003,0 0.004,0c0.16,0.032 -0.032,1.663 -0.072,1.867c0.058,0.089 0.419,0.642 0.78,1.196c0.222,-0.084 0.462,-0.125 0.707,-0.125c0.282,0 0.572,0.054 0.853,0.162c-0.36,-0.767 -0.333,-1.567 0.145,-2.044c0.151,-0.151 0.335,-0.257 0.54,-0.32c0.024,-0.139 0.089,-0.272 0.195,-0.378c0.138,-0.138 0.32,-0.207 0.505,-0.207c0.192,0 0.388,0.076 0.538,0.225c0.143,0.144 0.218,0.329 0.224,0.513c0.23,-0.476 0.503,-1.117 0.484,-1.325c-0.045,-0.47 -0.59,-1.302 -0.595,-1.311c-0.036,-0.054 -0.021,-0.126 0.033,-0.162c0.02,-0.013 0.042,-0.019 0.064,-0.019c0.038,0 0.075,0.019 0.097,0.053c0.024,0.036 0.584,0.889 0.633,1.418c0.028,0.302 -0.319,1.064 -0.508,1.453c0.265,0.145 0.524,0.337 0.761,0.574c0.236,0.236 0.428,0.495 0.574,0.76c0.374,-0.182 1.092,-0.51 1.416,-0.51c0.013,0 0.025,0.001 0.037,0.002c0.528,0.05 1.381,0.609 1.417,0.632c0.054,0.036 0.069,0.108 0.034,0.162c-0.023,0.034 -0.06,0.053 -0.098,0.053c-0.022,0 -0.044,-0.006 -0.064,-0.019c-0.008,-0.006 -0.841,-0.551 -1.311,-0.595c-0.007,-0.001 -0.015,-0.001 -0.023,-0.001c-0.229,0 -0.843,0.261 -1.302,0.484c0.185,0.006 0.37,0.081 0.513,0.225c0.293,0.292 0.301,0.759 0.018,1.042c-0.106,0.106 -0.238,0.171 -0.378,0.196c-0.063,0.204 -0.169,0.388 -0.32,0.539c-0.263,0.264 -0.624,0.39 -1.024,0.39c-0.325,0 -0.676,-0.084 -1.02,-0.245c0.201,0.526 0.217,1.083 0.037,1.56c0.554,0.362 1.108,0.722 1.197,0.78c0.145,-0.029 1.019,-0.135 1.518,-0.135c0.2,0 0.339,0.017 0.348,0.063c0.032,0.16 -1.994,0.376 -1.994,0.376l-1.209,-0.47c0.258,0.447 0.397,0.804 0.49,0.911c0.14,0.046 2.1,0.599 2.049,0.754c-0.006,0.017 -0.041,0.025 -0.097,0.025c-0.432,0 -2.154,-0.465 -2.154,-0.465l-0.379,-0.434c0.145,0.438 0.284,0.853 0.308,0.926c0.133,0.098 1.339,1.154 1.242,1.285c-0.005,0.006 -0.013,0.009 -0.024,0.009c-0.212,0 -1.478,-1.103 -1.478,-1.103l-0.735,-1.534c-0.076,0.035 -0.155,0.064 -0.236,0.089c0.295,1.5 0.691,3.701 1.004,6.101c0.511,3.927 0.396,8.043 0.082,8.821c-0.026,0.063 -0.065,0.092 -0.116,0.092Z" style="fill:#555658;fill-rule:nonzero;"/><path d="M51.129,14.35c0,-1.931 -0.329,-2.967 -4.249,-2.967c-3.896,0 -4.225,1.036 -4.225,2.967l0,7.159c0,1.931 0.329,2.967 4.225,2.967c3.92,0 4.249,-1.036 4.249,-2.967l0,-7.159Zm-4.249,11.61c-5.469,0 -6.103,-1.696 -6.103,-4.239l0,-7.583c0,-2.52 0.634,-4.239 6.103,-4.239c5.493,0 6.127,1.719 6.127,4.239l0,7.583c0,2.543 -0.634,4.239 -6.127,4.239Z" style="fill:#231f20;fill-rule:nonzero;"/><path d="M66.197,10.088l0,11.397c0,1.931 0.376,2.968 3.193,2.968c2.863,0 3.192,-1.037 3.192,-2.968l0,-11.397l1.878,0l0,11.633c0,2.543 -0.657,4.239 -5.07,4.239c-2.512,0 -3.639,-1.036 -4.132,-1.837c-0.493,0.801 -1.62,1.837 -4.131,1.837c-4.413,0 -5.071,-1.696 -5.071,-4.239l0,-11.633l1.878,0l0,11.397c0,1.931 0.329,2.968 3.193,2.968c2.817,0 3.192,-1.037 3.192,-2.968l0,-11.397l1.878,0Z" style="fill:#231f20;fill-rule:nonzero;"/><path d="M87.819,14.35c0,-1.931 -0.258,-2.967 -4.178,-2.967c-3.921,0 -4.179,1.036 -4.179,2.967l0,3.98l8.357,0l0,-3.98Zm1.878,11.445l-1.878,0l0,-5.817l-8.357,0l0,5.817l-1.878,0l0,-11.657c0,-2.52 0.587,-4.239 6.057,-4.239c5.469,0 6.056,1.719 6.056,4.239l0,11.657Z" style="fill:#231f20;fill-rule:nonzero;"/><path d="M98.742,25.983c-5.47,0 -6.056,-1.719 -6.056,-4.238l0,-1.248l1.877,0l0,1.035c0,1.932 0.259,2.968 4.179,2.968c3.92,0 4.178,-1.036 4.178,-2.968l0,-0.235c0,-1.436 -0.704,-2.002 -2.136,-2.237l-4.882,-0.777c-2.23,-0.353 -3.216,-1.602 -3.216,-3.344l0,-0.777c0,-2.544 0.586,-4.239 6.056,-4.239c5.47,0 6.056,1.695 6.056,4.239l0,0.541l-1.878,0l0,-0.329c0,-1.931 -0.258,-2.968 -4.178,-2.968c-3.92,0 -4.179,1.037 -4.179,2.968l0,0.376c0,1.037 0.376,1.672 1.761,1.908l5.212,0.848c2.136,0.353 3.262,1.436 3.262,3.391l0,0.848c0,2.519 -0.586,4.238 -6.056,4.238Z" style="fill:#231f20;fill-rule:nonzero;"/><path d="M118.075,14.515c0,-1.931 -0.868,-2.944 -3.145,-2.944l-5.211,0l0,8.219l5.211,0c2.3,0 3.145,-1.036 3.145,-2.967l0,-2.308Zm-3.145,6.759l-5.211,0l0,4.521l-1.879,0l0,-15.707l7.09,0c3.849,0 5.023,1.695 5.023,4.238l0,2.709c0,2.519 -1.174,4.239 -5.023,4.239Z" style="fill:#231f20;fill-rule:nonzero;"/></g></svg>