<?xml version="1.0" encoding="UTF-8" standalone="no"?><!DOCTYPE svg PUBLIC "-//W3C//DTD SVG 1.1//EN" "http://www.w3.org/Graphics/SVG/1.1/DTD/svg11.dtd"><svg width="100%" height="100%" viewBox="0 0 137 70" version="1.1" xmlns="http://www.w3.org/2000/svg" xmlns:xlink="http://www.w3.org/1999/xlink" xml:space="preserve" xmlns:serif="http://www.serif.com/" style="fill-rule:evenodd;clip-rule:evenodd;stroke-linejoin:round;stroke-miterlimit:2;"><path id="Continuous" d="M70.465,12.11c0.837,0.144 1.744,0.218 2.58,0.431c7.251,1.502 12.604,5.576 15.991,12.153c1.452,2.798 2.205,5.803 2.398,9.084c1.814,0.009 3.559,0.017 5.373,0.026c-2.875,2.847 -5.75,5.625 -8.555,8.402c-2.778,-2.805 -5.556,-5.61 -8.403,-8.486c1.954,0.01 3.908,0.02 6.002,0.03c-0.204,-1.118 -0.268,-2.165 -0.613,-3.143c-1.99,-6.779 -6.435,-11.058 -13.267,-12.558c-8.923,-1.928 -17.744,3.681 -20.021,12.532c-2.489,9.479 3.534,19.209 13.155,21.211c2.51,0.501 5.092,0.514 7.607,-0.102c0.21,-0.069 0.489,0.002 0.558,0.073c1.319,1.332 2.708,2.665 4.027,4.067c0,0 0.07,0.07 0.139,0.28c-1.258,0.343 -2.377,0.826 -3.565,1.029c-11.666,2.524 -22.383,-3.67 -26.45,-13.879c-0.827,-2.028 -1.305,-4.124 -1.434,-6.288c0.001,-0.139 -0.069,-0.279 -0.068,-0.419c0.006,-1.116 0.011,-2.233 0.017,-3.419c0.001,-0.14 0.071,-0.279 0.072,-0.419c0.298,-3.906 1.572,-7.459 3.821,-10.588c3.585,-5.216 8.486,-8.402 14.703,-9.628c0.838,-0.135 1.676,-0.271 2.514,-0.406c1.117,0.005 2.303,0.011 3.419,0.017Z" style="fill:#1f2536;fill-rule:nonzero;"/><path id="Iris" d="M68.695,23.937c6.087,0.002 11.028,4.945 11.026,11.033c-0.001,6.087 -4.945,11.028 -11.033,11.027c-6.087,-0.002 -11.028,-4.946 -11.026,-11.033c0.001,-6.088 4.945,-11.029 11.033,-11.027Z" style="fill:#FF00CF;"/><path id="Eyeliner" d="M68.822,69.453c-22.828,-0.007 -45.094,-10.903 -66.241,-32.341l-1.744,-1.815l1.676,-1.884c1.187,-1.326 29.817,-32.942 68.562,-32.931c22.897,0.006 44.326,11.112 63.796,32.967l1.536,1.746l-1.467,1.815c-1.047,1.326 -27.235,32.453 -66.118,32.443m-60.516,-34.294c19.472,19.134 39.853,28.843 60.517,28.849c31.205,0.008 54.388,-22.324 60.463,-28.815c-17.936,-19.482 -37.479,-29.33 -58.143,-29.336c-31.205,0.061 -56.133,22.672 -62.837,29.302" style="fill:#1f2536;fill-rule:nonzero;"/></svg>