<?xml version="1.0" encoding="UTF-8" standalone="no"?><!DOCTYPE svg PUBLIC "-//W3C//DTD SVG 1.1//EN" "http://www.w3.org/Graphics/SVG/1.1/DTD/svg11.dtd"><svg width="100%" height="100%" viewBox="0 0 100 70" version="1.1" xmlns="http://www.w3.org/2000/svg" xmlns:xlink="http://www.w3.org/1999/xlink" xml:space="preserve" xmlns:serif="http://www.serif.com/" style="fill-rule:evenodd;clip-rule:evenodd;stroke-linejoin:round;stroke-miterlimit:2;"><g id="titles"><path d="M35.8,1c1.2,0.2 2.5,0.3 3.7,0.6c10.4,2.1 18.1,7.9 23,17.3c2.1,4 3.2,8.3 3.5,13l7.7,0c-4.1,4.1 -8.2,8.1 -12.2,12.1c-4,-4 -8,-8 -12.1,-12.1l8.6,0c-0.3,-1.6 -0.4,-3.1 -0.9,-4.5c-2.9,-9.7 -9.3,-15.8 -19.1,-17.9c-12.8,-2.7 -25.4,5.4 -28.6,18.1c-3.5,13.6 5.2,27.5 19,30.3c3.6,0.7 7.3,0.7 10.9,-0.2c0.3,-0.1 0.7,0 0.8,0.1c1.9,1.9 3.9,3.8 5.8,5.8c0,0 0.1,0.1 0.2,0.4c-1.8,0.5 -3.4,1.2 -5.1,1.5c-16.7,3.7 -32.1,-5.1 -38,-19.7c-1.2,-2.9 -1.9,-5.9 -2.1,-9c0,-0.2 -0.1,-0.4 -0.1,-0.6l0,-4.9c0,-0.2 0.1,-0.4 0.1,-0.6c0.4,-5.6 2.2,-10.7 5.4,-15.2c5.1,-7.5 12.1,-12.1 21,-13.9c1.2,-0.2 2.4,-0.4 3.6,-0.6l4.9,0Z" style="fill:#1f2536;fill-rule:nonzero;"/><path d="M64.1,67.4c-1.2,-0.2 -2.5,-0.3 -3.7,-0.6c-10.4,-2.1 -18.1,-7.9 -23,-17.3c-2.1,-4 -3.2,-8.3 -3.5,-13l-7.7,0c4.1,-4.1 8.2,-8.1 12.1,-12.1c4,4 8,8 12.1,12.1l-8.6,0c0.3,1.6 0.4,3.1 0.9,4.5c2.9,9.7 9.3,15.8 19.1,17.9c12.8,2.7 25.4,-5.4 28.6,-18.1c3.5,-13.6 -5.2,-27.5 -19,-30.3c-3.6,-0.7 -7.3,-0.7 -10.9,0.2c-0.3,0.1 -0.7,0 -0.8,-0.1c-1.9,-1.9 -3.9,-3.8 -5.8,-5.8c0,0 -0.1,-0.1 -0.2,-0.4c1.8,-0.5 3.4,-1.2 5.1,-1.5c16.6,-3.7 32.1,5.1 38,19.7c1.2,2.9 1.9,5.9 2.1,9c0,0.2 0.1,0.4 0.1,0.6l0,4.9c0,0.2 -0.1,0.4 -0.1,0.6c-0.5,5.5 -2.3,10.6 -5.4,15.2c-5.1,7.5 -12.1,12.1 -21,13.9c-1.2,0.2 -2.4,0.4 -3.6,0.6l-4.8,0Z" style="fill:#227dc1;fill-rule:nonzero;"/></g></svg>