<?xml version="1.0" encoding="UTF-8" standalone="no"?><!DOCTYPE svg PUBLIC "-//W3C//DTD SVG 1.1//EN" "http://www.w3.org/Graphics/SVG/1.1/DTD/svg11.dtd"><svg width="100%" height="100%" viewBox="0 0 96 70" version="1.1" xmlns="http://www.w3.org/2000/svg" xmlns:xlink="http://www.w3.org/1999/xlink" xml:space="preserve" xmlns:serif="http://www.serif.com/" style="fill-rule:evenodd;clip-rule:evenodd;stroke-linejoin:round;stroke-miterlimit:2;"><path id="_-8dc63fff" serif:id="#8dc63fff" d="M41.549,2.371c2.337,-1.875 5.598,-2.394 8.458,-1.586c3.367,0.988 6.059,4.026 6.508,7.53c0.363,2.062 -0.197,4.13 -1.019,6.008c2.263,2.285 4.588,4.51 6.814,6.833c0.925,0.857 0.666,2.209 0.724,3.333c-0.102,3.148 0.151,6.311 -0.116,9.45c-0.595,2.182 -4.176,2.124 -4.656,-0.095c-0.235,-3.282 -0.029,-6.587 -0.103,-9.877c-2.05,-2.047 -4.106,-4.099 -6.155,-6.146c-2.224,1.022 -4.77,1.522 -7.165,0.813c-3.267,-0.838 -5.906,-3.6 -6.611,-6.889c-0.828,-3.419 0.525,-7.238 3.321,-9.374m3.843,3.326c-1.806,0.875 -2.955,3.056 -2.4,5.029c0.567,2.289 3.139,3.924 5.443,3.21c2.365,-0.59 4.008,-3.375 3.049,-5.697c-0.785,-2.428 -3.811,-3.691 -6.092,-2.542Z" style="fill:#FF00CF;fill-rule:nonzero;"/><path id="_-1c75bcff" serif:id="#1c75bcff" d="M19.87,9.155c0.858,-0.85 1.711,-1.978 3.057,-1.903c3.168,-0.074 6.339,-0.033 9.507,-0.027c1.063,-0.02 2.277,0.264 2.789,1.301c0.841,1.403 -0.177,3.547 -1.878,3.531c-3.173,0.063 -6.345,-0.005 -9.512,0.022c-2.057,2.059 -4.113,4.114 -6.161,6.173c0.965,2.096 1.493,4.467 0.922,6.743c-0.747,3.434 -3.599,6.295 -7.051,6.985c-3.071,0.729 -6.477,-0.26 -8.665,-2.534c-2.245,-2.19 -3.167,-5.588 -2.434,-8.619c0.792,-3.628 3.986,-6.584 7.671,-7.071c2.066,-0.372 4.154,0.186 6.032,1.029c1.928,-1.856 3.867,-3.698 5.723,-5.63m-11.42,9.489c-1.986,0.457 -3.435,2.412 -3.396,4.432c0.106,2.01 1.667,3.863 3.674,4.202c2.518,0.545 5.167,-1.596 5.227,-4.161c0.183,-2.803 -2.788,-5.271 -5.505,-4.473Z" style="fill:#1f2536;fill-rule:nonzero;"/><path id="_-92278fff" serif:id="#92278fff" d="M7.122,36.413c0.081,-1.892 2.721,-2.72 4.016,-1.449c0.868,0.663 0.779,1.844 0.814,2.815c-0.013,2.76 -0.015,5.514 -0.013,8.27c2.041,2.037 4.076,4.08 6.122,6.107c1.986,-0.898 4.21,-1.507 6.386,-1.024c3.577,0.58 6.642,3.484 7.408,7.021c0.747,3.09 -0.227,6.549 -2.548,8.737c-2.776,2.818 -7.409,3.439 -10.881,1.583c-3.056,-1.562 -5.064,-4.96 -4.944,-8.394c-0.029,-1.574 0.556,-3.059 1.149,-4.491c-2.151,-2.105 -4.267,-4.25 -6.412,-6.364c-0.66,-0.616 -1.234,-1.402 -1.13,-2.355c0.006,-3.486 -0.077,-6.976 0.033,-10.456m14.166,19.691c-2.037,0.727 -3.402,3.076 -2.821,5.199c0.557,2.361 3.289,3.995 5.613,3.172c2.155,-0.627 3.652,-3.089 3.007,-5.279c-0.571,-2.437 -3.448,-4.057 -5.799,-3.092Z" style="fill:#FF00CF;fill-rule:nonzero;"/><path id="_-be1e2dff" serif:id="#be1e2dff" d="M52.252,42.844c1.705,-3.501 5.747,-5.605 9.598,-5.016c4.405,0.447 7.979,4.503 8.044,8.904c0.141,3.67 -2.103,7.313 -5.497,8.744c-2.689,1.258 -5.852,0.934 -8.479,-0.311c-2.047,2.046 -4.094,4.096 -6.126,6.155c-0.702,0.717 -1.56,1.414 -2.627,1.349c-3.315,0.04 -6.632,0.029 -9.947,0.013c-1.243,0.095 -2.481,-0.819 -2.606,-2.089c-0.266,-1.291 0.795,-2.718 2.126,-2.728c3.179,-0.098 6.355,-0.005 9.532,-0.042c2.052,-2.05 4.104,-4.1 6.15,-6.159c-1.358,-2.726 -1.602,-6.068 -0.168,-8.82Z" style="fill:#1f2536;fill-rule:nonzero;"/><path d="M86.461,68.354c11.821,-11.961 11.735,-31.519 -0.19,-43.376c-0.333,-0.284 -0.757,-0.44 -1.194,-0.438c-1.006,0.003 -1.83,0.833 -1.827,1.838c0.001,0.438 0.159,0.861 0.445,1.192c10.502,10.44 10.58,27.662 0.172,38.197c-0.379,0.349 -0.595,0.842 -0.594,1.358c0.004,1.008 0.835,1.835 1.842,1.832c0.459,-0.003 0.9,-0.174 1.237,-0.484c0.035,-0.039 0.074,-0.078 0.109,-0.119Z" style="fill:#FF00CF;fill-rule:nonzero;"/><path d="M80.271,31.015c-0.336,-0.297 -0.77,-0.459 -1.217,-0.459c-1.005,0.003 -1.828,0.832 -1.825,1.837c0,0.447 0.167,0.879 0.466,1.214c7.211,7.171 7.246,19.003 0.079,26.217c-0.297,0.336 -0.461,0.77 -0.459,1.217c0.002,1.005 0.831,1.828 1.835,1.826c0.449,-0.002 0.881,-0.167 1.215,-0.467c8.578,-8.636 8.536,-22.8 -0.094,-31.385Z" style="fill:#FF00CF;fill-rule:nonzero;"/><path d="M74.414,37.043c-0.333,-0.285 -0.757,-0.439 -1.194,-0.439c-1.005,0.003 -1.83,0.833 -1.827,1.839c0.001,0.437 0.159,0.86 0.445,1.192c3.901,3.878 3.92,10.278 0.042,14.18c-0.404,0.349 -0.636,0.858 -0.634,1.392c0.002,1.005 0.832,1.831 1.838,1.827c0.534,-0.001 1.042,-0.236 1.389,-0.643c5.287,-5.325 5.26,-14.056 -0.059,-19.348Z" style="fill:#FF00CF;fill-rule:nonzero;"/></svg>